<svg viewBox="0 0 80 80" xmlns="http://www.w3.org/2000/svg">
<rect width="100%" height="100%" fill="white"/>
<path d="M44.165 18.7725C44.725 20.015 45.25 21.2837 45.8625 22.5C46.9242 24.6026 48.2123 26.5831 49.7038 28.4062C49.9575 28.7212 50.185 29.0625 50.4212 29.3863C50.4424 29.6775 50.4424 29.97 50.4212 30.2613C50.2304 31.3411 50.1483 32.4375 50.1763 33.5338L50.3075 36.4213V36.5525C50.4387 37.4275 50.5612 38.3025 50.6837 39.125C50.78 39.7988 50.8762 40.4725 50.9812 41.1375C51.1387 42.0125 51.3137 42.8875 51.4625 43.8238C51.6112 44.76 51.69 45.7137 51.8737 46.65C52.1095 47.7164 52.2356 48.8042 52.25 49.8963C51.3958 50.4573 50.4643 50.8906 49.485 51.1825C48.3478 51.5641 47.1753 51.8308 45.985 51.9787C45.0575 52.0837 44.1387 52.2763 43.2112 52.3463C42.1651 52.3347 41.1191 52.3843 40.0788 52.495H39.825L38.4688 50.9375V50.8063C39.4136 49.4472 40.1894 47.978 40.7787 46.4312C41.1892 45.4518 41.4516 44.4167 41.5575 43.36C41.6728 42.1205 41.608 40.8709 41.365 39.65C41.2075 38.8362 41.0675 38.0225 40.9362 37.2C40.805 36.3775 40.6563 35.31 40.5338 34.365C40.4107 33.6237 40.3318 32.8757 40.2975 32.125C40.2465 31.0741 40.2787 30.0208 40.3938 28.975C40.5856 27.6931 40.9021 26.4329 41.3387 25.2125C41.5312 24.6788 41.68 24.1187 41.8463 23.5762L43.5963 19.4287C43.6142 19.3451 43.6142 19.2586 43.5963 19.175C43.6795 19.0889 43.7671 19.0071 43.8587 18.93C43.9521 18.862 44.0554 18.8089 44.165 18.7725V18.7725Z" fill="#978CBD"/>
<path d="M62.9422 48.75C63.2612 50.2359 63.4022 51.7545 63.3622 53.2737C63.3622 53.7025 63.2659 54.1487 63.2134 54.5425C63.0503 54.6408 62.8952 54.752 62.7497 54.875C62.1022 55.47 61.4722 56.0912 60.8159 56.625C60.3635 57.0503 59.8712 57.4312 59.3459 57.7625C57.9942 58.617 56.5609 59.3351 55.0672 59.9062C54.1922 60.2213 53.2559 60.475 52.3459 60.7812C52.3222 60.4901 52.3222 60.1974 52.3459 59.9062C52.5182 58.8563 52.603 57.7939 52.5997 56.73V52.6525C52.5209 51.7162 52.4334 50.7888 52.3459 49.8613C53.4178 49.182 54.3166 48.2623 54.9709 47.175C55.4919 46.3134 55.7924 45.3367 55.8459 44.3313C55.8813 43.5512 55.8491 42.7695 55.7497 41.995C55.5472 40.8198 55.2277 39.6678 54.7959 38.5562L54.2972 37.1825C54.4156 37.2172 54.5278 37.2703 54.6297 37.34C55.3122 37.97 56.0122 38.5825 56.6509 39.2388C57.2897 39.895 58.0247 40.7262 58.6722 41.4962C59.3722 42.3081 60.0265 43.1581 60.6322 44.0425C61.5888 45.4389 62.3045 46.9857 62.7497 48.6187C62.7497 48.68 62.8722 48.75 62.9422 48.75Z" fill="#7867A8"/>
<path d="M16.8386 54.8137C16.5925 53.2772 16.5513 51.7148 16.7161 50.1675C16.9576 47.3166 17.4823 44.4969 18.2824 41.75C19.0203 39.1587 19.8965 36.6088 20.9074 34.1112C21.4499 32.755 22.0099 31.4162 22.5699 30.0687C22.5699 30.1387 22.6749 30.2087 22.6749 30.2787C22.7274 31.2412 22.7624 32.2037 22.8149 33.1662C22.8062 33.2711 22.8062 33.3764 22.8149 33.4812C22.8849 34.05 22.9724 34.6187 23.0424 35.2312C23.1124 35.8437 23.1211 36.1675 23.1999 36.6312C23.3486 37.4625 23.4886 38.3025 23.7161 39.1162C23.7861 39.3875 23.6636 39.7987 24.0749 39.9912L23.9524 41.0325C23.6986 41.2337 23.8561 41.5137 23.8211 41.7587C23.6811 42.7037 23.5324 43.64 23.4361 44.5937C23.3399 45.5475 23.2349 46.755 23.1824 47.84C23.1299 48.925 23.1124 50.0275 23.0774 51.1212C23.0074 53.1337 23.1299 55.155 23.1736 57.1762C23.1689 57.2608 23.1689 57.3455 23.1736 57.43C23.2524 58.1125 23.3224 58.7862 23.4011 59.46C22.4736 58.9787 21.5199 58.585 20.6186 58.0162C19.4127 57.275 18.3195 56.3645 17.3724 55.3125C17.2118 55.1286 17.0329 54.9615 16.8386 54.8137V54.8137Z" fill="#988CBD"/>
<path d="M59.3727 65.0775C59.119 65.4625 58.8915 65.8825 58.6027 66.2412C57.1888 67.9739 55.5361 69.497 53.694 70.765C53.526 70.8538 53.3463 70.9186 53.1602 70.9575C53.0296 70.8851 52.8918 70.8264 52.749 70.7825C52.2152 70.66 51.6727 70.5725 51.139 70.4325C50.194 70.1787 49.2665 69.89 48.3302 69.6187L46.3877 68.875C45.8452 68.5862 45.3027 68.3062 44.769 68C43.7452 67.4225 42.6952 66.88 41.724 66.25C40.4902 65.375 39.3177 64.5 38.1365 63.5637C37.6606 63.1669 37.2051 62.7464 36.7715 62.3037C37.839 62.3037 38.9065 62.3037 39.9827 62.4C41.1155 62.4392 42.2496 62.4041 43.3777 62.295C44.2119 62.26 45.0431 62.2162 45.8715 62.1637C46.2965 62.1392 46.72 62.0924 47.1402 62.0237C48.1465 61.8662 49.144 61.6912 50.1415 61.5162L50.404 61.3937C50.474 61.4725 50.5177 61.5775 50.6052 61.6212C51.0952 61.9012 51.594 62.1637 52.084 62.4262C53.3593 63.0961 54.6776 63.6807 56.0302 64.1762C57.1182 64.5666 58.236 64.8681 59.3727 65.0775V65.0775Z" fill="#7C6CAB"/>
<path d="M24.0664 39.9037C23.6551 39.755 23.7776 39.3437 23.7076 39.0287C23.4801 38.215 23.3401 37.375 23.1914 36.5437C23.1126 36.08 23.0864 35.6075 23.0339 35.1438C22.9814 34.68 22.8764 34.0063 22.8064 33.3938C22.7977 33.2889 22.7977 33.1836 22.8064 33.0787C22.7539 32.1162 22.7189 31.1537 22.6664 30.1912C22.6664 30.1212 22.5964 30.0512 22.5614 29.9812C23.7339 27.5312 24.8626 25.055 26.0614 22.64C26.9364 20.96 27.8639 19.3325 28.8351 17.7225C29.8064 16.1125 30.9089 14.5112 32.0114 12.875C32.613 12.0509 33.2616 11.2621 33.9539 10.5125C34.6364 9.73375 35.3364 8.9725 36.0889 8.26375C37.4465 6.89063 39.077 5.81753 40.8751 5.11375C41.2353 4.99304 41.618 4.95418 41.9951 5C41.9951 5.37625 41.9164 5.7525 41.8901 6.1375C41.8734 6.42893 41.8734 6.72107 41.8901 7.0125C41.8901 8.08875 41.9601 9.165 42.0039 10.2325C41.9029 10.2529 41.8056 10.2883 41.7151 10.3375L38.1276 12.9625C37.9205 11.8078 37.8297 10.6353 37.8564 9.4625V8.5875C37.3664 8.98125 36.9201 9.27875 36.5351 9.6375C35.564 10.5508 34.7009 11.5725 33.9626 12.6825C32.6578 14.565 31.5217 16.5589 30.5676 18.6412C29.6926 20.645 28.8176 22.6925 28.1176 24.7662C27.6539 26.1137 27.2426 27.4787 26.8226 28.835C26.4814 29.9287 26.0964 31.005 25.8076 32.1075C25.3585 33.8575 24.9443 35.59 24.5651 37.305C24.3201 38.0925 24.2501 39.0025 24.0664 39.9037V39.9037ZM16.8389 54.8137C17.0353 54.933 17.2199 55.0707 17.3901 55.225C18.3372 56.277 19.4305 57.1875 20.6364 57.9287C21.5114 58.4537 22.4914 58.8912 23.4189 59.3725C23.4106 59.4129 23.4106 59.4546 23.4189 59.495C23.5676 60.2825 23.7076 61.0787 23.8651 61.8662C24.1689 63.3223 24.6264 64.7419 25.2301 66.1012C25.8704 67.619 26.7574 69.0205 27.8551 70.2487C29.1205 71.6852 30.702 72.8084 32.4751 73.53C32.5364 73.53 32.5626 73.6612 32.6064 73.7312C32.0464 73.5475 31.4689 73.4075 30.9264 73.18C28.827 72.3432 26.8701 71.1861 25.1251 69.75C24.4044 69.1749 23.7151 68.5615 23.0601 67.9125C21.5957 66.3653 20.345 64.6291 19.3414 62.75C18.7564 61.6595 18.259 60.5243 17.8539 59.355C17.3842 58.0825 17.0898 56.7519 16.9789 55.4C16.9176 55.225 16.8651 55.0237 16.8389 54.8137V54.8137Z" fill="#C0B9CD"/>
<path d="M59.3727 65.0775C58.2348 64.8538 57.1169 64.5378 56.0302 64.1325C54.6776 63.6369 53.3593 63.0523 52.084 62.3825L52.2502 60.9212L52.3815 60.79C53.2565 60.51 54.2102 60.2562 55.1027 59.915C56.5965 59.3439 58.0298 58.6258 59.3815 57.7712C59.895 57.4354 60.3755 57.0516 60.8165 56.625C61.4727 56.0475 62.1027 55.4262 62.7502 54.875C62.8964 54.7581 63.0514 54.6527 63.214 54.56C63.214 55.05 63.214 55.54 63.1002 56.0212C62.9275 57.2801 62.6345 58.5195 62.2252 59.7225C61.5733 61.5754 60.6914 63.3392 59.6002 64.9725C59.5314 65.0211 59.4543 65.0567 59.3727 65.0775V65.0775Z" fill="#ADA3BE"/>
<path d="M32.6503 73.7313C32.6066 73.6613 32.5803 73.5475 32.5191 73.53C30.746 72.8084 29.1645 71.6852 27.8991 70.2487C26.8013 69.0205 25.9144 67.619 25.2741 66.1012C24.665 64.7454 24.2015 63.3287 23.8916 61.875C23.7341 61.0875 23.5941 60.2912 23.4453 59.5037C23.5499 59.4904 23.6557 59.4904 23.7603 59.5037C25.3214 60.1961 26.9524 60.7182 28.6253 61.0612C29.1591 61.175 29.6841 61.315 30.2178 61.4462C30.1868 61.6975 30.1371 61.9461 30.0691 62.19C29.6625 63.4379 29.4098 64.7308 29.3166 66.04C29.3303 66.3773 29.3654 66.7134 29.4216 67.0462C29.4769 68.2818 29.8376 69.4843 30.4716 70.5463C31.2259 71.8942 32.337 73.0082 33.6828 73.7662C33.792 73.8553 33.8891 73.9582 33.9716 74.0725L32.6503 73.7313Z" fill="#8475B0"/>
<path d="M33.9275 74.0638C33.845 73.9495 33.7479 73.8465 33.6387 73.7575C32.2929 72.9995 31.1818 71.8854 30.4275 70.5375C29.7935 69.4756 29.4328 68.273 29.3775 67.0375C29.3213 66.7046 29.2862 66.3685 29.2725 66.0312C29.3657 64.7221 29.6184 63.4292 30.025 62.1812C30.093 61.9374 30.1427 61.6888 30.1737 61.4375H30.2962L31.1712 61.6912C31.1012 61.9625 31.0225 62.225 30.97 62.4962C30.7717 63.2105 30.6283 63.9389 30.5412 64.675C30.4728 65.51 30.5052 66.3502 30.6375 67.1775C30.8763 68.9219 31.6674 70.544 32.895 71.8062C33.3865 72.3007 33.9715 72.6923 34.616 72.9582C35.2605 73.2241 35.9515 73.359 36.6487 73.355C37.5323 73.3284 38.4114 73.2171 39.2737 73.0225C40.6504 72.7363 41.9694 72.2217 43.1762 71.5C44.4076 70.8428 45.4985 69.951 46.3875 68.875L48.33 69.6625V69.8462C47.7612 70.3975 47.2187 70.9925 46.58 71.4912C45.5678 72.3094 44.4456 72.981 43.2462 73.4862C41.8571 74.1137 40.3828 74.5324 38.8712 74.7288C38.8012 74.7288 38.7487 74.8688 38.6875 74.9388C38.11 74.9388 37.5325 74.9387 36.9375 74.8337C36.185 74.7287 35.4325 74.5887 34.68 74.4312C34.4177 74.3338 34.1656 74.2107 33.9275 74.0638V74.0638Z" fill="#988CBD"/>
<path d="M38.084 12.9275L41.6715 10.3025C41.7647 10.2713 41.862 10.2537 41.9602 10.25C42.0915 11.0025 42.2052 11.755 42.354 12.5075C42.6871 14.2958 43.1731 16.0523 43.8065 17.7575C43.9377 18.1075 44.0427 18.475 44.1652 18.8425C44.078 18.8787 43.9957 18.9257 43.9202 18.9825C43.8286 19.0596 43.741 19.1414 43.6577 19.2275C42.8806 19.8122 42.1573 20.4652 41.4965 21.1788C41.3255 21.3245 41.1409 21.4534 40.9452 21.5638C40.7352 21.1088 40.499 20.6888 40.3065 20.1988C39.5277 18.3831 38.9071 16.5036 38.4515 14.5813C38.3552 14.0913 38.2065 13.61 38.084 13.1288V12.9275Z" fill="#9F93C2"/>
<path d="M62.9422 48.75C62.8722 48.75 62.7585 48.6712 62.741 48.61C62.2958 46.977 61.58 45.4301 60.6235 44.0337C60.0178 43.1494 59.3634 42.2993 58.6635 41.4875C58.016 40.7175 57.351 39.9562 56.6422 39.23C55.9335 38.5037 55.3035 37.97 54.621 37.375C54.5191 37.3053 54.4069 37.2522 54.2885 37.2175V37.0775C53.8247 36.6837 53.3522 36.29 52.8972 35.8875L50.4997 33.7525C50.3781 33.6733 50.2492 33.6059 50.1147 33.5512C50.0867 32.455 50.1688 31.3586 50.3597 30.2787C50.3808 29.9875 50.3808 29.695 50.3597 29.4037C50.7535 29.8325 51.1472 30.2787 51.5235 30.69C52.1447 31.425 52.7572 32.1687 53.3697 32.9037C54.306 34.0237 55.2772 35.1087 56.1785 36.2462C57.0797 37.3837 58.1647 38.7662 59.0922 40.07C59.9191 41.24 60.645 42.4783 61.2622 43.7712C61.9558 45.2326 62.501 46.7598 62.8897 48.33C62.9266 48.4669 62.9442 48.6082 62.9422 48.75Z" fill="#C0B9CD"/>
<path d="M38.7227 74.895C38.7839 74.825 38.8364 74.685 38.9064 74.685C40.418 74.4886 41.8922 74.0699 43.2814 73.4425C44.4808 72.9372 45.603 72.2656 46.6152 71.4475C47.2277 70.9488 47.7702 70.3538 48.3652 69.8025V69.6188C49.3014 69.89 50.2289 70.1788 51.1739 70.4325C51.7077 70.5725 52.2502 70.66 52.7839 70.7825C52.9267 70.8264 53.0645 70.8851 53.1952 70.9575C53.0925 71.0845 52.9783 71.2017 52.8539 71.3075C51.0246 72.444 49.0495 73.3271 46.9827 73.9325C45.8168 74.2608 44.6298 74.5093 43.4302 74.6762C42.0491 74.8524 40.6572 74.9284 39.2652 74.9037C39.0639 74.93 38.8889 74.9037 38.7227 74.895V74.895Z" fill="#ADA3BE"/>
<path d="M50.1408 61.4375C49.1433 61.6125 48.1458 61.7875 47.1396 61.945C46.7194 62.0137 46.2959 62.0604 45.8708 62.085C45.0367 62.1375 44.2054 62.1812 43.3771 62.2162C42.2489 62.3254 41.1148 62.3604 39.9821 62.3213C38.9058 62.225 37.8383 62.26 36.7708 62.225H36.5258C36.4164 62.0489 36.2966 61.8794 36.1671 61.7175C35.4583 60.9125 34.7496 60.125 34.0146 59.39C33.4983 58.83 33.0083 58.2525 32.5008 57.6837C31.5821 56.345 30.6283 55.0587 29.7533 53.6762C29.0533 52.6 28.4233 51.48 27.8196 50.36C27.3033 49.3975 26.8571 48.4 26.4021 47.4112C26.1746 46.9212 25.9733 46.4312 25.7808 45.9325C25.5183 45.2587 25.2471 44.585 25.0371 43.9025C24.772 43.3552 24.6202 42.7599 24.5908 42.1525C24.6424 42.2109 24.6865 42.2756 24.7221 42.345C25.6363 45.1503 27.3481 47.6284 29.6483 49.4762C30.5609 50.1893 31.5643 50.7778 32.6321 51.2262C34.1688 51.8376 35.7822 52.2351 37.4271 52.4075L39.7721 52.53H39.9996C40.2421 53.0486 40.5979 53.5061 41.0408 53.8687C42.2221 55.0237 43.4208 56.1525 44.6633 57.2375C45.5908 58.0512 46.5796 58.795 47.5683 59.5387C48.3296 60.1162 49.1346 60.6412 49.9133 61.1925C50.0271 61.2187 50.0708 61.3412 50.1408 61.4375V61.4375Z" fill="#66539D"/>
<path d="M37.4271 52.3637C35.7822 52.1913 34.1688 51.7938 32.6321 51.1825C31.5643 50.7341 30.5609 50.1456 29.6484 49.4325C27.3482 47.5846 25.6363 45.1065 24.7221 42.3013C24.6865 42.2319 24.6425 42.1672 24.5909 42.1087L24.4596 41.8463C24.3721 41.6538 24.3021 41.4437 24.1971 41.26C24.1224 41.1447 24.0374 41.0364 23.9434 40.9362L24.0659 39.895C24.2146 39.02 24.3196 38.0838 24.5209 37.2C24.9059 35.45 25.32 33.7175 25.7634 32.0025C26.0521 30.9 26.4371 29.8238 26.7784 28.73C26.8825 28.8513 26.9734 28.9833 27.0496 29.1238C27.1546 29.465 27.2159 29.8238 27.3209 30.165C27.7496 31.4513 28.1434 32.7463 28.6246 34.015C29.1671 35.4413 29.7359 36.8588 30.3746 38.2413C31.0134 39.6238 31.9321 41.225 32.7371 42.7125C32.8938 42.9563 33.0693 43.1874 33.2621 43.4037C33.4084 44.0121 33.7495 44.5559 34.2334 44.9525H34.2946C34.3114 45.3441 34.4737 45.7154 34.7496 45.9937C35.7384 47.385 36.7709 48.7412 37.7946 50.0975C37.9871 50.3512 38.2146 50.57 38.4334 50.8062V50.9375C38.2146 51.2087 37.9871 51.4625 37.7771 51.7425C37.5671 52.0225 37.5584 52.1537 37.4271 52.3637V52.3637Z" fill="#7564A7"/>
<path d="M38.4686 50.8062C38.2498 50.57 38.0223 50.3512 37.8298 50.0975C36.8061 48.75 35.7736 47.385 34.7498 45.9937C34.4714 45.7225 34.3031 45.3579 34.2773 44.97C34.2773 44.97 34.3736 44.97 34.3736 44.8912C34.6098 43.955 34.8286 43.0012 35.0648 42.065C35.5286 40.1312 36.0098 38.2062 36.4736 36.2725C36.7011 35.3275 36.9286 34.3825 37.1298 33.4375C37.3807 32.2708 37.6257 31.0896 37.8648 29.8937C38.0223 29.0887 38.1623 28.275 38.3023 27.4612C38.4161 26.8137 38.5036 26.1662 38.6261 25.5275C38.9401 24.2892 39.5394 23.1416 40.3761 22.1762C40.4375 22.0739 40.5271 21.9914 40.6342 21.9387C40.7413 21.8859 40.8613 21.8651 40.9798 21.8787L41.7761 23.5587C41.6098 24.1012 41.4611 24.6612 41.2686 25.195C40.8319 26.4154 40.5154 27.6756 40.3236 28.9575C40.2085 30.0033 40.1763 31.0566 40.2273 32.1075C40.2623 32.8523 40.3412 33.5945 40.4636 34.33C40.5861 35.275 40.7173 36.22 40.8661 37.165C41.0149 38.11 41.1373 38.8012 41.2948 39.615C41.5378 40.8359 41.6027 42.0855 41.4873 43.325C41.3815 44.3817 41.119 45.4168 40.7086 46.3962C40.1438 47.9518 39.3916 49.4327 38.4686 50.8062V50.8062Z" fill="#8475B0"/>
<path d="M50.1412 61.4375C50.0712 61.3412 50.0275 61.2187 49.94 61.1575C49.1612 60.6062 48.3562 60.0812 47.595 59.5037C46.6062 58.76 45.6175 58.0162 44.69 57.2025C43.4511 56.1138 42.2431 54.9905 41.0675 53.8337C40.615 53.4739 40.2501 53.0162 40 52.495C41.0404 52.3843 42.0863 52.3347 43.1325 52.3462C44.06 52.2762 44.9787 52.0837 45.9062 51.9787C47.0966 51.8308 48.2691 51.5641 49.4062 51.1825C50.4129 50.8978 51.3714 50.4643 52.25 49.8962H52.3812C52.4687 50.8237 52.5562 51.7512 52.635 52.6875V56.765C52.6383 57.8289 52.5535 58.8913 52.3812 59.9412C52.3575 60.2324 52.3575 60.5251 52.3812 60.8162L52.25 60.9475L50.4387 61.3412L50.1412 61.4375Z" fill="#6D5BA1"/>
<path d="M52.3458 49.905H52.2496C52.2368 48.8191 52.1137 47.7373 51.8821 46.6762C51.6983 45.74 51.6196 44.795 51.4708 43.85C51.3221 42.905 51.1471 42.1 50.9896 41.1637C50.8846 40.4987 50.7883 39.825 50.6921 39.1512C50.5696 38.2762 50.4471 37.4012 50.3158 36.5787V36.4475L50.1846 33.56C50.319 33.6146 50.448 33.682 50.5696 33.7612L52.9496 35.87C53.4046 36.2725 53.8771 36.6662 54.3408 37.06C54.2183 37.06 54.1921 37.1475 54.3408 37.2L54.8396 38.5737C55.2553 39.6813 55.5601 40.8273 55.7496 41.995C55.8486 42.7842 55.8778 43.5806 55.8371 44.375C55.7836 45.3804 55.483 46.3572 54.9621 47.2187C54.3102 48.305 53.4145 49.2247 52.3458 49.905V49.905Z" fill="#ADA3BE"/>
<path d="M41.8466 23.5587L41.0503 21.8788L40.9453 21.4938C41.141 21.3834 41.3256 21.2545 41.4966 21.1088C42.1574 20.3952 42.8807 19.7422 43.6578 19.1575C43.6758 19.2411 43.6758 19.3276 43.6578 19.4113C43.0511 20.7938 42.4474 22.1762 41.8466 23.5587V23.5587Z" fill="#C0B9CD"/>
<path d="M37.4277 52.3637C37.559 52.1537 37.6727 51.935 37.8127 51.7425C37.9527 51.55 38.2502 51.2087 38.469 50.9375L39.7727 52.4862L37.4277 52.3637Z" fill="#7C6CAB"/>
<path d="M23.9441 40.945C24.0382 41.0451 24.1231 41.1535 24.1978 41.2688C24.3028 41.4525 24.3728 41.6625 24.4603 41.855L24.5916 42.1175C24.621 42.7249 24.7727 43.3202 25.0378 43.8675C25.2478 44.55 25.5191 45.2238 25.7816 45.8975C25.9741 46.3963 26.1753 46.8863 26.4028 47.3763C26.8578 48.365 27.2778 49.3625 27.8203 50.325C28.4241 51.445 29.0541 52.565 29.7541 53.6412C30.6291 54.9975 31.5828 56.2662 32.5016 57.6487C32.055 58.2014 31.6374 58.7767 31.2503 59.3725C30.8741 60.0287 30.5853 60.7462 30.2616 61.4375H30.1391C29.6053 61.3062 29.0803 61.1662 28.5466 61.0525C26.8896 60.7149 25.2734 60.2016 23.7253 59.5212C23.6208 59.5079 23.5149 59.5079 23.4103 59.5212C23.4021 59.4808 23.4021 59.4392 23.4103 59.3987C23.3316 58.725 23.2616 58.0512 23.1828 57.3687C23.1781 57.2842 23.1781 57.1995 23.1828 57.115C23.1391 55.0937 23.0166 53.0725 23.0866 51.06C23.0866 49.9662 23.1303 48.8725 23.1916 47.7787C23.2528 46.685 23.3316 45.6088 23.4453 44.5325C23.5591 43.4563 23.6903 42.6425 23.8303 41.6975C23.8478 41.4263 23.6903 41.1463 23.9441 40.945Z" fill="#7867A8"/>
<path d="M36.4996 62.19H36.7446C37.1782 62.6326 37.6337 63.0532 38.1096 63.45C39.3171 64.4125 40.4896 65.375 41.7496 66.1713C42.7208 66.8363 43.7708 67.3788 44.7946 67.9213C45.3283 68.2275 45.8708 68.5075 46.4133 68.7963C45.5243 69.8723 44.4334 70.7641 43.2021 71.4213C41.9982 72.1583 40.679 72.6877 39.2996 72.9875C38.4372 73.1821 37.5582 73.2934 36.6746 73.32C35.9774 73.324 35.2864 73.1892 34.6419 72.9232C33.9974 72.6573 33.4123 72.2657 32.9208 71.7712C31.6933 70.509 30.9021 68.8869 30.6633 67.1425C30.531 66.3152 30.4987 65.475 30.5671 64.64C30.6542 63.9039 30.7975 63.1755 30.9958 62.4612C31.0483 62.19 31.1271 61.9275 31.1971 61.6562L32.8421 61.805L34.2333 61.9537C35.0033 62.0675 35.7646 62.1288 36.4996 62.19Z" fill="#C0B9CD"/>
<path d="M50.4033 61.315L52.2496 60.9213L52.1183 62.3475C51.6283 62.085 51.1296 61.8225 50.6396 61.5425C50.4996 61.4988 50.4996 61.3938 50.4033 61.315V61.315Z" fill="#978CBD"/>
<path d="M33.2797 43.4125C33.0868 43.1962 32.9113 42.965 32.7546 42.7213C31.9496 41.2338 31.1184 39.7637 30.3921 38.25C29.6659 36.7362 29.1671 35.45 28.6421 34.0237C28.1609 32.755 27.7671 31.46 27.3384 30.1738C27.2334 29.8325 27.1721 29.4738 27.0671 29.1325C26.9909 28.992 26.9 28.86 26.7959 28.7387C27.2246 27.3825 27.6271 26.0175 28.0909 24.67C28.8171 22.5962 29.6309 20.5487 30.5409 18.545C31.495 16.4627 32.6311 14.4687 33.9359 12.5862C34.6715 11.4767 35.5316 10.4551 36.4997 9.54125C36.8847 9.1825 37.3309 8.885 37.8209 8.49125V9.36625C37.7942 10.539 37.8851 11.7116 38.0922 12.8662V12.9975L37.3222 13.5662C35.9832 14.5327 34.7302 15.6129 33.5772 16.795C32.5522 17.7898 31.737 18.9799 31.1796 20.295C30.8523 21.1361 30.649 22.0204 30.5759 22.92C30.4926 24.5464 30.5806 26.177 30.8384 27.785C30.9959 29.0188 31.2409 30.2525 31.4859 31.4775C31.7922 32.9738 32.0809 34.47 32.2646 35.9838C32.4484 37.4975 32.6846 38.88 32.8946 40.3587C32.9559 40.7612 32.9997 41.1637 33.0522 41.5575L33.2797 43.4125Z" fill="#8475B0"/>
<path d="M36.5 62.19C35.7387 62.1288 34.9775 62.0675 34.2162 61.9887L32.8512 61.875L31.25 61.6913L30.375 61.4375C30.6987 60.7463 30.9875 60.0288 31.3637 59.3725C31.7404 58.7894 32.1464 58.2258 32.58 57.6838C33.0875 58.2525 33.5775 58.83 34.0937 59.39C34.8112 60.16 35.5375 60.9125 36.2462 61.6825C36.3399 61.847 36.4246 62.0164 36.5 62.19V62.19Z" fill="#6D5BA1"/>
<path d="M33.28 43.4125L33.0438 41.6625C32.9913 41.2687 32.9475 40.8662 32.8863 40.4637C32.6763 39.02 32.4313 37.5762 32.2563 36.0887C32.0813 34.6012 31.7838 33.0787 31.4775 31.5825C31.2325 30.3575 30.9875 29.1237 30.83 27.89C30.5722 26.282 30.4842 24.6514 30.5675 23.025C30.6406 22.1254 30.844 21.2411 31.1713 20.4C31.7287 19.0849 32.5439 17.8948 33.5688 16.9C34.7218 15.7179 35.9748 14.6377 37.3138 13.6713L38.0838 13.1025C38.2063 13.5838 38.355 14.065 38.4513 14.555C38.9069 16.4774 39.5275 18.3568 40.3063 20.1725C40.4988 20.6362 40.735 21.0475 40.945 21.5375L41.05 21.9225C40.9315 21.9088 40.8114 21.9296 40.7044 21.9824C40.5973 22.0352 40.5077 22.1177 40.4463 22.22C39.6096 23.1853 39.0103 24.333 38.6963 25.5712C38.5738 26.21 38.4863 26.8575 38.3725 27.505C38.2325 28.3187 38.0925 29.1325 37.935 29.9375C37.6959 31.1042 37.4509 32.2854 37.2 33.4812C36.9988 34.4262 36.7713 35.3712 36.5438 36.3162C36.08 38.25 35.5988 40.175 35.135 42.1087C34.8988 43.045 34.68 43.9987 34.4438 44.935C34.4438 44.935 34.3825 44.9875 34.3475 45.0137C34.3125 45.04 34.3475 45.0137 34.2863 45.0137C33.7796 44.609 33.4249 44.0446 33.28 43.4125V43.4125Z" fill="#7C6CAB"/>
<path d="M54.2973 37.1912C54.1485 37.1388 54.1748 37.095 54.2973 37.0513V37.1912Z" fill="#7867A8"/>
<path d="M24.5912 42.1175L24.46 41.855L24.5912 42.1175Z" fill="#66539D"/>
</svg>
