<svg viewBox="0 0 80 80" xmlns="http://www.w3.org/2000/svg">
<rect width="100%" height="100%" fill="white"/>
<path d="M20.3721 44.9788C19.91 45.0105 19.3083 45.2195 18.9046 45.9499C18.5751 46.5464 17.8031 46.6415 17.4427 46.5214C16.8423 46.3211 16.0749 46.1822 15.3315 46.7169C14.5882 47.2515 13.7854 46.8472 13.9262 45.8726C14.067 44.8982 14.4157 44.0302 15.3413 43.4926C17.3628 42.3187 15.9579 41.5016 17.0674 40.3234C18.1791 39.1429 17.9335 38.7817 17.8966 37.1784C14.1394 36.6086 12.0099 35.5154 9.63202 32.5164C7.25416 29.5172 6.33237 27.0484 6.0859 23.2883C5.83943 19.5282 6.05309 17.0913 7.66241 13.9701C9.27173 10.849 10.9661 9.34646 13.9024 7.788C16.8387 6.22979 19.7158 5.85658 22.3751 5.90202C25.0344 5.94734 26.8064 6.14403 28.309 7.00947C29.8115 7.87492 31.186 8.964 32.0623 8.97184C32.9387 8.97967 33.5353 8.74793 33.9612 8.4185C34.0749 11.3332 31.4762 11.5864 29.1514 11.648C26.8265 11.7095 25.3979 10.7387 23.2565 11.0998C21.1152 11.461 17.6093 12.4446 15.9014 15.4456C14.1935 18.4466 14.1353 19.5075 14.2772 22.0241C14.4192 24.5408 16.5649 26.4185 17.7762 26.4389C18.9873 26.4593 19.2577 26.1052 20.3178 25.4072C21.3781 24.709 26.7907 17.9452 28.6376 16.4259C30.4846 14.9066 32.3072 14.4374 34.2752 14.413C36.2431 14.3887 36.746 14.4561 38.3332 15.1127C39.9204 15.7693 40.8957 16.9786 42.1754 17.7178C42.8295 17.3292 43.2358 16.7489 43.836 16.3061C45.9824 14.7225 47.0976 14.2957 49.6487 14.5463C51.1149 14.6904 52.9637 15.5359 54.0669 16.5042C56.0311 18.2283 57.6539 20.6285 58.9653 22.452C59.9864 23.8721 61.188 25.5711 62.9034 26.1022C64.7763 26.6819 66.1857 24.2331 66.3926 22.8748C66.5099 22.1051 66.6629 21.4306 66.6642 20.5835C66.6654 19.7363 66.5797 18.7082 66.3378 17.8253C66.0959 16.9424 65.6816 16.0638 65.2329 15.3354C64.5026 14.1497 63.3078 12.909 62.0646 12.2707C61.3669 11.9125 59.7254 11.2612 58.6907 11.2383C57.4228 11.2106 56.4569 11.6406 55.2847 11.7212C53.8659 11.8189 51.3315 12.1409 50.2192 11.0343C49.5113 10.3301 49.4223 9.86039 49.3013 8.94218C49.6141 9.20229 50.0514 9.3733 50.4407 9.40655C51.3292 9.48229 52.1611 8.74999 52.8782 8.32567C53.469 7.97608 54.3056 7.35136 55.0815 7.03566C57.0751 6.22427 59.5241 6.24764 61.6286 6.46499C63.3155 6.63908 65.5026 7.39668 66.9821 8.24184C68.4686 9.09072 69.901 10.5221 70.9502 11.8714C72.2702 13.5692 72.9918 15.0258 73.4699 17.1433C74.081 19.8473 74.2504 23.9094 73.5116 26.5756C72.9294 28.6766 70.9961 31.9041 69.3504 33.4862C67.7274 35.0467 65.8533 35.7999 63.722 36.2119C63.8054 36.6461 63.8192 37.051 63.9294 37.407C64.0861 37.9124 64.3858 38.4757 65.0013 38.2975C65.2468 38.2265 65.3781 38.165 65.7018 38.4508C66.0252 38.7366 65.8568 39.8406 64.9466 40.336C64.4851 40.5873 63.998 40.6418 63.2588 40.6567C62.5197 40.6716 61.366 40.6748 60.5635 40.533C59.7612 40.3912 59.2818 39.7484 58.3931 39.6477C57.0197 39.4927 55.9681 38.491 54.8668 37.7746C54.4073 37.4756 54.2523 37.4725 53.9875 37.3214C54.1306 37.7636 54.3213 38.2228 54.4165 38.6479C54.5119 39.073 54.4712 39.4667 54.5218 39.8069C54.5721 40.1469 54.6656 40.4113 54.72 40.687C54.9401 40.8856 55.0104 41.1877 55.38 41.2827C55.7498 41.3776 56.3289 41.2298 56.7072 41.1785C57.0856 41.1271 57.3392 40.919 57.636 40.976C57.9331 41.0329 58.2145 41.2476 58.4634 41.4487C58.7123 41.6499 58.9262 41.6793 59.1277 42.1813C59.3291 42.6833 59.5139 43.7113 59.5415 44.3984C59.5691 45.0855 59.4928 45.7057 59.2911 46.251C59.0894 46.7962 58.9121 47.038 58.3659 47.578C57.8196 48.1181 56.9302 48.9106 56.0426 49.4626C56.206 49.707 56.2785 49.9306 56.5334 50.1957C56.7882 50.461 57.3196 50.7582 57.556 51.0379C57.7922 51.3177 57.912 51.5183 57.9154 51.8321C57.9191 52.1458 57.904 52.5535 57.6516 52.8955C57.0233 53.7471 56.28 53.8996 55.3763 54.3002C55.5283 55.2582 55.6523 55.9426 55.4326 56.8992C55.343 57.289 55.1438 58.1728 54.6675 58.3995C54.1911 58.6263 53.2725 58.5165 52.691 58.6097C52.1096 58.703 51.7841 58.7916 51.3309 58.8825C51.0554 59.2845 50.6452 59.7281 50.5047 60.0883C50.3639 60.4487 50.4064 60.5778 50.5245 60.9458C50.6427 61.3137 51.045 61.8495 51.1589 62.2803C51.2729 62.7112 51.295 63.1751 51.1887 63.6071C51.0821 64.0391 50.8999 64.3526 50.5351 64.7362C50.1705 65.12 49.4531 65.4213 49.0957 65.7322C48.7381 66.0433 48.3821 66.0807 48.4796 66.5954C48.6138 67.3023 49.637 68.4487 50.3771 68.7217C50.8207 68.8854 51.4162 68.8338 51.9549 68.6042C51.9184 69.208 51.4008 69.615 51.0626 70.0159C51.9785 69.7516 52.8665 69.2455 53.4808 68.5747C53.2903 69.1573 52.6348 70.0926 51.6544 70.9138C50.674 71.7351 50.68 71.5671 50.1926 71.8938C51.0818 72.0742 51.9088 72.0254 52.5976 71.9005C52.22 72.1107 51.601 72.4062 50.7811 72.4931C49.9611 72.5799 49.4556 72.5185 48.7167 72.3374C47.9777 72.1561 47.3031 71.478 46.4077 71.0105C46.4949 71.3459 46.557 71.7491 46.9335 72.094C47.3101 72.4388 47.8799 72.6142 48.4855 72.9124C47.7145 72.8241 46.9044 72.7974 46.1468 72.6288C45.5859 72.5039 45.2091 72.3714 44.7987 72.1663C44.3886 71.9611 44.0719 71.6618 43.7085 71.4097C43.8826 71.7454 43.9343 72.1403 44.2306 72.4171C44.5269 72.6939 45.0086 72.797 45.3981 72.9871C44.9918 72.9782 44.6009 73.0671 44.1797 72.9602C43.7583 72.8532 43.363 72.6852 42.9249 72.3593C42.4867 72.0335 42.0349 71.6323 41.661 71.2221C41.2873 70.8119 40.8259 70.2801 40.6863 69.9019C40.5464 69.5236 40.7702 69.259 40.8122 68.9379C40.5541 69.109 40.2367 69.2032 40.0384 69.4517C39.8401 69.7001 39.6644 69.927 39.7521 70.36C39.84 70.793 40.2359 71.3224 40.5158 71.8041C39.6805 71.1145 39.214 70.849 39.0153 70.0172C38.8292 69.2384 39.3106 68.5315 39.6765 67.9426C39.8582 67.6502 40.1301 67.378 40.3 67.0957C39.9227 66.723 39.4914 66.4027 39.168 65.9776C38.8447 65.5526 38.7089 64.9775 38.3789 64.5709C38.0487 64.1641 37.6046 63.9067 37.2178 63.5751C37.5578 64.3123 38.1165 65.2165 38.2378 65.7871C38.359 66.3576 38.1019 66.7068 37.9013 67.0148C37.7006 67.3228 37.3768 67.3915 37.0697 67.5807C36.7625 67.7701 36.2849 67.6208 36.1019 67.9018C35.919 68.1827 35.8699 68.6054 36.0447 68.8837L36.762 70.0266C36.4978 69.8919 36.0425 69.5002 35.8372 69.2224C35.6319 68.9446 35.317 68.6879 35.2739 68.3123C35.2308 67.9367 35.2098 67.6108 35.4508 67.2762C35.692 66.9417 36.352 66.8298 36.6474 66.5726C36.9429 66.3155 37.1086 66.1481 37.0917 65.8157C37.0749 65.4833 36.7533 65.2455 36.4768 65.036C35.6327 64.3969 34.5499 63.808 33.8331 63.0377C33.4282 62.6025 33.2338 62.2511 33.1524 61.9508C33.0712 61.6506 33.1572 61.4164 33.3584 61.0472C33.5595 60.6778 34.2495 60.1847 34.3334 59.7835C34.4172 59.3824 34.0688 59.2963 33.7543 59.1548C33.4397 59.0133 32.8424 59.2274 32.5506 58.9812C32.259 58.7351 32.6364 58.218 32.3076 57.9344C31.979 57.6508 31.2267 57.8091 30.8384 57.504C30.4502 57.1989 30.2897 56.8201 30.1559 56.3775C30.0221 55.9348 30.0069 55.4499 30.0976 55.1293C30.1883 54.8087 30.4607 54.7526 30.625 54.5865C30.7893 54.4204 30.9319 54.2826 30.7129 54.0348C30.4939 53.7872 29.7762 54.0487 29.3637 53.7307C28.9511 53.4127 29.2037 52.651 28.9119 52.3299C28.6203 52.0088 28.0968 52.1345 27.8206 52.0319C27.5445 51.9293 27.4361 52.2912 27.2667 51.7189C27.0973 51.1464 27.0928 49.4401 26.8649 48.8033C26.637 48.1665 26.1894 48.7603 25.9816 48.1273C25.7738 47.4945 25.9708 46.4825 25.8772 45.5266L25.4531 42.9259C23.9735 43.9293 22.9967 44.2443 21.4071 44.5278C21.2745 48.4541 20.9091 50.7661 22.2292 55.1221C23.5493 59.478 26.221 62.0451 29.8251 65.733C25.0692 62.1362 22.7987 59.2121 21.3776 55.4661C19.9563 51.7195 20.2292 48.5864 20.3721 44.9788ZM45.6436 43.4007C46.0095 43.4173 46.4541 43.511 46.711 43.6794C46.968 43.8479 47.2408 43.9855 47.474 44.2252C48.056 44.8235 48.4925 45.545 48.6854 46.3741C48.8084 46.9027 48.8267 47.5805 48.8715 48.2011C48.6953 47.6275 48.5769 47.0294 48.326 46.5154C47.9304 45.7051 47.2582 44.9141 46.4235 44.5499C46.1481 44.4294 45.9643 44.4518 45.8127 44.4731C45.8805 44.588 45.9941 44.6843 45.999 44.8526C46.004 45.0209 45.9667 45.3502 45.684 45.4886C45.2282 45.7119 44.7215 45.5549 44.3695 45.2407C44.0145 44.9241 43.8936 44.3885 44.0794 43.9282C44.3008 43.3798 45.1445 43.3784 45.6436 43.4007ZM41.056 42.6201C41.1019 41.6771 41.439 40.8819 42.2761 40.4195C42.709 40.1804 43.376 39.8713 43.9888 39.7986C44.5775 39.7289 46.0096 39.7799 46.871 40.1767C47.5324 40.4815 47.983 40.956 48.5638 41.3028C49.1445 41.6497 49.5576 41.8822 50.1106 42.2712C50.9594 42.8683 51.4569 43.5257 52.0454 43.9199C52.3283 44.1093 52.7264 44.0811 53.1021 44.1969C52.8099 44.2845 52.4282 44.381 52.113 44.2794C51.72 44.1525 51.1706 43.7898 50.8658 43.5299C50.327 43.0705 50.0478 42.8463 49.4598 42.4998C49.1088 42.2934 48.5308 42.0501 48.145 41.7961C47.759 41.5422 47.0891 40.985 46.7182 40.7964C46.2468 40.5568 45.398 40.4236 44.8731 40.4391C44.15 40.4604 43.1033 40.5809 42.5437 41.0934C41.9878 41.6028 41.7767 42.051 41.9021 42.7126C42.1114 42.4691 42.2508 42.1633 42.4605 41.9823C42.895 41.6077 43.3935 41.5896 43.9343 41.6606C44.5418 41.7404 44.8477 42.0946 45.0484 42.6769C44.9133 42.5767 44.665 42.3568 44.4691 42.2886C44.0091 42.1284 43.6612 42.1777 43.2303 42.411C42.7216 42.6865 42.86 43.0942 42.7867 43.5477C42.7532 43.7568 42.675 43.9253 42.6191 44.1141C42.4278 44.063 42.2509 43.9827 42.1062 43.8378C42.1122 44.0497 42.0817 44.2349 42.1247 44.4732C42.1674 44.7114 42.2824 44.9943 42.3611 45.2548C42.0069 44.8972 41.6444 44.5641 41.4156 44.1023C41.1866 43.6403 41.0314 43.1275 41.056 42.6201ZM41.669 35.7567C41.9301 35.3655 42.0065 34.7654 42.1675 34.2775C42.1032 34.8955 42.2269 35.575 41.928 36.0225C41.6292 36.4701 41.1043 36.3917 40.6695 36.5218C41.0078 36.2615 41.4077 36.1478 41.669 35.7567ZM35.418 44.9192C35.7533 44.6453 36.658 44.8643 37.3347 44.9132C36.8484 45.0389 36.3621 45.1647 35.8757 45.2904C35.8305 45.4574 35.8509 45.6488 35.7399 45.7912C35.6287 45.9337 35.4176 45.9865 35.2566 46.0839C35.2725 45.6451 35.0828 45.1931 35.418 44.9192ZM40.1861 25.89C40.59 26.1096 41.1026 26.3998 41.4594 26.4088C41.8161 26.4178 41.9095 26.1734 42.1193 26.0323C42.4495 27.119 42.8285 28.3132 43.3906 29.2993C43.6261 29.7124 43.7763 29.5204 43.9554 29.9356C44.1342 30.3506 44.2137 31.1953 44.3833 31.7256C44.5533 32.256 44.7748 32.6463 44.9705 33.1065C44.4735 32.3957 43.8314 31.4893 43.5544 30.8977C43.2777 30.3062 43.4548 30.2547 43.2307 29.6914C43.0066 29.128 42.5536 28.2499 42.2151 27.5291C41.9727 27.5616 41.6725 27.6061 41.4883 27.5488C41.304 27.4914 41.3407 27.2935 41.1742 27.1657C41.0075 27.0378 40.7273 27.0873 40.4938 26.8832C40.2603 26.6792 40.2072 26.2605 40.1861 25.89ZM38.0112 31.2525C38.3913 31.2189 38.8634 31.3217 39.2194 31.3013C39.5754 31.2809 39.8295 31.1877 40.1346 31.1308C40.078 30.5896 40.1316 29.5951 39.6367 29.2337C39.3169 29.0003 38.0038 29.176 37.653 29.2524C36.8638 29.4242 35.9447 29.8997 35.1813 30.1971C35.9129 29.6812 36.5448 29.2031 37.4222 28.9369C37.9496 28.7768 39.1805 28.5686 39.7248 28.7171C39.9733 28.7847 40.0235 28.8886 40.1742 29.1012C40.6924 29.8314 40.6908 30.4626 40.8253 31.3133C40.9574 31.5211 41.0982 31.6598 41.2053 31.8742C41.3121 32.0886 41.3726 32.426 41.4025 32.7017C41.267 32.5033 41.3499 32.2543 40.9743 32.1065C40.5985 31.9588 40.0232 32.0968 39.5169 32.1502C39.8859 32.419 40.0693 32.678 40.0834 33.2463C40.1 33.9137 39.5403 34.394 38.9559 34.4397C38.1446 34.5032 37.7263 34.3234 37.3982 33.6234C37.2545 33.3168 37.3586 32.948 37.3467 32.6491C36.3719 32.7175 36.3877 32.6854 35.6753 33.2851C36.0626 33.8578 36.3065 34.1872 36.9464 34.5298C37.3053 34.7221 37.7117 34.9091 38.1564 34.9855C38.6013 35.0618 39.3309 35.1357 39.7982 35.0633C40.2656 34.9908 40.5303 34.8562 40.8768 34.5328C41.2233 34.2092 41.2551 33.746 41.3904 33.3799C41.3597 33.7323 41.3196 34.1811 41.19 34.4367C40.7958 35.2138 40.114 35.4442 39.2999 35.4467C38.5185 35.4493 37.5519 35.2674 36.825 34.9631C36.2438 34.72 35.2803 34.0313 35.0516 33.433C34.8953 33.0242 35.0191 32.5226 35.0026 32.0674C35.8074 31.5271 36.0066 31.66 36.9588 31.5019C37.3571 31.4356 37.631 31.2863 38.0112 31.2525ZM33.3233 27.5934C33.3459 27.2698 33.3814 27.2767 33.4105 27.1183C32.6773 26.9203 32.3833 27.4005 31.9534 28.2922C31.7925 28.6259 31.9518 28.8245 31.7792 29.0442C31.6068 29.2638 31.3291 29.233 31.0492 29.444C30.7692 29.6548 30.4919 30.0586 30.2301 30.2769C29.6931 30.7251 28.9671 30.9987 28.3442 31.3003C28.7696 30.9834 29.5951 30.5029 29.8622 30.0425C30.0039 29.7984 29.9829 29.3382 30.2034 29.1188C30.4238 28.8992 30.501 28.7474 30.7857 28.6914C31.0703 28.6354 30.9558 28.3024 31.0476 28.0376C31.1395 27.7729 31.3223 27.585 31.5169 27.3205C31.7115 27.056 31.957 26.6589 32.3412 26.5147C32.7254 26.3704 33.3245 26.5264 33.6154 26.4434C33.9061 26.3603 33.7391 26.1469 33.9504 26.0188C34.1619 25.8907 34.573 25.9472 34.8555 25.8102C35.3562 25.5671 35.5957 25.1614 35.8968 24.7271C35.9406 25.662 35.9299 26.3351 35.5971 27.2147C35.2223 28.2047 34.8424 28.7878 33.7787 29.3966C33.4121 29.6063 33.0474 29.679 32.7436 29.7891C32.9207 29.5451 33.1743 29.4392 33.2752 29.0573C33.3758 28.6751 33.3006 27.9172 33.3233 27.5934ZM50.4972 32.152C49.9914 32.1852 49.8715 32.1181 49.4668 32.4062C49.6862 32.7508 49.9054 33.0954 50.1246 33.44C50.1052 32.7598 50.1709 32.6234 50.4972 32.152ZM49.172 31.6577C49.8725 31.3565 50.4828 31.1128 51.2449 31.0647C51.5504 31.0453 52.0246 31.0931 52.3332 31.1072C52.5959 30.7167 52.9308 30.4087 53.0535 29.9629C53.1348 29.6672 53.0947 28.2949 52.9509 27.9387C52.5318 26.9018 52.1245 26.858 51.5477 26.2641C51.1292 25.8334 51.1125 25.1775 50.9874 24.4425C50.9414 24.1725 50.8102 23.8309 50.7486 23.5523C49.9947 23.424 49.184 23.3818 48.3166 23.4255C48.7372 23.0183 49.1438 22.6462 49.2645 22.0349C49.3849 21.4235 49.2868 20.6718 48.9426 20.1236C48.5983 19.5754 48.0484 19.0978 47.5436 18.6512C47.0386 18.2045 46.3148 17.8358 45.8364 17.4704C46.4586 17.2455 47.094 16.915 47.7036 16.7957C49.2916 16.4848 50.6597 16.9603 52.1914 17.8951C53.0819 18.4388 53.8184 18.9553 54.7493 19.9391C55.68 20.9228 56.8344 22.7273 57.7355 23.7973C58.6365 24.8674 59.364 25.7137 60.1501 26.3519C60.9363 26.9903 61.6478 27.1721 62.3966 27.582L63.5635 28.833L64.508 27.6533L66.0276 27.8267L66.3416 26.1048L67.7364 25.719L67.5089 23.3978L68.5117 22.6794L67.758 21.2352L68.5238 19.6571L67.5254 17.8531L67.9104 16.1162L66.7546 15.1219L66.6038 13.2761L64.9914 12.6552L64.3445 11.0494L62.5317 11.0288L61.6425 9.83677L60.4221 9.92304L59.0617 9.77347L58.2924 9.2001L57.1759 9.94833L55.8248 9.23721L53.1392 10.2665L54.89 8.72945L56.7038 8.43698L58.0933 8.07943L59.97 8.70159L61.6218 8.2792L63.2144 9.22963L64.8998 9.13553L65.7277 10.6352L67.4059 10.8307L68.3138 12.4981L69.3693 13.0798L69.6494 15.2157L70.5894 16.1157L70.1761 17.9846L71.2834 19.3999L70.2451 20.9164L71.3554 21.8643L69.9361 23.1341L71.3736 24.6453L69.6376 25.2105L70.7683 26.8313L69.3503 27.0784L70.2802 28.8606L68.6821 28.8392L69.4871 30.1741L67.7342 29.9611L68.1536 31.8816L66.8289 30.7052L66.3751 33.0328L65.4609 31.3615L64.9658 33.4461L63.8374 31.909L63.8681 34.0948L62.6209 32.1294C62.8839 33.2446 62.8312 34.4656 63.5568 35.517C65.8048 35.2099 67.2741 34.638 68.9964 32.9651C70.565 31.4414 72.4398 28.2645 72.9475 26.2495C73.5268 23.9501 73.5446 19.7211 72.9741 17.3802C72.425 15.1262 71.7112 14.0496 70.436 12.2103C69.2171 10.9035 68.0184 9.52299 66.4714 8.59105C64.2005 7.2231 61.2886 6.85425 58.7005 6.88982C57.2674 6.90959 56.3075 7.18741 55.4507 7.50196C53.9524 8.05196 52.7541 9.25172 51.2309 9.8446C50.7341 10.0378 50.3359 10.0439 49.9447 9.83291C50.3278 10.6066 50.7446 10.9536 51.6999 11.2351C52.391 11.4388 54.04 11.31 55.1752 11.2042C56.3938 11.0906 57.0295 10.7248 58.688 10.7478C60.3078 10.7703 61.5913 11.3914 62.293 11.7964C63.741 12.6322 64.7792 13.5594 65.6815 15.0281C66.1769 15.8347 66.524 16.7446 66.7684 17.6733C67.0129 18.6019 67.12 19.6419 67.1356 20.551C67.1513 21.4601 67.0825 22.2716 66.8622 23.0897C66.347 25.0049 65.2104 26.9538 62.8756 26.6528C61.4469 26.4684 59.293 23.7613 58.5717 22.7681C57.1161 20.7636 55.6184 18.5455 53.7895 16.8762C52.6744 15.8588 51.1476 15.1586 49.6483 15.0201C46.8355 14.7602 46.0013 15.2995 43.884 17.0612C44.3148 17.1999 44.7352 17.2764 45.1767 17.4772C46.1563 17.9228 47.0523 18.4988 47.8338 19.2375C48.6527 20.0118 49.0202 20.5018 49.0493 21.6106C49.0686 22.3469 48.4686 22.9372 47.9185 23.4682C47.582 23.7934 47.1366 24.0911 46.8641 24.3435C46.5029 24.6785 46.0556 25.0449 46.5094 25.5784C46.6801 25.779 46.9764 25.9302 47.2263 26.1175C47.623 26.4147 47.4414 27.5194 46.9188 27.8123C46.2501 28.1868 45.451 28.145 44.8996 27.6436C45.5956 27.5385 46.0377 27.4453 46.0196 26.8705C46.0092 26.5373 45.5896 26.2605 45.1778 26.071C44.1847 25.614 43.4346 25.6814 42.4462 24.9635C41.4478 24.238 41.4258 23.8407 41.1559 22.7017C40.6746 22.7525 40.2313 22.7637 39.5877 22.9789C38.944 23.1939 38.2327 23.7059 37.6483 23.8327C36.1766 24.1523 35.8834 24.0576 35.0779 23.8472C33.6599 23.4766 31.8135 24.111 29.9793 24.7032C29.6744 24.8017 28.4409 24.7066 27.6105 25.0007C26.328 25.4549 24.5286 26.5549 23.4893 27.4385C21.9146 28.7774 19.8451 32.7844 18.6758 37.3837C18.553 38.7818 18.9468 39.7238 18.0744 40.4066C17.202 41.0895 17.2261 42.839 16.9303 43.3297C16.6345 43.8203 16.292 43.6034 15.6552 44.2925C15.0184 44.9815 14.6942 44.8663 14.7103 46.1692C15.259 45.805 16.0591 45.3815 16.7617 45.356C17.3838 45.3333 17.3904 46.1602 18.9873 44.5666C19.8413 43.714 21.482 43.6879 22.6204 43.3119C23.7589 42.9358 25.8104 42.1609 27.8651 39.842C29.9198 37.5231 30.903 35.0819 31.3015 31.5526C31.365 32.1783 31.4751 32.884 31.2097 34.6102C30.9442 36.3363 30.3722 38.2751 31.5773 40.5973L32.3282 42.0441C31.8812 41.4282 31.008 40.4236 30.7451 39.7077L30.1387 38.0563C28.7821 40.2065 28.4702 40.5911 26.5857 42.1316C26.5107 43.0873 26.4922 44.0841 26.8017 44.9986C27.1111 45.9129 26.6179 46.967 26.8533 47.5692C27.0887 48.1715 27.6331 47.8287 27.8109 48.4384C27.9887 49.0481 27.7181 50.2535 27.9938 50.8478C28.2696 51.4421 28.946 51.0815 29.2739 51.2734C29.6017 51.4655 29.709 51.7286 29.8843 51.9812C30.0596 52.2336 29.8158 52.8303 30.1724 53.024C30.5289 53.2179 31.085 53.0537 31.456 53.2397C31.827 53.4258 31.8833 53.8729 31.7944 54.2736C31.7054 54.6743 31.309 54.8582 31.1349 55.2655C30.9609 55.673 30.9804 55.9566 31.1894 56.3307C31.3985 56.705 31.8615 56.911 32.3229 57.0999C32.7843 57.2887 33.4326 57.1827 33.9088 57.4438C34.3849 57.705 34.8129 58.2253 35.0643 58.6035C35.3158 58.9816 35.3856 59.2484 35.3727 59.646C35.3598 60.0435 35.2 60.5014 34.9898 60.8854C34.7796 61.2694 34.3158 61.7368 35.0399 62.4701C35.7641 63.2033 35.7374 62.8872 36.1522 63.3629C36.1071 62.5401 35.7703 61.8698 36.0165 61.2503C36.2629 60.6309 37.0024 60.5231 37.3922 60.2445C37.782 59.9658 38.0065 59.583 38.3137 59.2523C38.3093 59.6779 38.3544 60.1354 38.3065 60.4559C38.2088 61.1074 38.0183 61.6858 38.9802 61.7903C39.4135 61.8373 39.8249 61.5537 40.2808 61.3834C40.042 61.8152 39.6266 62.1624 39.5642 62.6791C39.5017 63.1956 39.5768 63.7631 39.9311 64.2757C40.2855 64.7881 40.8975 65.1686 41.3459 65.4698C41.7942 65.7711 42.0345 65.7953 42.379 65.9582C42.3959 66.4661 42.2969 67.0036 42.3542 67.482C42.4116 67.9604 42.5609 68.3838 42.8348 68.7792C43.109 69.1747 43.5487 69.4016 43.9628 69.6941C43.7357 69.1604 43.2752 68.654 43.2815 68.093C43.2877 67.5321 43.4543 67.1345 43.9963 66.6367C44.5384 66.1388 45.8074 65.7071 46.4057 65.2231C47.0041 64.7389 47.1972 64.4423 47.412 63.9723C47.6268 63.5023 47.567 62.7451 47.6067 62.3226C47.8037 62.9144 47.8318 63.0984 47.8958 63.7176C47.9601 64.3369 47.5383 65.2056 47.3597 65.6641C48.0999 65.3032 48.5697 64.7263 48.8069 64.1626C48.9656 64.2576 48.8856 64.5181 48.944 65.0201C49.2077 64.7551 49.5076 64.5512 49.7732 64.3011C50.039 64.0513 50.3301 63.8315 50.462 63.4827C50.5936 63.1338 50.5397 62.7629 50.4416 62.3576C50.3436 61.9523 49.8949 61.4823 49.6532 61.039C49.4119 60.5958 49.696 60.1607 49.6796 59.6266C49.1962 59.5428 48.7856 59.2942 48.23 59.375C47.6741 59.4556 47.0374 60.0853 46.4693 60.0927C45.9012 60.1 45.5823 59.5627 45.1165 59.415C44.6508 59.2674 44.1796 59.2836 43.7113 59.2179C44.3045 58.6442 46.6067 58.371 48.1814 58.1118C49.567 57.8837 50.9421 57.7518 52.346 57.7319C52.973 57.7229 53.7788 57.9319 54.2141 57.8056C54.6498 57.6795 54.5569 57.38 54.6861 57.0535C55.0475 56.141 54.8694 55.3283 54.6727 54.4093C53.4124 54.2601 52.0992 54.0776 50.8293 54.176C49.5878 54.2723 48.1176 54.8682 46.837 54.9085C45.7237 54.9434 44.0751 54.6932 43.1191 54.1049C41.9508 53.3861 41.0469 51.8423 40.7261 51.3466C40.2035 50.5392 39.5443 48.9551 39.1432 48.2309C38.7423 47.5067 38.6539 47.3041 38.3204 47.0018C37.9868 46.6995 37.5298 46.6762 37.1347 46.5133C37.5902 46.5603 38.0876 46.4147 38.5015 46.6542C39.1232 47.0143 39.8192 48.507 40.206 49.1565C40.6159 47.7694 40.5203 47.224 41.7064 46.4419C40.7505 47.5234 40.7267 48.3426 40.4937 49.6159C41.2886 50.9329 42.3936 53.0307 43.8397 53.6128C44.362 53.8232 45.259 53.9552 45.8236 54.0257C47.581 54.2454 49.276 53.6832 51.002 53.253C52.2636 52.9384 53.5438 53.0651 55.0782 53.1562C55.5991 53.187 56.8274 52.8706 57.0818 52.3387C57.2191 52.0518 57.2089 51.7069 57.0117 51.4011C56.8142 51.0953 56.2882 50.9474 56.0062 50.6722C55.7243 50.3969 55.5621 50.0702 55.34 49.7691C54.1681 49.9961 53.2041 50.0833 52.3342 50.1071C52.9581 49.8477 53.5567 49.6996 54.2061 49.4433C54.8555 49.1869 55.5929 48.766 56.117 48.4168C56.6411 48.0675 56.9757 47.8649 57.3549 47.4584C57.7339 47.0517 58.2201 46.6328 58.4995 46.1357C58.7792 45.6386 58.8225 45.0825 58.8381 44.4673C58.8537 43.8522 58.8274 42.9891 58.5924 42.4935C58.3576 41.9981 57.9049 41.8478 57.5411 41.7305C57.1773 41.6133 56.9281 41.9098 56.5498 41.9498C56.1712 41.9899 55.8175 42.2307 55.2701 41.9709C54.7227 41.711 54.0739 41.1821 53.5204 40.397C52.9671 39.6118 52.5715 38.3285 52.0075 37.3412C51.0352 35.6393 49.8235 34.0495 48.6648 32.4726C48.5694 32.0837 48.4261 31.5463 48.3784 31.0187C48.2952 30.0995 48.2796 29.1446 48.5622 28.2485C48.7788 27.562 49.0938 26.8369 49.8059 26.5553C50.0907 26.4426 50.4512 26.3979 50.7058 26.4932C50.9606 26.5883 51.2106 26.8786 51.1105 27.2139C51.0005 27.5826 50.7474 27.5927 50.5754 27.7788C50.2835 28.0946 50.1668 28.3264 50.0565 28.7201C50.3719 28.715 50.7982 28.6907 51.0573 28.7596C51.3953 28.8494 51.7101 29.0756 51.8817 29.5591C51.4783 29.198 51.2778 29.0322 50.7743 29.0194C50.5436 29.0136 50.2633 29.0969 50.0081 29.1357C49.9127 29.449 49.8566 29.8331 49.7219 30.0755C49.5872 30.3179 49.325 30.2597 49.2266 30.5429C49.1281 30.8257 49.1224 31.286 49.172 31.6577ZM52.6968 31.2331C52.8513 31.2946 52.9102 31.3081 53.1059 31.4585C53.3016 31.6088 53.5716 31.7589 53.7267 32.1181C53.8819 32.4775 53.8747 33.0331 53.8416 33.2594C53.7055 33.2191 53.52 33.2463 53.3788 33.1245C53.238 33.0027 53.154 32.7268 52.9734 32.6087C52.7925 32.4907 52.6418 32.5165 52.442 32.4909C52.5447 32.7857 52.5945 33.0806 52.5468 33.3479C52.4433 33.9314 52.1035 34.227 51.5533 34.2968C51.3131 34.3272 50.9315 34.2474 50.7224 34.209C50.8193 34.4275 50.9835 34.6189 51.0806 34.8374C51.5458 34.7695 51.8906 34.7791 52.1407 34.661C52.3909 34.5429 52.6591 34.2783 52.9801 34.1662C53.3012 34.0541 53.5876 34.0559 53.9389 34.0006C53.6622 34.2413 53.4806 34.4822 53.2042 34.7229C53.4069 35.3177 53.6096 35.9124 53.8122 36.5071C54.242 36.7785 54.6451 36.9215 55.1867 37.2566C55.7284 37.5918 56.3779 38.1914 57.0834 38.5183C57.7889 38.8453 58.2089 39.0233 58.9461 39.1636C59.6831 39.3039 60.2695 39.9066 60.9948 40.0045C61.7201 40.1025 63.0748 40.1223 63.6337 40.0672C64.2684 40.0047 65.0929 39.6741 65.1669 38.9717C64.6348 39.1042 63.8221 38.9853 63.4117 37.9745C63.2296 37.5257 63.3189 36.7003 63.0401 36.1695C62.7614 35.6387 62.3729 35.4683 61.9087 34.8143C61.4445 34.1603 60.6851 33.1287 60.2588 32.2525C59.8328 31.3764 59.7324 30.384 59.372 29.5989C59.0116 28.814 58.4679 28.1799 58.0465 27.5748C57.1265 26.2525 56.3846 25.3487 54.8688 24.6817C54.1399 24.3608 53.3099 24.2753 52.5304 24.0721C52.2132 24.2155 51.7783 24.3739 51.7011 24.7484C51.6239 25.1229 51.7722 25.676 52.0414 25.9572C52.492 26.4272 53.1597 26.9352 53.4222 27.6823C53.5908 28.1617 53.6398 29.7688 53.4937 30.2049C53.3421 30.6577 52.9897 30.9316 52.6968 31.2331ZM52.8435 35.0371C52.7027 35.1597 52.5954 35.2856 52.3689 35.3874C52.1426 35.4892 51.8336 35.5156 51.5333 35.5913C51.9544 36.253 52.3967 36.9216 52.8002 37.6173C53.2038 38.3129 53.5536 39.0746 53.9388 39.8031C53.9206 39.3856 53.945 38.9405 53.8849 38.5503C53.8247 38.1603 53.6496 37.8189 53.476 37.2333C53.3026 36.6478 53.0892 35.8512 52.8435 35.0371ZM41.5138 20.488C41.4544 21.1389 41.5635 22.1565 41.6971 22.7938C41.8571 23.5566 42.0111 23.9522 42.6243 24.4118C43.7473 25.2534 44.4642 25.1115 45.3282 25.5995C45.7392 25.8317 46.2601 26.221 46.4121 26.6325C46.5641 27.0439 46.3118 27.4907 46 27.6664C46.5453 27.7483 47.1566 27.1278 46.9015 26.4907C46.7758 26.1772 46.1777 26.0375 45.9943 25.7212C45.8113 25.405 45.8117 25.0794 45.8979 24.7582C46.0537 24.1792 47.1885 23.653 47.5895 23.1953C48.2066 22.491 48.4435 21.9019 48.094 20.9948C47.6033 19.7206 45.7072 18.6982 44.5723 18.1981C44.0527 17.9692 43.7613 17.9529 43.356 17.8303C44.1858 18.3212 45.0607 18.7123 45.4805 19.8097C45.831 20.7262 45.5274 21.0716 45.5391 21.8696C45.5446 22.2397 46.0273 22.4247 46.2416 22.6584C46.4281 22.8617 46.413 23.0125 46.2639 23.2931C46.2475 23.04 46.1404 22.8511 45.948 22.7136C45.6303 22.4863 45.2881 22.5352 45.1188 22.069C44.8619 21.3603 45.3714 20.6891 44.7986 19.8934C44.3701 19.2981 43.8002 18.6318 43.0314 18.6143C42.6676 18.606 42.394 18.6614 42.0054 18.7775L41.4872 18.148L41.4753 18.1398C40.4213 17.1688 39.7002 16.3686 38.2218 15.7013C36.7433 15.034 36.0147 14.933 34.3196 14.971C32.6244 15.0089 30.9421 15.152 28.9787 16.8612C27.0154 18.5704 21.9554 25.1153 20.7282 25.9437C19.5012 26.772 19.2294 27.0527 17.6962 27.0531C16.1629 27.0534 13.7699 24.8641 13.6762 22.128C13.5823 19.3917 13.5447 18.4192 15.4288 15.1229C17.3131 11.8265 20.7266 10.8143 23.2592 10.4725C25.792 10.1308 27.3139 11.0313 29.1874 11.0355C31.0607 11.0399 32.9122 10.7134 33.4582 9.20935C33.191 9.36996 32.833 9.55098 31.8262 9.4977C30.8195 9.44442 29.4236 8.26777 27.8533 7.47936C26.283 6.69108 24.5356 6.59877 22.2943 6.55602C20.053 6.51326 17.2564 6.6862 14.4857 8.19613C11.715 9.70607 9.82368 11.3082 8.21665 14.2633C6.60962 17.2186 6.36951 19.6315 6.62857 23.2097C6.88764 26.7879 7.98086 29.4491 10.0858 32.068C12.1907 34.687 14.2944 35.9684 18.0876 36.4448L18.8862 32.8891L17.4606 34.9543L17.4959 32.6573L16.2064 34.2725L15.6408 32.082L14.5962 33.8382L14.0773 31.3925L12.5635 32.6284L13.0427 30.6103L11.0396 30.8341L11.9598 29.4314L10.1334 29.4539L11.1961 27.5811L9.57556 27.3214L10.8677 25.6181L8.8837 25.0243L10.5263 23.4365L8.90443 22.1021L10.173 21.1061L8.98672 19.5126L10.2521 18.0255L9.77981 16.0618L10.8543 15.1162L11.1742 12.8719L12.3801 12.2605L13.4176 10.5086L15.3354 10.3031L16.2816 8.72726L18.2077 8.82625L20.0279 7.82754L21.9156 8.27137L24.0598 7.61763L25.6479 7.99329L27.7204 8.30077L29.7213 9.91585L26.6521 8.83434L25.1081 9.58166L23.8319 8.79531L22.9532 9.39782L21.3985 9.55496L20.0042 9.46406L18.9878 10.7166L16.9159 10.7382L16.1769 12.4255L14.3346 13.078L14.1623 15.0175L12.8411 16.0623L13.2813 17.8874L12.1404 19.783L13.0156 21.4411L12.1542 22.9586L13.3002 23.7135L13.0403 26.1526L14.6341 26.558L14.9931 28.3673L16.7299 28.1852L17.8089 29.4248L19.1424 28.1103C21.5736 26.8865 22.5747 26.202 24.4695 24.1333C26.6263 21.7784 27.8625 19.6011 30.7354 17.9887C32.796 16.8322 34.4766 16.416 36.7913 16.8198C38.9645 17.1987 39.6922 18.5147 41.2928 19.901C41.4624 19.5909 41.4969 19.5088 41.7764 19.2805C41.6887 19.6831 41.5493 20.1008 41.5138 20.488Z" fill="black"/>
</svg>
