<svg viewBox="0 0 80 80" xmlns="http://www.w3.org/2000/svg">
<rect width="100%" height="100%" fill="#FFE100"/>
<path d="M35.0973 27.7128C31.5317 27.7128 28.0553 26.4909 25.1731 24.2609C22.5583 22.2448 18.1311 18.3347 17.7745 14.7607C17.7127 14.2254 17.76 13.6828 17.9135 13.1673C18.0669 12.6519 18.3232 12.175 18.6659 11.7671C19.379 10.9118 20.3893 10.423 21.667 10.3314L22.0532 10.3008C24.3411 10.3008 27.3124 11.6143 30.1352 13.7832C29.9272 11.095 30.67 9.10946 32.2448 8.43742H32.2745C32.542 8.31523 32.8094 8.25414 33.1065 8.22359H33.2551C34.919 8.22359 36.1967 9.99533 37.1475 12.042C38.7817 7.36826 41.5153 3.21383 44.3975 3H44.6055C45.0215 3 45.4374 3.09164 45.8237 3.27493C49.8647 5.07722 48.1413 13.3555 46.6854 17.4489C45.1671 21.7897 42.0514 25.3439 38.0092 27.3462L37.7417 27.4989L37.4446 27.5295C36.6678 27.6514 35.8831 27.7127 35.0973 27.7128Z" fill="#1D1D1B"/>
<path d="M36.0184 25.4829C32.5717 25.7273 29.1547 24.6581 26.3616 22.4892C22.5286 19.4956 20.003 16.4714 19.8247 14.5469C19.7937 14.3123 19.8121 14.0736 19.8787 13.8469C19.9454 13.6203 20.0587 13.411 20.211 13.2334C20.5676 12.7752 21.0727 12.5614 21.7858 12.5003C24.044 12.3475 27.6096 14.1804 30.67 17.0518L33.5522 19.7705L32.542 15.7994C31.8883 13.1418 32.0963 10.8813 33.0174 10.4841L33.0471 10.4536L33.2254 10.3925C33.7305 10.362 34.9784 11.6449 36.167 15.219L37.4149 19.0374L38.3954 15.1273C39.8514 9.3539 42.7336 5.32165 44.5163 5.19946C44.6946 5.19946 44.8432 5.23001 45.0215 5.2911C46.9825 6.17698 46.4477 11.8893 44.754 16.6853C43.4264 20.5 40.6949 23.6263 37.1475 25.3912L36.0184 25.4829Z" fill="url(#paint0_linear_11_250)"/>
<path d="M42.9416 75C41.9907 74.9694 41.0993 74.6334 40.3565 73.9919C39.5543 74.4807 38.6332 74.7251 37.712 74.6945C36.4641 74.7251 35.2459 74.2974 34.2653 73.5032C33.4631 72.8617 32.75 72.1285 32.0666 71.3343C31.71 71.5176 31.3237 71.6092 30.9375 71.6092C29.9866 71.6092 29.1844 71.0594 28.6793 70.6623C23.5249 66.1678 19.3186 60.6375 16.3186 54.4111C15.962 53.7085 14.3873 50.4094 14.209 47.6602C13.1987 46.2855 12.4262 44.7276 11.9805 43.0781C11.7335 42.1663 11.6907 41.2088 11.8554 40.2776C12.0201 39.3465 12.3879 38.4657 12.9313 37.7017C11.3565 35.8383 10.6434 33.0585 11.1782 30.2176C12.1093 26.6224 14.0403 23.3845 16.7346 20.9007C17.5071 20.1676 18.3094 19.7705 19.1413 19.7705C19.5205 19.7586 19.8976 19.8317 20.2465 19.9847C20.5954 20.1377 20.9077 20.3668 21.1618 20.6563C21.9641 19.7094 22.9446 18.9151 24.0143 18.3347C24.9948 17.7849 26.1239 17.4794 27.253 17.4794C28.4416 17.4794 29.6301 17.846 30.6403 18.518C31.223 17.3201 32.1175 16.3118 33.2244 15.6053C34.3312 14.8988 35.607 14.5218 36.9098 14.5163C37.7861 14.5216 38.6522 14.7113 39.4545 15.0738C40.2568 15.4364 40.9783 15.9639 41.5747 16.6241C41.7827 16.2575 41.9907 15.9215 42.2284 15.616C42.6933 15.0628 43.2947 14.6488 43.9693 14.4176C44.6439 14.1864 45.3667 14.1467 46.0614 14.3025C48.3196 14.6996 50.3995 15.8604 52.0041 17.6016L52.3309 17.1128C52.5671 16.8209 52.8621 16.585 53.1955 16.4215C53.5289 16.258 53.8929 16.1708 54.2622 16.1659C54.4405 16.1659 54.6188 16.1659 54.7674 16.227C55.5993 16.3797 56.9959 17.0212 58.5112 19.129C58.9063 19.0493 59.3144 19.0703 59.6997 19.1901H59.7592C60.0864 18.8606 60.5044 18.6428 60.9563 18.5663C61.4082 18.4897 61.8721 18.5582 62.2848 18.7624C66.8903 20.8702 68.4057 28.0488 68.8811 33.7C69.0891 36.1438 69.2674 41.7034 66.92 43.8417L66.8903 44.2083C66.0584 52.6699 62.6413 61.8952 57.9467 68.3101C57.709 68.6156 57.2336 69.2571 56.461 69.5931C55.8668 71.0288 54.9754 72.2507 53.4006 72.2813H53.3411C53.0143 72.2813 52.6577 72.2202 52.3606 72.0674C51.9097 72.5995 51.2873 72.9466 50.6075 73.045L49.9836 73.0755L49.1813 72.9839L49.0922 73.1061C48.7677 73.4935 48.3667 73.8056 47.9159 74.0215C47.4651 74.2375 46.9747 74.3523 46.4774 74.3585H46.3883C45.9426 74.3585 45.5266 74.2363 45.1403 74.0225C44.7624 74.4945 44.2377 74.8182 43.6547 74.9389L42.9416 75Z" fill="#1D1D1B"/>
<path d="M66.5634 33.6695C66.2069 29.5762 65.048 22.3059 61.2151 20.5647C60.2345 20.1065 61.1259 23.6805 61.3042 24.7803L61.2151 24.7497C60.8288 23.7722 59.8185 21.3284 58.8974 21.084C58.1249 20.8702 58.0655 21.9699 58.3329 23.314H58.2437C57.3821 21.3284 55.7181 18.4875 54.1136 18.1515C52.8657 17.9071 53.1628 21.6033 53.5491 24.2304C51.8851 20.2287 49.3001 16.9296 45.4374 16.227C42.0798 15.6161 42.3175 21.2062 42.6444 24.4748C42.1392 20.5953 39.7622 15.4633 35.3052 16.6852C32.6905 17.3878 31.5911 19.8316 31.2048 22.6725C30.1946 19.8621 27.3421 18.5791 24.6679 20.0454C22.796 21.0535 21.1321 23.0696 20.3595 25.3301C20.211 23.5278 19.6761 20.5036 17.8339 22.3059C15.4617 24.4685 13.7487 27.2905 12.9015 30.4315C12.337 33.3029 13.4958 36.5715 16.3483 37.4879V37.6407L15.7837 37.7629C13.9712 38.3127 13.2284 40.4816 13.6741 42.2533C14.1198 43.8723 14.8923 45.3691 15.962 46.6521C15.8134 48.7599 17.3585 52.2423 17.8339 53.1892C20.5972 58.6878 24.8759 64.8889 29.63 68.7073C32.0368 70.6318 30.9671 66.6606 30.2837 64.6139C31.9179 67.577 32.7499 69.5626 35.2458 71.5482C37.0286 73.0145 40.3564 72.2508 39.881 69.8986C40.8021 72.098 42.0798 72.7701 42.9712 72.5562C43.714 72.4035 43.8626 70.6012 43.6249 69.0433C43.4466 67.8825 43.4169 67.6992 43.1792 66.5384H43.298C43.8032 68.4629 44.8728 71.9453 46.1505 71.9758C47.3093 71.9758 48.0819 70.6012 47.9333 68.86L47.7253 67.0272C48.4681 70.479 49.0624 70.7845 50.0429 70.6623C51.1423 70.479 51.38 68.1574 51.4394 65.8969C51.4692 64.7667 51.4394 65.3165 51.38 64.1863L51.4989 64.1557C51.6771 65.6831 51.6474 69.8986 53.0737 69.8681C54.1433 69.8375 54.6782 67.4243 55.1239 65.622C54.9753 67.0883 55.0942 68.0047 56.045 66.7217C60.6208 60.4901 63.8001 51.723 64.5726 43.7807C64.6321 43.2614 64.6023 42.7421 64.5132 42.2228C64.6915 42.2533 64.8995 42.2228 65.048 42.1311C66.7714 41.2452 66.7714 36.0522 66.5634 33.6695ZM48.7058 32.8142H48.8544C49.3298 32.8142 49.9241 33.7306 49.9538 34.3416C49.9835 34.7998 49.8349 35.1358 49.3892 35.1663C48.8544 35.1969 48.4087 34.4027 48.3493 33.7306C48.3196 33.2724 48.4384 32.9669 48.7058 32.8142ZM49.7161 38.8626L49.9241 38.8015C50.1321 39.9317 50.5778 42.1006 51.2612 43.6585C50.8452 43.5363 50.3698 43.4752 49.9241 43.4752C50.1023 42.0089 49.8944 40.0845 49.7161 38.8626ZM42.7038 25.1774L42.8226 26.216C42.9712 27.5295 43.4169 31.3174 44.13 35.1663C43.506 33.7001 42.6146 32.4782 41.2478 32.0505L41.2181 31.8061C42.8226 29.8511 42.9415 27.5601 42.7038 25.1774ZM43.714 45.9495C45.2294 45.7968 45.6157 42.7421 45.4968 40.8787C45.9722 42.406 46.4773 43.689 47.0716 44.5138C45.3185 46.2245 45.2294 49.8901 45.5265 53.0976C45.0808 49.4014 43.1792 45.6135 39.5839 45.2775C39.7919 43.6279 39.6136 41.3369 39.4353 40.115C39.2868 38.9542 39.0491 37.7323 38.8411 36.6021L38.9896 36.5715C39.7028 39.0153 41.2181 46.1634 43.714 45.9495ZM39.2571 31.3174C38.6628 31.4396 38.128 30.6148 38.0388 29.7595C37.9794 29.118 38.2765 28.7209 38.5737 28.6598C39.1085 28.5376 39.6433 29.454 39.7325 30.2788C39.7919 30.7064 39.7622 31.1952 39.2571 31.3174ZM20.0327 28.843C20.3001 30.7064 21.2509 31.5618 22.7069 31.0424C22.9149 30.9814 23.4497 30.4926 23.628 30.3399C23.1526 32.7836 23.0634 35.2885 23.3605 37.7629C23.6577 40.1455 24.6679 43.7807 26.4507 46.0412C23.3011 46.4994 23.8062 49.829 24.7274 52.5783C25.2325 54.1057 25.8564 55.633 26.5399 57.1604C25.6187 56.0912 24.5194 55.3276 23.2714 55.2665L23.212 55.1137C23.836 54.8083 24.5491 54.014 23.4794 51.0509C23.212 50.3484 22.9149 49.6763 22.5583 49.0348C24.6085 47.4158 23.836 42.2228 23.4794 40.2677C22.8851 36.9992 21.548 32.2643 17.6556 31.745V31.5923C18.6956 30.9508 19.5276 30.0038 20.0327 28.843ZM21.6669 54.2279C21.2212 54.1362 20.6567 53.4336 20.3892 52.8532C20.2407 52.4867 20.2704 52.1812 20.5378 52.2117C20.8944 52.2728 21.6075 53.0976 21.8452 53.6475C21.9937 54.014 22.0235 54.289 21.6669 54.2279ZM24.0142 58.3517C23.5983 58.2296 23.004 57.4964 22.7069 56.916C22.5286 56.5189 22.5583 56.2134 22.8257 56.2745C23.1823 56.3662 23.9548 57.2826 24.2222 57.8324C24.3708 58.199 24.3708 58.4739 24.0142 58.3517ZM31.2939 53.2809L31.2345 53.0976C32.3042 52.7921 33.5819 52.8227 32.9282 49.5847C32.7499 48.7293 32.3042 47.9962 31.6802 47.4464C33.1956 45.9495 32.9579 42.2839 32.631 40.4816C31.9476 36.6021 30.6403 32.2032 28.4415 28.9652C29.7489 29.2707 30.6105 28.3543 31.1157 27.1324C31.2345 28.9347 31.4425 30.6148 31.6208 31.8672C31.9773 34.7081 33.9978 42.8948 36.4046 46.0106C34.1761 47.7824 34.6812 52.2117 35.4538 55.633C34.4733 54.2584 33.1064 53.2503 31.2939 53.2809ZM36.0778 64.5223C36.8206 64.1252 37.2069 63.4226 37.3554 62.5978C37.7417 63.8503 38.128 65.1027 38.5737 66.3246C38.0091 65.4693 37.2663 64.8583 36.2263 65.0416L36.0778 64.5223ZM42.7632 59.9708C42.3175 60.0624 41.8124 59.1765 41.6638 58.3517C41.545 57.7103 41.7233 57.3437 41.961 57.3131C42.3769 57.2215 43.0009 58.1379 43.1495 58.9321C43.2089 59.3904 43.1198 59.9097 42.7632 59.9708ZM44.6351 60.7039L44.6054 60.4595C45.7048 58.4128 45.7939 56.2745 45.6157 54.0751L46.1208 57.863C46.2396 58.6267 46.6259 61.2232 47.1608 64.0946C46.6853 62.5673 45.9425 61.2232 44.6351 60.7344V60.7039ZM51.9446 57.0077C51.4989 57.1909 51.1423 56.4578 51.0829 55.6636C51.0235 55.0526 51.2909 54.6555 51.4989 54.5639C51.9148 54.4111 52.3903 55.1748 52.42 55.9385C52.42 56.3356 52.3011 56.8549 51.9446 57.0077ZM55.6587 62.2618C55.8073 60.2151 55.6587 57.4964 53.6679 57.252V57.0077C54.7673 55.2665 55.421 53.2503 55.5696 51.1731C56.1341 52.6394 57.0552 53.8002 58.4814 53.2809C56.9958 56.0912 56.2233 59.146 55.6587 62.2313V62.2618ZM60.5911 46.9881C60.4722 44.8498 59.0163 42.2839 56.8472 42.6199C55.213 42.8948 54.7673 45.0331 54.7376 46.6521C54.4702 46.1023 54.1433 45.583 53.7273 45.1553C55.4804 43.9029 55.9558 38.4654 55.8964 36.3577V35.9606C57.0552 40.1761 58.5706 43.9945 60.2345 43.5058C61.5716 43.0781 62.0173 39.0458 62.0767 37.2436H62.255C62.4036 38.3433 62.7007 39.443 63.087 40.4816L62.9978 40.5121C60.8288 41.1231 60.5317 44.7582 60.5911 46.9881Z" fill="url(#paint1_linear_11_250)"/>
<path d="M20.6567 13.386C20.9538 13.5388 20.3298 15.5854 21.4292 16.899C20.3595 16.0742 19.9435 14.669 20.3298 13.8137C20.4487 13.5388 20.5675 13.3555 20.6567 13.386ZM34.4138 12.4696C34.2356 12.5002 33.8493 11.1866 32.9876 11.0033C33.3145 10.9728 33.6116 11.095 33.879 11.2783C34.1464 11.4921 34.3247 11.767 34.4138 12.103V12.4696ZM45.5265 10.5451C45.4077 10.7895 45.3186 10.9422 45.2591 10.8811C45.1106 10.6673 45.8534 8.46791 45.4077 6.69617C45.9128 7.91806 45.9425 9.62871 45.5265 10.5451ZM59.3729 44.9414C59.3729 45.1247 59.3431 45.308 59.2837 45.3385C58.9866 45.3996 58.8083 43.7806 57.3524 43.3529C58.5706 43.4446 59.3729 44.1777 59.3729 44.9414ZM63.6218 24.0776C63.6515 24.2609 63.6218 24.3831 63.5921 24.3831C63.4733 24.2914 63.1464 22.764 62.3442 21.8171C62.9681 22.3669 63.503 23.375 63.6218 24.0776ZM60.1454 23.5888L60.1157 23.8332C59.9968 23.7721 59.7888 22.5197 59.1649 21.8171C59.6997 22.2753 60.1157 23.039 60.1454 23.5888ZM56.6987 21.7254C56.7878 22.0004 56.8175 22.1837 56.7284 22.1531C56.461 22.1226 55.5993 19.9842 54.1433 19.0067C55.3022 19.526 56.4015 20.7479 56.6987 21.7254ZM50.1321 19.8926C50.1915 20.1675 50.1321 20.4425 50.0726 20.4119C49.003 19.8926 47.9036 17.8154 46.3288 17.0212C47.755 17.3877 49.7755 18.4263 50.1321 19.8926ZM48.7653 35.5939C48.35 35.4038 48.0001 35.0892 47.7616 34.6913C47.523 34.2935 47.4068 33.8308 47.4282 33.364C47.4579 33.0585 47.4876 32.8752 47.6065 32.8752C47.8145 32.9058 47.7847 34.8302 48.7653 35.5939ZM42.7335 34.4637C42.7632 34.708 42.7632 34.9219 42.7038 34.9219C42.4364 34.9524 41.9313 32.8752 40.6833 32.4475C41.1884 32.5086 41.6638 32.7225 42.0204 33.089C42.4067 33.4556 42.6444 33.9444 42.7335 34.4637ZM37.1772 29.7594C37.4149 29.7288 37.8308 31.7755 39.1085 32.2337C38.0686 32.2032 37.2069 31.2562 37.1177 30.3092C37.088 30.0038 37.088 29.7899 37.1772 29.7594ZM39.1382 19.2511C39.2274 19.5566 39.1085 19.8315 39.0491 19.8315C37.9497 19.526 36.8503 17.4794 34.8595 17.4794C36.3749 17.0823 38.7222 17.5405 39.1382 19.2511ZM29.2438 22.2447C29.2735 22.5808 29.2438 22.8862 29.1249 22.9473C28.4712 23.2223 27.6095 20.6563 25.2028 21.1145C27.2233 20.3508 29.0655 20.9923 29.2438 22.2447ZM18.339 32.8141C19.5573 32.6614 20.5972 33.9444 20.9241 35.1968C21.0132 35.5634 20.8349 35.7772 20.7458 35.8077C20.3892 35.9299 19.795 33.1501 18.339 32.8141ZM19.4979 24.8413C19.4681 25.2689 19.4087 25.6355 19.2899 25.6966C18.8442 25.9715 18.755 23.0084 17.6556 23.3444C18.755 22.6113 19.587 23.3444 19.4979 24.8413ZM19.4979 52.8837C19.4087 52.6393 19.4087 52.5477 19.4681 52.5782C19.5573 52.6088 20.1515 53.9223 20.8944 54.5332C20.3001 54.1667 19.795 53.5863 19.4979 52.8837ZM22.1423 56.9465C22.0829 56.7937 22.0829 56.7021 22.1126 56.7327C22.2315 56.7632 22.7663 57.9545 23.4497 58.5349C22.8851 58.1378 22.4395 57.588 22.1423 56.9465ZM27.045 60.4289C26.6884 60.2761 25.5296 57.5269 23.7765 56.1523C25.1433 56.8854 26.629 58.6877 27.0153 59.879C27.1044 60.215 27.1341 60.4594 27.045 60.4289ZM34.8892 57.313C34.4733 57.313 33.1659 54.9609 31.0563 54.1972C32.7202 54.4416 34.4138 55.6635 34.8298 56.7327C34.9487 57.0992 34.9784 57.313 34.8892 57.313ZM39.0491 68.9516C38.7817 68.8294 38.2171 67.0882 36.88 66.019C38.0091 66.5994 38.9599 67.6991 39.0788 68.5545C39.1382 68.7988 39.1085 68.9516 39.0491 68.9516ZM31.3237 48.3932C30.9671 48.5154 28.9763 46.7437 26.7479 46.7742C28.4118 46.4382 30.3729 46.9881 31.086 47.8739C31.3237 48.1489 31.4128 48.3627 31.3237 48.3932ZM39.1085 46.7437C40.505 46.8964 42.1095 47.4463 42.4364 48.8209C42.5255 49.1264 42.4067 49.4013 42.3472 49.4013C41.4558 49.218 40.3267 47.7212 38.9302 47.0186L39.1085 46.7437ZM40.7427 58.6877C40.6833 58.3822 40.6833 58.1684 40.7427 58.1684C40.9507 58.1378 41.5153 60.3372 42.5849 60.9176C41.753 60.7954 40.9507 59.6652 40.7427 58.6877ZM45.9425 64.8888C45.7345 64.9499 45.3186 62.7199 44.2192 62.2617C45.0808 62.3228 45.8534 63.2698 45.9722 64.3695C46.002 64.6444 46.002 64.8582 45.9425 64.8888ZM50.5481 55.5413C50.6075 55.2358 50.6669 55.022 50.7263 55.022C50.9343 54.9915 50.6372 57.0687 51.3503 57.588C50.6669 57.4658 50.3698 56.4272 50.5481 55.5413ZM54.7376 59.8485C54.7376 60.0929 54.7079 60.3067 54.6485 60.3372C54.4405 60.49 54.3811 58.5044 53.3114 58.4128C54.2028 58.1989 54.797 58.871 54.7376 59.8485ZM52.8657 47.2019C52.2714 47.3546 51.7069 45.6134 49.3892 45.0025L49.4487 44.8803C51.4692 45.0025 52.9845 45.8884 53.044 46.7131C53.0737 46.9881 52.9845 47.1713 52.8657 47.2019ZM63.9784 43.2613C63.9784 43.4446 63.919 43.5668 63.8892 43.5668C63.7407 43.6279 63.711 42.2532 62.8493 41.8256C63.1761 41.8867 63.4733 42.0699 63.6813 42.3143C63.8892 42.5892 63.9784 42.9253 63.9784 43.2613Z" fill="white"/>
<linearGradient id="paint0_linear_11_250" x1="31.1841" y1="5.52937" x2="38.7424" y2="25.5736" gradientUnits="userSpaceOnUse">
<stop stop-color="#11998E"/>
<stop offset="1" stop-color="#38EF7D"/>
</linearGradient>
<linearGradient id="paint1_linear_11_250" x1="36.2471" y1="18.6494" x2="49.0679" y2="73.0951" gradientUnits="userSpaceOnUse">
<stop stop-color="#EE0979"/>
<stop offset="1" stop-color="#FF6A00"/>
</linearGradient>
</svg>
