<?xml version="1.0" encoding="UTF-8"?>
<svg height="100%" width="100%" viewBox="0 0 40 48" version="1.1" xmlns="http://www.w3.org/2000/svg" xmlns:xlink="http://www.w3.org/1999/xlink">
    <!-- Generator: Sketch 47.1 (45422) - http://www.bohemiancoding.com/sketch -->
    <title>Combined Shape</title>
    <desc>Created with Sketch.</desc>
    <g id="Page-1" stroke="none" stroke-width="1" fill="none" fill-rule="evenodd">
        <g id="Group-7" transform="translate(-1743.000000, -684.000000)" fill-rule="nonzero" fill="currentcolor">
            <g id="Docs">
                <g id="Group-3" transform="translate(980.000000, 664.000000)">
                    <g id="Group-6" transform="translate(763.000000, 20.000000)">
                        <path d="M19.9985352,12.0009766 L19.9985352,4 L16,4 L16,12 L16,12 C16,14.209139 17.790861,16 20,16 L28,16 L28,12.0009766 L19.9985352,12.0009766 Z M5,1.77635684e-15 L19.5857864,0 C20.9118689,1.77635684e-14 22.1836385,0.526784202 23.1213203,1.46446609 L30.5355339,8.87867966 C31.4732158,9.81636155 32,11.0881311 32,12.4142136 L32,35 C32,37.7614237 29.7614237,40 27,40 L5,40 C2.23857625,40 0,37.7614237 0,35 L0,5 C0,2.23857625 2.23857625,2.22044605e-15 5,1.77635684e-15 Z M5,4 C4.44771525,4 4,4.44771525 4,5 L4,35 C4,35.5522847 4.44771525,36 5,36 L27,36 C27.5522847,36 28,35.5522847 28,35 L28,12.4142136 C28,12.1489971 27.8946432,11.8946432 27.7071068,11.7071068 L20.2928932,4.29289322 C20.1053568,4.10535684 19.8510029,4 19.5857864,4 L5,4 Z M40,40 C40,44.418278 36.418278,48 32,48 L12,48 C9.790861,48 8,46.209139 8,44 L8,44 L32,44 C34.209139,44 36,42.209139 36,40 L36,10 C38.209139,10 40,11.790861 40,14 L40,40 Z" id="Combined-Shape"></path>
                    </g>
                </g>
            </g>
        </g>
    </g>
</svg>
