<?xml version="1.0" encoding="UTF-8"?>
<svg width="100%" height="100%" viewBox="0 0 24 24" version="1.1" xmlns="http://www.w3.org/2000/svg" xmlns:xlink="http://www.w3.org/1999/xlink">
    <!-- Generator: Sketch 47.1 (45422) - http://www.bohemiancoding.com/sketch -->
    <title>Sidebar/Assigned To Me</title>
    <desc>Created with Sketch.</desc>
    <g id="Page-1" stroke="none" stroke-width="1" fill="currentcolor" fill-rule="evenodd">
        <g id="Group-7" transform="translate(-529.000000, -2142.000000)" fill-rule="nonzero" fill="currentcolor">
            <g id="Docs">
                <g id="Sidebar" transform="translate(480.000000, 85.000000)">
                    <g id="Sidebar/Assigned-To-Me" transform="translate(47.000000, 2055.000000)">
                        <path d="M6.57694084,17.0573642 C5.09845147,17.2679649 4,18.5339712 4,20.0273845 L4,22.5 C4,23.3284271 4.67157288,24 5.5,24 L22.5,24 C23.3284271,24 24,23.3284271 24,22.5 L24,20.0273845 C24,18.5339712 22.9015485,17.2679649 21.4230592,17.0573642 L17.9042257,16.5561303 C16.8548438,17.4562022 15.4909273,18 14,18 C12.5090727,18 11.1451562,17.4562022 10.0957743,16.5561303 L6.57694084,17.0573642 Z M6.2949014,15.0773506 L10.7103901,14.4483943 L11.3978587,15.0380473 C12.1184044,15.656071 13.0299588,16 14,16 C14.9700412,16 15.8815956,15.656071 16.6021413,15.0380473 L17.2896099,14.4483943 L21.7050986,15.0773506 C24.1692475,15.4283518 26,17.5383623 26,20.0273845 L26,22.5 C26,24.4329966 24.4329966,26 22.5,26 L5.5,26 C3.56700338,26 2,24.4329966 2,22.5 L2,20.0273845 C2,17.5383623 3.83075245,15.4283518 6.2949014,15.0773506 Z M14,4 C11.790861,4 10,5.790861 10,8 L10,12 C10,14.209139 11.790861,16 14,16 C16.209139,16 18,14.209139 18,12 L18,8 C18,5.790861 16.209139,4 14,4 Z M14,2 C17.3137085,2 20,4.6862915 20,8 L20,12 C20,15.3137085 17.3137085,18 14,18 C10.6862915,18 8,15.3137085 8,12 L8,8 C8,4.6862915 10.6862915,2 14,2 Z" id="Combined-Shape"></path>
                    </g>
                </g>
            </g>
        </g>
    </g>
</svg>
