<?xml version="1.0" encoding="UTF-8"?>
<svg width="100%" height="100%" viewBox="0 0 26 24" version="1.1" xmlns="http://www.w3.org/2000/svg" xmlns:xlink="http://www.w3.org/1999/xlink">
    <!-- Generator: Sketch 47.1 (45422) - http://www.bohemiancoding.com/sketch -->
    <title>Docs/Warning</title>
    <desc>Created with Sketch.</desc>
    <g id="Page-1" stroke="none" stroke-width="1" fill="none" fill-rule="evenodd">
        <g id="Group-7" transform="translate(-529.000000, -543.000000)" fill-rule="nonzero" fill="currentcolor">
            <g id="Docs">
                <g id="Sidebar" transform="translate(480.000000, 85.000000)">
                    <g id="Docs/Warning" transform="translate(48.000000, 456.000000)">
                        <path d="M16.4056756,3.41742589 L26.6507593,21.9177498 C27.3865408,23.2464062 26.9059207,24.9199636 25.5772644,25.6557451 C25.1695292,25.8815401 24.7110951,26 24.2450142,26 L3.75484686,26 C2.2360638,26 1.00484686,24.7687831 1.00484686,23.25 C1.00484686,22.7839191 1.12330674,22.325485 1.34910176,21.9177498 L11.5941854,3.41742589 C12.3299669,2.08876956 14.0035244,1.60814952 15.3321807,2.34393097 C15.7836517,2.59394597 16.1556606,2.96595486 16.4056756,3.41742589 Z M14.6560428,4.38633511 C14.5878569,4.26320665 14.4864,4.16174968 14.3632715,4.09356377 C14.0009107,3.8928961 13.5444859,4.02397429 13.3438182,4.38633511 L3.09873456,22.886659 C3.0371541,22.9978595 3.00484686,23.122887 3.00484686,23.25 C3.00484686,23.6642136 3.3406333,24 3.75484686,24 L24.2450142,24 C24.3721272,24 24.4971547,23.9676928 24.6083552,23.9061123 C24.970716,23.7054446 25.1017942,23.2490199 24.9011265,22.886659 L14.6560428,4.38633511 Z M14,9 L14,9 C14.5522847,9 15,9.44771525 15,10 L15,16 L15,16 C15,16.5522847 14.5522847,17 14,17 C13.4477153,17 13,16.5522847 13,16 L13,10 C13,9.44771525 13.4477153,9 14,9 L14,9 Z M14,19 L14,19 C14.5522847,19 15,19.4477153 15,20 L15,20 C15,20.5522847 14.5522847,21 14,21 L14,21 C13.4477153,21 13,20.5522847 13,20 L13,20 C13,19.4477153 13.4477153,19 14,19 Z" id="Combined-Shape"></path>
                    </g>
                </g>
            </g>
        </g>
    </g>
</svg>
