<?xml version="1.0" encoding="UTF-8"?>
<svg width="100%" height="100%" viewBox="0 0 24 24" version="1.1" xmlns="http://www.w3.org/2000/svg" xmlns:xlink="http://www.w3.org/1999/xlink">
    <!-- Generator: Sketch 47.1 (45422) - http://www.bohemiancoding.com/sketch -->
    <title>System/Target</title>
    <desc>Created with Sketch.</desc>
    <g id="Page-1" stroke="none" stroke-width="1" fill="none" fill-rule="evenodd">
        <g id="Group-7" transform="translate(-529.000000, -2704.000000)" fill-rule="nonzero" fill="currentcolor">
            <g id="Docs">
                <g id="Sidebar" transform="translate(480.000000, 85.000000)">
                    <g id="System/Target" transform="translate(47.000000, 2617.000000)">
                        <path d="M6,4 C4.8954305,4 4,4.8954305 4,6 L4,22 C4,23.1045695 4.8954305,24 6,24 L22,24 C23.1045695,24 24,23.1045695 24,22 L24,6 C24,4.8954305 23.1045695,4 22,4 L6,4 Z M6,2 L22,2 C24.209139,2 26,3.790861 26,6 L26,22 C26,24.209139 24.209139,26 22,26 L6,26 C3.790861,26 2,24.209139 2,22 L2,6 C2,3.790861 3.790861,2 6,2 Z M6,8 C6,6.8954305 6.8954305,6 8,6 L11,6 L11,6 C11.5522847,6 12,6.44771525 12,7 L12,7 L12,7 C12,7.55228475 11.5522847,8 11,8 L8,8 L8,11 L8,11 C8,11.5522847 7.55228475,12 7,12 L7,12 L7,12 C6.44771525,12 6,11.5522847 6,11 L6,8 Z M6,17 L6,20 C6,21.1045695 6.8954305,22 8,22 L11,22 L11,22 C11.5522847,22 12,21.5522847 12,21 L12,21 L12,21 C12,20.4477153 11.5522847,20 11,20 L8,20 L8,17 L8,17 C8,16.4477153 7.55228475,16 7,16 L7,16 L7,16 C6.44771525,16 6,16.4477153 6,17 Z M22,11 L22,8 C22,6.8954305 21.1045695,6 20,6 L17,6 L17,6 C16.4477153,6 16,6.44771525 16,7 L16,7 L16,7 C16,7.55228475 16.4477153,8 17,8 L20,8 L20,11 L20,11 C20,11.5522847 20.4477153,12 21,12 L21,12 L21,12 C21.5522847,12 22,11.5522847 22,11 Z M22,20 C22,21.1045695 21.1045695,22 20,22 L17,22 L17,22 C16.4477153,22 16,21.5522847 16,21 L16,21 L16,21 C16,20.4477153 16.4477153,20 17,20 L20,20 L20,17 L20,17 C20,16.4477153 20.4477153,16 21,16 L21,16 L21,16 C21.5522847,16 22,16.4477153 22,17 L22,20 Z M14,16 C15.1045695,16 16,15.1045695 16,14 C16,12.8954305 15.1045695,12 14,12 C12.8954305,12 12,12.8954305 12,14 C12,15.1045695 12.8954305,16 14,16 Z M14,18 C11.790861,18 10,16.209139 10,14 C10,11.790861 11.790861,10 14,10 C16.209139,10 18,11.790861 18,14 C18,16.209139 16.209139,18 14,18 Z" id="Rectangle-92"></path>
                    </g>
                </g>
            </g>
        </g>
    </g>
</svg>
