<?xml version="1.0" encoding="UTF-8"?>
<svg width="100%" height="100%" viewBox="0 0 48 48" version="1.1" xmlns="http://www.w3.org/2000/svg" xmlns:xlink="http://www.w3.org/1999/xlink">
    <!-- Generator: Sketch 47.1 (45422) - http://www.bohemiancoding.com/sketch -->
    <title>Combined Shape</title>
    <desc>Created with Sketch.</desc>
    <defs></defs>
    <g id="Page-1" stroke="none" stroke-width="1" fill="none" fill-rule="evenodd">
        <g id="Group-7" transform="translate(-1426.000000, -683.000000)" fill-rule="nonzero" fill="currentcolor">
            <g id="Docs">
                <g id="Group-3" transform="translate(980.000000, 664.000000)">
                    <g id="Sidebar/Configure-SDK" transform="translate(446.000000, 19.000000)">
                        <path d="M8,8 C5.790861,8 4,9.790861 4,12 C4,14.209139 5.790861,16 8,16 L24.5051268,16 C24.1728447,14.7095188 24,13.3675836 24,12 C24,10.6324164 24.1728447,9.29048124 24.5051268,8 L8,8 Z M20.944426,28 L40,28 C44.418278,28 48,31.581722 48,36 C48,40.418278 44.418278,44 40,44 L20.944426,44 C18.7471438,46.4549974 15.5539993,48 12,48 C5.372583,48 8.11624501e-16,42.627417 0,36 C-8.11624501e-16,29.372583 5.372583,24 12,24 C15.5539993,24 18.7471438,25.5450026 20.944426,28 Z M23.9999999,35.9984251 C24,35.9989501 24,35.999475 24,36 C24,37.3675836 23.8271553,38.7095188 23.4948732,40 L40,40 C42.209139,40 44,38.209139 44,36 C44,33.790861 42.209139,32 40,32 L23.4948732,32 C23.8270278,33.2899859 23.9998673,34.6313861 23.9999999,35.9984251 C24,39.0734177 22.8445857,41.876974 20.944426,44 Z M27.055574,20 L8,20 C3.581722,20 6.46473999e-16,16.418278 0,12 C-2.15491333e-16,7.581722 3.581722,4 8,4 L27.055574,4 C29.2528562,1.54500256 32.4460007,6.52859071e-16 36,0 C42.627417,-1.21743675e-15 48,5.372583 48,12 C48,18.627417 42.627417,24 36,24 C32.4460007,24 29.2528562,22.4549974 27.055574,20 Z M36,4 C31.581722,4 28,7.581722 28,12 C28,16.418278 31.581722,20 36,20 C40.418278,20 44,16.418278 44,12 C44,7.581722 40.418278,4 36,4 Z M12,28 C7.581722,28 4,31.581722 4,36 C4,40.418278 7.581722,44 12,44 C16.418278,44 20,40.418278 20,36 C20,31.581722 16.418278,28 12,28 Z" id="Combined-Shape"></path>
                    </g>
                </g>
            </g>
        </g>
    </g>
</svg>
