<?xml version="1.0" encoding="UTF-8"?>
<svg width="100%" height="100%" viewBox="0 0 24 24" version="1.1" xmlns="http://www.w3.org/2000/svg" xmlns:xlink="http://www.w3.org/1999/xlink">
    <!-- Generator: Sketch 47.1 (45422) - http://www.bohemiancoding.com/sketch -->
    <title>System/Collaborate</title>
    <desc>Created with Sketch.</desc>
    <g id="Page-1" stroke="none" stroke-width="1" fill="none" fill-rule="evenodd">
        <g id="Group-7" transform="translate(-532.000000, -2824.000000)" fill-rule="nonzero" fill="currentcolor">
            <g id="Docs">
                <g id="Sidebar" transform="translate(480.000000, 85.000000)">
                    <g id="System/Collaborate" transform="translate(52.000000, 2739.000000)">
                        <path d="M4,6 C5.1045695,6 6,5.1045695 6,4 C6,2.8954305 5.1045695,2 4,2 C2.8954305,2 2,2.8954305 2,4 C2,5.1045695 2.8954305,6 4,6 Z M17.3541756,19 C16.5237549,18.2670555 16,17.1946925 16,16 C16,13.790861 17.790861,12 20,12 C22.209139,12 24,13.790861 24,16 C24,17.1946925 23.4762451,18.2670555 22.6458244,19 C23.4762451,19.7329445 24,20.8053075 24,22 L24,24 L16,24 L16,22 C16,20.8053075 16.5237549,19.7329445 17.3541756,19 Z M1.3541756,7 C0.523754887,6.26705555 0,5.19469253 0,4 C0,1.790861 1.790861,0 4,0 C6.209139,0 8,1.790861 8,4 C8,5.19469253 7.47624511,6.26705555 6.6458244,7 C7.47624511,7.73294445 8,8.80530747 8,10 L8,12 L0,12 L0,10 C-1.20080733e-16,8.80530747 0.523754887,7.73294445 1.3541756,7 Z M2,10 L6,10 C6,8.8954305 5.1045695,8 4,8 C2.8954305,8 2,8.8954305 2,10 Z M20,18 C21.1045695,18 22,17.1045695 22,16 C22,14.8954305 21.1045695,14 20,14 C18.8954305,14 18,14.8954305 18,16 C18,17.1045695 18.8954305,18 20,18 Z M22,4 L22,4 C22,2.8954305 21.1045695,2 20,2 L11,2 C10.4477153,2 10,1.55228475 10,1 C10,0.44771525 10.4477153,0 11,0 L20,0 C22.209139,-4.05812251e-16 24,1.790861 24,4 L24,4 L24,9 C24,9.55228475 23.5522847,10 23,10 C22.4477153,10 22,9.55228475 22,9 L22,4 Z M2,20 C2,21.1045695 2.8954305,22 4,22 L13,22 C13.5522847,22 14,22.4477153 14,23 C14,23.5522847 13.5522847,24 13,24 L4,24 C1.790861,24 -1.73547709e-16,22.209139 -4.4408921e-16,20 L0,20 L0,15 C0,14.4477153 0.44771525,14 1,14 C1.55228475,14 2,14.4477153 2,15 L2,20 Z M18,22 L22,22 C22,20.8954305 21.1045695,20 20,20 C18.8954305,20 18,20.8954305 18,22 Z" id="Combined-Shape"></path>
                    </g>
                </g>
            </g>
        </g>
    </g>
</svg>
