<?xml version="1.0" encoding="UTF-8"?>
<svg width="100%" height="100%" viewBox="0 0 24 24" version="1.1" xmlns="http://www.w3.org/2000/svg" xmlns:xlink="http://www.w3.org/1999/xlink">
    <!-- Generator: Sketch 47.1 (45422) - http://www.bohemiancoding.com/sketch -->
    <title>System/Radar</title>
    <desc>Created with Sketch.</desc>
    <g id="Page-1" stroke="none" stroke-width="1" fill="none" fill-rule="evenodd">
        <g id="Group-7" transform="translate(-530.000000, -223.000000)" fill-rule="nonzero" fill="currentcolor">
            <g id="Docs">
                <g id="Sidebar" transform="translate(480.000000, 85.000000)">
                    <g id="System/Radar" transform="translate(48.000000, 136.000000)">
                        <path d="M15,10.1260175 C15.4605542,10.2445559 15.8890073,10.4430565 16.2696775,10.7058372 L21.6375177,5.33799691 L23.0517313,6.75221047 L17.5833852,12.2205565 C17.7060058,12.4670102 17.8039495,12.7279027 17.8739825,13 L25,13 L25,15 L17.8739825,15 C17.5122042,16.4056073 16.4056073,17.5122042 15,17.8739825 L15,25 L13,25 L13,17.8739825 C11.5943927,17.5122042 10.4877958,16.4056073 10.1260175,15 L3,15 L3,13 L10.1260175,13 C10.4877958,11.5943927 11.5943927,10.4877958 13,10.1260175 L13,3 L15,3 L15,10.1260175 Z M9,20 C8.44771525,20 8,19.5522847 8,19 C8,18.4477153 8.44771525,18 9,18 C9.55228475,18 10,18.4477153 10,19 C10,19.5522847 9.55228475,20 9,20 Z M14,16 C15.1045695,16 16,15.1045695 16,14 C16,12.8954305 15.1045695,12 14,12 C12.8954305,12 12,12.8954305 12,14 C12,15.1045695 12.8954305,16 14,16 Z M14,24 C19.5228475,24 24,19.5228475 24,14 C24,8.4771525 19.5228475,4 14,4 C8.4771525,4 4,8.4771525 4,14 C4,19.5228475 8.4771525,24 14,24 Z M14,26 C7.372583,26 2,20.627417 2,14 C2,7.372583 7.372583,2 14,2 C20.627417,2 26,7.372583 26,14 C26,20.627417 20.627417,26 14,26 Z" id="Oval-19"></path>
                    </g>
                </g>
            </g>
        </g>
    </g>
</svg>
