<?xml version="1.0" encoding="UTF-8"?>
<svg width="100%" height="100%" viewBox="0 0 24 24" version="1.1" xmlns="http://www.w3.org/2000/svg" xmlns:xlink="http://www.w3.org/1999/xlink">
    <!-- Generator: Sketch 47.1 (45422) - http://www.bohemiancoding.com/sketch -->
    <title>Sidebar/Forum</title>
    <desc>Created with Sketch.</desc>
    <g id="Page-1" stroke="none" stroke-width="1" fill="none" fill-rule="evenodd">
        <g id="Sidebar/Forum" transform="translate(-2.000000, -2.000000)" fill-rule="nonzero" fill="currentcolor">
            <path d="M14,14 C12.8954305,14 12,13.1045695 12,12 C12,10.8954305 12.8954305,10 14,10 C15.1045695,10 16,10.8954305 16,12 C16,13.1045695 15.1045695,14 14,14 Z M8,14 C6.8954305,14 6,13.1045695 6,12 C6,10.8954305 6.8954305,10 8,10 C9.1045695,10 10,10.8954305 10,12 C10,13.1045695 9.1045695,14 8,14 Z M20,14 C18.8954305,14 18,13.1045695 18,12 C18,10.8954305 18.8954305,10 20,10 C21.1045695,10 22,10.8954305 22,12 C22,13.1045695 21.1045695,14 20,14 Z M6,4.02921732 C4.8954305,4.02921732 4,4.93772886 4,6.05843463 L4,17.9735903 C4,19.0942961 4.8954305,20.0028076 6,20.0028076 L8.99417127,20.0028076 C9.1600319,20.0028076 9.32121413,20.0585909 9.45250089,20.16143 L13.5416704,23.8721924 C13.8116716,24.0836889 14.1883284,24.0836889 14.4583296,23.8721924 L18.5474991,20.16143 C18.6787859,20.0585909 18.8399681,20.0028076 19.0058287,20.0028076 L22,20.0028076 C23.1045695,20.0028076 24,19.0942961 24,17.9735903 L24,6.05843463 C24,4.93772886 23.1045695,4.02921732 22,4.02921732 L6,4.02921732 Z M15.6805419,25.4183845 C14.6905376,26.1938718 13.3094624,26.1938718 12.3194581,25.4183845 L8.56779005,22.0320249 L6,22.0320249 C3.790861,22.0320249 2,20.2150019 2,17.9735903 L2,6.05843463 C2,3.81702308 3.790861,2 6,2 L22,2 C24.209139,2 26,3.81702308 26,6.05843463 L26,17.9735903 C26,20.2150019 24.209139,22.0320249 22,22.0320249 L19.43221,22.0320249 L15.6805419,25.4183845 Z" id="Combined-Shape"></path>
        </g>
    </g>
</svg>
