<?xml version="1.0" encoding="UTF-8"?>
<svg width="100%" height="100%" viewBox="0 0 24 24" version="1.1" xmlns="http://www.w3.org/2000/svg" xmlns:xlink="http://www.w3.org/1999/xlink">
    <!-- Generator: Sketch 47.1 (45422) - http://www.bohemiancoding.com/sketch -->
    <title>System/Integrations</title>
    <desc>Created with Sketch.</desc>
    <defs>
        <linearGradient x1="50%" y1="0%" x2="50%" y2="97.7638712%" id="linearGradient-1">
            <stop stop-color="#CDCAE1" stop-opacity="0.75" offset="0%"></stop>
            <stop stop-color="#CDCAE1" stop-opacity="0.7" offset="100%"></stop>
        </linearGradient>
    </defs>
    <g id="Page-1" stroke="none" stroke-width="1" fill="none" fill-rule="evenodd">
        <g id="Group-7" transform="translate(-529.000000, -2544.000000)" fill-rule="nonzero" fill="currentcolor">
            <g id="Docs">
                <g id="Sidebar" transform="translate(480.000000, 85.000000)">
                    <g id="System/Integrations" transform="translate(49.000000, 2459.000000)">
                        <path d="M24,4 C24,4.55228475 23.5522847,5 23,5 C22.4477153,5 22,4.55228475 22,4 L22,20 C22,19.4477153 22.4477153,19 23,19 C23.5522847,19 24,19.4477153 24,20 L24,4 Z M10.6059587,11 L19,11 C19.5522847,11 20,11.4477153 20,12 C20,12.5522847 19.5522847,13 19,13 L10.6059491,13 L13.6689604,15.7567102 C14.0794705,16.1261692 14.1127489,16.758459 13.7432898,17.168969 C13.3738308,17.5794791 12.741541,17.6127575 12.331031,17.2432984 L7.33103097,12.7432984 C6.88965061,12.3460561 6.88965061,11.6539525 7.33103097,11.2567102 L12.331031,6.75671015 C12.741541,6.38725113 13.3738308,6.42052955 13.7432898,6.83103957 C14.1127489,7.24154959 14.0794705,7.87383943 13.6689604,8.24329845 L10.6059587,11 Z M3,0 L21,0 C22.6568542,0 24,1.34314575 24,3 L24,21 C24,22.6568542 22.6568542,24 21,24 L3,24 C1.34314575,24 0,22.6568542 0,21 L0,3 C0,1.34314575 1.34314575,0 3,0 Z M3,2 C2.44771525,2 2,2.44771525 2,3 L2,21 C2,21.5522847 2.44771525,22 3,22 L21,22 C21.5522847,22 22,21.5522847 22,21 L22,3 C22,2.44771525 21.5522847,2 21,2 L3,2 Z M23,17 C22.4477153,17 22,16.5522847 22,16 C22,15.4477153 22.4477153,15 23,15 C23.5522847,15 24,15.4477153 24,16 C24,16.5522847 23.5522847,17 23,17 Z M23,13 C22.4477153,13 22,12.5522847 22,12 C22,11.4477153 22.4477153,11 23,11 C23.5522847,11 24,11.4477153 24,12 C24,12.5522847 23.5522847,13 23,13 Z M23,9 C22.4477153,9 22,8.55228475 22,8 C22,7.44771525 22.4477153,7 23,7 C23.5522847,7 24,7.44771525 24,8 C24,8.55228475 23.5522847,9 23,9 Z" id="Combined-Shape"></path>
                    </g>
                </g>
            </g>
        </g>
    </g>
</svg>
