<?xml version="1.0" encoding="UTF-8"?>
<svg width="100%" height="100%" viewBox="0 0 24 24" version="1.1" xmlns="http://www.w3.org/2000/svg" xmlns:xlink="http://www.w3.org/1999/xlink">
    <!-- Generator: Sketch 47.1 (45422) - http://www.bohemiancoding.com/sketch -->
    <title>System/Project</title>
    <g id="Page-1" stroke="none" stroke-width="1" fill="none" fill-rule="evenodd">
        <g id="Group-7" transform="translate(-529.000000, -1543.000000)" fill-rule="nonzero" fill="currentcolor">
            <g id="Docs">
                <g id="Sidebar" transform="translate(480.000000, 85.000000)">
                    <g id="System/Project" transform="translate(47.000000, 1456.000000)">
                        <path d="M24,12.5 L24,6.99743652 L15.9993162,6.99743652 C14.918167,6.99743652 13.8661431,6.64700168 13.0009576,5.99866703 L11.8006566,5.09921047 C10.8484639,4.38567623 9.69064358,4 8.50076883,4 L4,4 L4,12.5 L4,24 L24,24 L24,12.5 Z M3.5,2 L8.50076883,2 C10.1231033,2 11.7017332,2.52585017 13,3.49871826 L14.2003011,4.39817483 C14.7194124,4.78717562 15.3506267,4.99743652 15.9993162,4.99743652 L24.5,4.99743652 C25.3284271,4.99743652 26,5.6690094 26,6.49743652 L26,24 L26,24 C26,25.1045695 25.1045695,26 24,26 L4,26 C2.8954305,26 2,25.1045695 2,24 L2,3.5 C2,2.67157288 2.67157288,2 3.5,2 Z M17.0147406,18.8936535 L19.6492363,16.0357194 L17.0147406,13.1777854 C16.6404129,12.77171 16.6661495,12.1390683 17.0722249,11.7647406 C17.4783003,11.3904129 18.110942,11.4161495 18.4852697,11.8222249 L21.7445555,15.3579392 C22.0975361,15.740857 22.0975361,16.3305819 21.7445555,16.7134997 L18.4852697,20.249214 C18.110942,20.6552894 17.4783003,20.681026 17.0722249,20.3066983 C16.6661495,19.9323706 16.6404129,19.2997289 17.0147406,18.8936535 Z M10.9945504,13.1777854 L8.36005471,16.0357194 L10.9945504,18.8936535 C11.3688781,19.2997289 11.3431415,19.9323706 10.9370661,20.3066983 C10.5309907,20.681026 9.89834898,20.6552894 9.52402129,20.249214 L6.26473546,16.7134997 C5.91175485,16.3305819 5.91175485,15.740857 6.26473546,15.3579392 L9.52402129,11.8222249 C9.89834898,11.4161495 10.5309907,11.3904129 10.9370661,11.7647406 C11.3431415,12.1390683 11.3688781,12.77171 10.9945504,13.1777854 Z M14,18 C12.8954305,18 12,17.1045695 12,16 C12,14.8954305 12.8954305,14 14,14 C15.1045695,14 16,14.8954305 16,16 C16,17.1045695 15.1045695,18 14,18 Z" id="Icon"></path>
                    </g>
                </g>
            </g>
        </g>
    </g>
</svg>
