<?xml version="1.0" encoding="UTF-8"?>
<svg width="20px" height="16px" viewBox="0 0 20 16" version="1.1" xmlns="http://www.w3.org/2000/svg" xmlns:xlink="http://www.w3.org/1999/xlink">
    <!-- Generator: Sketch 47.1 (45422) - http://www.bohemiancoding.com/sketch -->
    <title>Group 3</title>
    <desc>Created with Sketch.</desc>
    <defs></defs>
    <g id="Page-1" stroke="none" stroke-width="1" fill="none" fill-rule="evenodd">
        <g id="Group-6" transform="translate(-4.000000, -6.000000)">
            <g id="Group-58">
                <g id="Group-52">
                    <g id="Group-43">
                        <g id="Group-56">
                            <g id="Group-3">
                                <rect id="Rectangle" x="0" y="0" width="28" height="28"></rect>
                                <path d="M5,6 L23,6 C23.5522847,6 24,6.44771525 24,7 L24,7 C24,7.55228475 23.5522847,8 23,8 L5,8 C4.44771525,8 4,7.55228475 4,7 L4,7 L4,7 C4,6.44771525 4.44771525,6 5,6 L5,6 Z M5,13 L23,13 C23.5522847,13 24,13.4477153 24,14 C24,14.5522847 23.5522847,15 23,15 L5,15 C4.44771525,15 4,14.5522847 4,14 C4,13.4477153 4.44771525,13 5,13 L5,13 Z M5,20 L23,20 C23.5522847,20 24,20.4477153 24,21 C24,21.5522847 23.5522847,22 23,22 L5,22 C4.44771525,22 4,21.5522847 4,21 C4,20.4477153 4.44771525,20 5,20 L5,20 Z" id="Combined-Shape" fill="#000000"></path>
                            </g>
                        </g>
                    </g>
                </g>
            </g>
        </g>
    </g>
</svg>