<?xml version="1.0" encoding="UTF-8"?>
<svg width="100%" height="100%" viewBox="0 0 24 24" version="1.1" xmlns="http://www.w3.org/2000/svg" xmlns:xlink="http://www.w3.org/1999/xlink">
    <!-- Generator: Sketch 47.1 (45422) - http://www.bohemiancoding.com/sketch -->
    <title>Media/Queue</title>
    <g id="Page-1" stroke="none" stroke-width="1" fill="none" fill-rule="evenodd">
        <g id="Group-7" transform="translate(-529.000000, -2384.000000)" fill-rule="nonzero" fill="currentcolor">
            <g id="Docs">
                <g id="Sidebar" transform="translate(480.000000, 85.000000)">
                    <g id="Media/Queue" transform="translate(47.000000, 2297.000000)">
                        <path d="M6,6 L22,6 C23.1045695,6 24,6.8954305 24,8 L24,10 C24,11.1045695 23.1045695,12 22,12 L6,12 C4.8954305,12 4,11.1045695 4,10 L4,8 C4,6.8954305 4.8954305,6 6,6 Z M6,8 L6,10 L22,10 L22,8 L6,8 Z M4,10 L24,10 C25.1045695,10 26,10.8954305 26,12 L26,24 C26,25.1045695 25.1045695,26 24,26 L4,26 C2.8954305,26 2,25.1045695 2,24 L2,12 C2,10.8954305 2.8954305,10 4,10 Z M4,12 L4,24 L24,24 L24,12 L4,12 Z M17.0279523,20.3936535 L19.6634521,18.0357194 L17.0279523,15.6777854 C16.6536246,15.27171 16.6793612,14.6390683 17.0854366,14.2647406 C17.491512,13.8904129 18.1241537,13.9161495 18.4984814,14.3222249 L21.7587714,17.3579392 C22.111752,17.740857 22.111752,18.3305819 21.7587714,18.7134997 L18.4984814,21.749214 C18.1241537,22.1552894 17.491512,22.181026 17.0854366,21.8066983 C16.6793612,21.4323706 16.6536246,20.7997289 17.0279523,20.3936535 Z M10.9955546,15.6777854 L8.36005471,18.0357194 L10.9955546,20.3936535 C11.3698823,20.7997289 11.3441457,21.4323706 10.9380703,21.8066983 C10.5319949,22.181026 9.8993532,22.1552894 9.52502551,21.749214 L6.26473546,18.7134997 C5.91175485,18.3305819 5.91175485,17.740857 6.26473546,17.3579392 L9.52502551,14.3222249 C9.8993532,13.9161495 10.5319949,13.8904129 10.9380703,14.2647406 C11.3441457,14.6390683 11.3698823,15.27171 10.9955546,15.6777854 Z M14,20 C12.8954305,20 12,19.1045695 12,18 C12,16.8954305 12.8954305,16 14,16 C15.1045695,16 16,16.8954305 16,18 C16,19.1045695 15.1045695,20 14,20 Z M8,2 L20,2 C21.1045695,2 22,2.8954305 22,4 L22,6 C22,7.1045695 21.1045695,8 20,8 L8,8 C6.8954305,8 6,7.1045695 6,6 L6,4 C6,2.8954305 6.8954305,2 8,2 Z M8,4 L8,6 L20,6 L20,4 L8,4 Z" id="Combined-Shape"></path>
                    </g>
                </g>
            </g>
        </g>
    </g>
</svg>
