<?xml version="1.0" encoding="UTF-8"?>
<svg width="100%" height="100%" viewBox="0 0 24 24" version="1.1" xmlns="http://www.w3.org/2000/svg" xmlns:xlink="http://www.w3.org/1999/xlink">
    <!-- Generator: Sketch 47.1 (45422) - http://www.bohemiancoding.com/sketch -->
    <title>System/Iteration</title>
    <desc>Created with Sketch.</desc>
    <g id="Page-1" stroke="none" stroke-width="1" fill="none" fill-rule="evenodd">
        <g id="Group-7" transform="translate(-530.000000, -1104.000000)" fill-rule="nonzero" fill="currentcolor">
            <g id="Docs">
                <g id="Sidebar" transform="translate(480.000000, 85.000000)">
                    <g id="System/Iteration" transform="translate(48.000000, 1017.000000)">
                        <path d="M15,13 L19,13 C19.5522847,13 20,13.4477153 20,14 C20,14.5522847 19.5522847,15 19,15 L15,15 L15,19 C15,19.5522847 14.5522847,20 14,20 C13.4477153,20 13,19.5522847 13,19 L13,15 L9,15 C8.44771525,15 8,14.5522847 8,14 C8,13.4477153 8.44771525,13 9,13 L13,13 L13,9 C13,8.44771525 13.4477153,8 14,8 C14.5522847,8 15,8.44771525 15,9 L15,13 Z M5.37296888,6.39586752 L3.74253563,6.80347583 C3.20674072,6.93742456 2.66380623,6.61166387 2.5298575,6.07586896 C2.39590877,5.54007405 2.72166947,4.99713956 3.25746437,4.86319083 L7.92413104,3.69652417 C8.55527777,3.53873749 9.16666667,4.01609551 9.16666667,4.66666667 L9.16666667,9.33333333 C9.16666667,9.88561808 8.71895142,10.3333333 8.16666667,10.3333333 C7.61438192,10.3333333 7.16666667,9.88561808 7.16666667,9.33333333 L7.16666667,7.40010062 C6.79088246,7.78946388 6.44933486,8.21043777 6.14534189,8.65846677 C4.31240243,11.3598781 3.97141567,14.8256357 5.32370804,17.8629341 C7.45714762,22.6547178 13.0711503,24.8097315 17.8629341,22.676292 C22.6547178,20.5428524 24.8097315,14.9288497 22.676292,10.1370659 C20.7481487,5.80638522 15.929704,3.57630825 11.4152265,4.85971451 C10.8839916,5.01073756 10.3309123,4.70251498 10.1798893,4.17128012 C10.0288662,3.64004525 10.3370888,3.08696593 10.8683237,2.93594288 C16.3368979,1.38129953 22.1690199,4.08052755 24.5033829,9.32359265 C27.0860913,15.1244508 24.4772655,21.9206744 18.6764073,24.5033829 C12.8755492,27.0860913 6.07932559,24.4772655 3.49661713,18.6764073 C1.8600745,15.0006724 2.27302899,10.8034415 4.4903445,7.5355315 C4.76050697,7.13736235 5.05524767,6.75673731 5.37296888,6.39586752 Z" id="Icon"></path>
                    </g>
                </g>
            </g>
        </g>
    </g>
</svg>
