<?xml version="1.0" encoding="UTF-8"?>
<svg width="100%" height="100%" viewBox="0 0 24 24" version="1.1" xmlns="http://www.w3.org/2000/svg" xmlns:xlink="http://www.w3.org/1999/xlink">
    <!-- Generator: Sketch 47.1 (45422) - http://www.bohemiancoding.com/sketch -->
    <title>System/Transfer</title>
    <desc>Created with Sketch.</desc>
    <g id="Page-1" stroke="none" stroke-width="1" fill="none" fill-rule="evenodd">
        <g id="Group-7" transform="translate(-529.000000, -1984.000000)" fill-rule="nonzero" fill="currentcolor">
            <g id="Docs">
                <g id="Sidebar" transform="translate(480.000000, 85.000000)">
                    <g id="System/Transfer" transform="translate(47.000000, 1897.000000)">
                        <path d="M22.3385506,13 L20.3414954,11.2525767 C19.9258588,10.8888946 19.8837413,10.257132 20.2474233,9.84149539 C20.6111054,9.42585876 21.242868,9.38374125 21.6585046,9.74742331 L25.6585046,13.2474233 C26.1138318,13.6458346 26.1138318,14.3541654 25.6585046,14.7525767 L21.6585046,18.2525767 C21.242868,18.6162587 20.6111054,18.5741412 20.2474233,18.1585046 C19.8837413,17.742868 19.9258588,17.1111054 20.3414954,16.7474233 L22.3385506,15 L18,15 L18,24 C18,25.1045695 17.1045695,26 16,26 L12,26 C10.8954305,26 10,25.1045695 10,24 L10,15 L9,15 C8.44771525,15 8,14.5522847 8,14 C8,13.4477153 8.44771525,13 9,13 L10,13 L10,4 C10,2.8954305 10.8954305,2 12,2 L16,2 C17.1045695,2 18,2.8954305 18,4 L18,13 L22.3385506,13 Z M12,4 L12,24 L16,24 L16,4 L12,4 Z M3,13 L5,13 C5.55228475,13 6,13.4477153 6,14 C6,14.5522847 5.55228475,15 5,15 L3,15 C2.44771525,15 2,14.5522847 2,14 C2,13.4477153 2.44771525,13 3,13 L3,13 Z" id="Combined-Shape"></path>
                    </g>
                </g>
            </g>
        </g>
    </g>
</svg>
