<?xml version="1.0" encoding="UTF-8"?>
<svg height="100%" width="100%" viewBox="0 0 48 48" version="1.1" xmlns="http://www.w3.org/2000/svg" xmlns:xlink="http://www.w3.org/1999/xlink">
    <!-- Generator: Sketch 47.1 (45422) - http://www.bohemiancoding.com/sketch -->
    <title>Sidebar/Assigned To Me</title>
    <desc>Created with Sketch.</desc>
    <defs></defs>
    <g id="Page-1" stroke="none" stroke-width="1" fill="none" fill-rule="evenodd">
        <g id="Group-7" transform="translate(-1113.000000, -684.000000)" fill-rule="nonzero" fill="currentcolor">
            <g id="Docs">
                <g id="Group-3" transform="translate(980.000000, 664.000000)">
                    <g id="Sidebar/Assigned-To-Me" transform="translate(133.000000, 20.000000)">
                        <path d="M9.15388168,30.1147284 C6.19690294,30.5359298 4,33.0679424 4,36.0547691 L4,41 C4,42.6568542 5.34314575,44 7,44 L41,44 C42.6568542,44 44,42.6568542 44,41 L44,36.0547691 C44,33.0679424 41.8030971,30.5359298 38.8461183,30.1147284 L31.8084514,29.1122607 C29.7096875,30.9124044 26.9818546,32 24,32 C21.0181454,32 18.2903125,30.9124044 16.1915486,29.1122607 L9.15388168,30.1147284 Z M8.5898028,26.1547012 L17.4207802,24.8967887 L18.7957174,26.0760945 C20.2368089,27.312142 22.0599175,28 24,28 C25.9400825,28 27.7631911,27.312142 29.2042826,26.0760945 L30.5792198,24.8967887 L39.4101972,26.1547012 C44.3384951,26.8567037 48,31.0767245 48,36.0547691 L48,41 C48,44.8659932 44.8659932,48 41,48 L7,48 C3.13400675,48 4.4408921e-16,44.8659932 0,41 L1.77635684e-15,36.0547691 C1.33226763e-15,31.0767245 3.66150491,26.8567037 8.5898028,26.1547012 Z M24,4 C19.581722,4 16,7.581722 16,12 L16,20 C16,24.418278 19.581722,28 24,28 C28.418278,28 32,24.418278 32,20 L32,12 C32,7.581722 28.418278,4 24,4 Z M24,1.77635684e-15 C30.627417,-1.77635684e-15 36,5.372583 36,12 L36,20 C36,26.627417 30.627417,32 24,32 C17.372583,32 12,26.627417 12,20 L12,12 C12,5.372583 17.372583,8.8817842e-16 24,1.77635684e-15 Z" id="Combined-Shape"></path>
                    </g>
                </g>
            </g>
        </g>
    </g>
</svg>
