<?xml version="1.0" encoding="UTF-8"?>
<svg width="100%" height="100%" viewBox="0 0 24 24" version="1.1" xmlns="http://www.w3.org/2000/svg" xmlns:xlink="http://www.w3.org/1999/xlink">
    <!-- Generator: Sketch 47.1 (45422) - http://www.bohemiancoding.com/sketch -->
    <title>System/Monitor</title>
    <desc>Created with Sketch.</desc>
    <g id="Page-1" stroke="none" stroke-width="1" fill="none" fill-rule="evenodd">
        <g id="Group-7" transform="translate(-530.000000, -785.000000)" fill-rule="nonzero" fill="currentcolor">
            <g id="Docs">
                <g id="Sidebar" transform="translate(480.000000, 85.000000)">
                    <g id="System/Add" transform="translate(48.000000, 698.000000)">
                        <g id="System/Monitor">
                            <path d="M13,24 L7,24 C6.44771525,24 6,24.4477153 6,25 C6,25.5522847 6.44771525,26 7,26 L21,26 C21.5522847,26 22,25.5522847 22,25 C22,24.4477153 21.5522847,24 21,24 L15,24 L15,20 L13,20 L13,24 Z M6,2 L22,2 C24.209139,2 26,3.790861 26,6 L26,16 C26,18.209139 24.209139,20 22,20 L6,20 C3.790861,20 2,18.209139 2,16 L2,6 C2,3.790861 3.790861,2 6,2 Z M6,4 C4.8954305,4 4,4.8954305 4,6 L4,16 C4,17.1045695 4.8954305,18 6,18 L22,18 C23.1045695,18 24,17.1045695 24,16 L24,6 C24,4.8954305 23.1045695,4 22,4 L6,4 Z M13,12 C12.4477153,12 12,11.5522847 12,11 C12,10.4477153 12.4477153,10 13,10 C13.5522847,10 14,10.4477153 14,11 C14,11.5522847 13.5522847,12 13,12 Z M9,8 C8.44771525,8 8,7.55228475 8,7 C8,6.44771525 8.44771525,6 9,6 C9.55228475,6 10,6.44771525 10,7 C10,7.55228475 9.55228475,8 9,8 Z M9,16 C8.44771525,16 8,15.5522847 8,15 C8,14.4477153 8.44771525,14 9,14 C9.55228475,14 10,14.4477153 10,15 C10,15.5522847 9.55228475,16 9,16 Z M17,12 C16.4477153,12 16,11.5522847 16,11 C16,10.4477153 16.4477153,10 17,10 C17.5522847,10 18,10.4477153 18,11 C18,11.5522847 17.5522847,12 17,12 Z M21,12 C20.4477153,12 20,11.5522847 20,11 C20,10.4477153 20.4477153,10 21,10 C21.5522847,10 22,10.4477153 22,11 C22,11.5522847 21.5522847,12 21,12 Z M9,12 C8.44771525,12 8,11.5522847 8,11 C8,10.4477153 8.44771525,10 9,10 C9.55228475,10 10,10.4477153 10,11 C10,11.5522847 9.55228475,12 9,12 Z" id="Combined-Shape"></path>
                        </g>
                    </g>
                </g>
            </g>
        </g>
    </g>
</svg>
