<svg xmlns="http://www.w3.org/2000/svg" viewBox="0 0 1200 500"><defs><style>.cls-1{fill:#dad0ea;}.cls-2{fill:#e9e2f2;}.cls-3{fill:#efe8f9;}.cls-4{fill:#eee8fb;}</style></defs><g id="Layer_7" data-name="Layer 7"><path class="cls-1" d="M0,375.91l29.14,77.36L299.41,347.41,427,501.1H0S1.51,374.38,0,375.91Z"/><polygon class="cls-1" points="0 68.53 40.19 158.1 259.22 1.36 0 1.36 0 68.53"/><path class="cls-1" d="M797.43,498.73l56.94-42.07,125.93-28.5,155.4,71.92S797.43,498.05,797.43,498.73Z"/><path class="cls-2" d="M997.71,1.1l201.62,494.23L1200,1.19S998.38,1.78,997.71,1.1Z"/><polygon class="cls-3" points="123.08 416.47 54.89 501.1 350.78 501.1 269.05 359.31 123.08 416.47"/><polygon class="cls-2" points="299.41 347.41 256.37 364.27 256.37 364.27 269.05 359.31 350.78 501.1 427.02 501.1 299.41 347.41"/><polygon class="cls-3" points="123.68 98.35 178.97 58.78 179.74 1.36 116.2 1.36 123.68 98.35"/><path class="cls-3" d="M90.18,1.36H0V68.53l21.22,47.3C34.65,93.09,79.57,18.87,90.18,1.36Z"/><path class="cls-4" d="M906.75,498.87l-52.38-42.21-56.94,42.07C797.43,498.47,846.23,498.6,906.75,498.87Z"/><path class="cls-2" d="M944.72,436.21l23.56,63c84,.42,167.42.92,167.42.92L980.3,428.16Z"/><path class="cls-1" d="M997.71,1.1l137.34,336.65-10.74-65.66-2-210.17-53.25-9.16-7.11-51.33C1026.44,1.43,998,1.36,997.71,1.1Z"/><path class="cls-3" d="M1179.57,236.47l20.06,34.93L1200,1.19l-34.09.09Z"/></g></svg>
