<svg xmlns="http://www.w3.org/2000/svg" xml:space="preserve" style="enable-background:new 0 0 1200 500" viewBox="0 0 1200 500">
  <path fill="#BCB5C7" d="m-1 375.9 29.1 77.4 270.3-105.9L426 501.1H-1S.5 374.4-1 375.9zM-1 66.5l40.2 89.6L258.2-.6H-1zM797.5 500.1l56.8-42.2 125.9-28.8 155.6 71.5c0 .1-338.3-1.1-338.3-.5z"/>
  <path fill="#DEDAE3" d="m998.7.2 201.6 494.1.7-494S999.4.9 998.7.2z"/>
  <path fill="#E8DDEA" d="m122.1 416.5-68.2 84.6h295.9L268 359.3z"/>
  <path fill="#DEDAE3" d="m298.4 347.4-43 16.9 12.6-5 81.8 141.8H426z"/>
  <path fill="#E8DDEA" d="M122.7 96.3 178 56.8l.7-57.4h-63.5zM89.2-.6H-1v67.2l21.2 47.3c13.5-22.8 58.4-97 69-114.5z"/>
  <path fill="#DDCCDF" d="m906.8 500-52.5-42.1-56.8 42.2c0-.2 48.8-.2 109.3-.1z"/>
  <path fill="#DEDAE3" d="m944.7 437.3 23.7 62.9c84 .2 167.4.5 167.4.5l-155.6-71.6-35.5 8.2z"/>
  <path fill="#BCB5C7" d="M998.7.2 1136 336.8l-10.7-65.6-2-210.1-53.2-9.2L1063 .5c-35.6 0-64-.1-64.3-.3z"/>
  <path fill="#E8DDEA" d="m1180.6 235.5 20.1 34.9.3-270.1-34.1.1 13.7 235.1z"/>
</svg>
