<?xml version="1.0" encoding="utf-8"?>
<!-- Generator: Adobe Illustrator 26.5.0, SVG Export Plug-In . SVG Version: 6.00 Build 0)  -->
<svg version="1.1" id="Layer_1" xmlns="http://www.w3.org/2000/svg" xmlns:xlink="http://www.w3.org/1999/xlink" x="0px" y="0px"
	 viewBox="0 0 1200 500" style="enable-background:new 0 0 1200 500;" xml:space="preserve">
<style type="text/css">
	.st0{fill:#BCB5C7;}
	.st1{fill:#DEDAE3;}
	.st2{fill:#E8DDEA;}
	.st3{fill:#DDCCDF;}
</style>
<g id="Layer_7">
	<path class="st0" d="M-1,375.9l29.1,77.4l270.3-105.9L426,501.1H-1C-1,501.1,0.5,374.4-1,375.9z"/>
	<polygon class="st0" points="-1,66.5 39.2,156.1 258.2,-0.6 -1,-0.6 	"/>
	<path class="st0" d="M797.5,500.1l56.8-42.2l125.9-28.8l155.6,71.5C1135.8,500.7,797.5,499.5,797.5,500.1z"/>
	<path class="st1" d="M998.7,0.2l201.6,494.1L1201,0.3C1201,0.3,999.4,0.9,998.7,0.2z"/>
	<polygon class="st2" points="122.1,416.5 53.9,501.1 349.8,501.1 268,359.3 	"/>
	<polygon class="st1" points="298.4,347.4 255.4,364.3 255.4,364.3 268,359.3 349.8,501.1 426,501.1 	"/>
	<polygon class="st2" points="122.7,96.3 178,56.8 178.7,-0.6 115.2,-0.6 	"/>
	<path class="st2" d="M89.2-0.6H-1v67.2l21.2,47.3C33.7,91.1,78.6,16.9,89.2-0.6z"/>
	<path class="st3" d="M906.8,500l-52.5-42.1l-56.8,42.2C797.5,499.9,846.3,499.9,906.8,500z"/>
	<path class="st1" d="M944.7,437.3l23.7,62.9c84,0.2,167.4,0.5,167.4,0.5l-155.6-71.6L944.7,437.3z"/>
	<path class="st0" d="M998.7,0.2l137.3,336.6l-10.7-65.6l-2-210.1l-53.2-9.2L1063,0.5C1027.4,0.5,999,0.4,998.7,0.2z"/>
	<path class="st2" d="M1180.6,235.5l20.1,34.9L1201,0.3l-34.1,0.1L1180.6,235.5z"/>
</g>
</svg>
