<svg width="16" height="16" viewBox="0 0 16 16" fill="none" xmlns="http://www.w3.org/2000/svg">
<path d="M2.14645 4.14645C2.34171 3.95118 2.65829 3.95118 2.85355 4.14645L6.85355 8.14645C7.04882 8.34171 7.04882 8.65829 6.85355 8.85355L2.85355 12.8536C2.65829 13.0488 2.34171 13.0488 2.14645 12.8536C1.95118 12.6583 1.95118 12.3417 2.14645 12.1464L5.79289 8.5L2.14645 4.85355C1.95118 4.65829 1.95118 4.34171 2.14645 4.14645Z" fill="#302E36" style="fill:#302E36;fill:color(display-p3 0.1882 0.1804 0.2118);fill-opacity:1;"/>
<path d="M7.5 12C7.22386 12 7 12.2239 7 12.5C7 12.7761 7.22386 13 7.5 13H13.5C13.7761 13 14 12.7761 14 12.5C14 12.2239 13.7761 12 13.5 12H7.5Z" fill="#302E36" style="fill:#302E36;fill:color(display-p3 0.1882 0.1804 0.2118);fill-opacity:1;"/>
<path fill-rule="evenodd" clip-rule="evenodd" d="M0 2.5C0 1.11929 1.11929 0 2.5 0H13.5C14.8807 0 16 1.11929 16 2.5V13.5C16 14.8807 14.8807 16 13.5 16H2.5C1.11929 16 0 14.8807 0 13.5V2.5ZM2.5 1C1.67157 1 1 1.67157 1 2.5V13.5C1 14.3284 1.67157 15 2.5 15H13.5C14.3284 15 15 14.3284 15 13.5V2.5C15 1.67157 14.3284 1 13.5 1H2.5Z" fill="#302E36" style="fill:#302E36;fill:color(display-p3 0.1882 0.1804 0.2118);fill-opacity:1;"/>
</svg>
