<svg width="16" height="16" viewBox="0 0 16 16" fill="none" xmlns="http://www.w3.org/2000/svg">
<path d="M8.34961 0.109375C8.13086 -0.0364583 7.86914 -0.0364583 7.65039 0.109375L0.900391 4.60938C0.654297 4.77344 0.5 5.04688 0.5 5.34375V10.6562C0.5 10.9531 0.654297 11.2266 0.900391 11.3906L7.65039 15.8906C7.76172 15.9635 7.88086 16 8 16C8.11914 16 8.23828 15.9635 8.34961 15.8906L15.0996 11.3906C15.3457 11.2266 15.5 10.9531 15.5 10.6562V5.34375C15.5 5.04688 15.3457 4.77344 15.0996 4.60938L8.34961 0.109375ZM8 1.60938L13.4004 5.20312L8 8.79688L2.59961 5.20312L8 1.60938ZM2 6.46875L7.25 9.96875V14.2188L2 10.7188V6.46875ZM8.75 14.2188V9.96875L14 6.46875V10.7188L8.75 14.2188Z" fill="#302E36" style="fill:#302E36;fill:color(display-p3 0.1882 0.1804 0.2118);fill-opacity:1;"/>
</svg>
