<svg width="16" height="16" viewBox="0 0 16 16" fill="none" xmlns="http://www.w3.org/2000/svg">
<g clip-path="url(#clip0_1_2171)">
<path d="M8 0C12.4183 0 16 3.58172 16 8C16 12.4183 12.4183 16 8 16C3.58172 16 0 12.4183 0 8C1.77176e-07 3.58172 3.58172 1.7717e-07 8 0ZM8 1.5C4.41015 1.5 1.5 4.41015 1.5 8C1.5 11.5899 4.41015 14.5 8 14.5C11.5899 14.5 14.5 11.5899 14.5 8C14.5 4.41015 11.5899 1.5 8 1.5ZM11.0342 4.03125C11.2985 3.95197 11.5852 4.02463 11.7803 4.21973C11.9754 4.41483 12.048 4.70154 11.9688 4.96582L10.4688 9.96582C10.3963 10.2072 10.2072 10.3963 9.96582 10.4688L4.96582 11.9688C4.70154 12.048 4.41483 11.9754 4.21973 11.7803C4.02463 11.5852 3.95197 11.2985 4.03125 11.0342L5.53125 6.03418C5.60372 5.79284 5.79284 5.60372 6.03418 5.53125L11.0342 4.03125ZM6.85254 6.85254L5.86914 10.1299L9.14648 9.14648L10.1299 5.86914L6.85254 6.85254Z" fill="#302E36" style="fill:#302E36;fill:color(display-p3 0.1882 0.1804 0.2118);fill-opacity:1;"/>
</g>
<defs>
<clipPath id="clip0_1_2171">
<rect width="16" height="16" fill="white" style="fill:white;fill-opacity:1;"/>
</clipPath>
</defs>
</svg>
