<svg width="16" height="16" viewBox="0 0 16 16" fill="none" xmlns="http://www.w3.org/2000/svg">
<g clip-path="url(#clip0_1_2273)">
<path d="M7.99901 0.25C8.21404 0.249787 8.41899 0.341935 8.56151 0.50293C9.6887 1.77804 11.2083 3.70119 12.6074 5.82324C13.9655 7.8832 15.2375 10.1746 15.9131 12.2656C15.955 12.3357 15.9864 12.4135 16.0039 12.4971C16.0763 12.8447 15.8948 13.1959 15.5693 13.3379C13.3839 14.2912 11.1324 15 7.99998 15C4.8681 15 2.6146 14.2943 0.432602 13.3457C0.157306 13.226 -0.0203511 12.9535 -0.0185699 12.6533C-0.0177826 12.526 0.0173189 12.4049 0.0761566 12.2979C0.749021 10.203 2.0276 7.9014 3.39256 5.83105C4.79154 3.70913 6.31086 1.78347 7.43748 0.503906L7.49315 0.447266C7.63051 0.321318 7.81075 0.250248 7.99901 0.25ZM13.6474 10.6562C12.05 11.1903 10.0985 11.5 7.99998 11.5C5.90265 11.5 3.94724 11.1911 2.35252 10.6572C2.0968 11.1963 1.86869 11.7258 1.68065 12.2402C3.5263 12.9877 5.43364 13.5 7.99998 13.5C10.5649 13.5 12.4697 12.9863 14.3174 12.2354C14.1299 11.7218 13.902 11.1939 13.6474 10.6562ZM7.99998 5.5C5.92023 5.50013 4.02114 6.99814 3.12401 9.3291C4.03417 9.60745 5.08327 9.80906 6.22264 9.91504C6.08111 9.64068 5.99998 9.32998 5.99998 9C5.99998 7.89544 6.89542 7.00001 7.99998 7C9.10455 7 9.99998 7.89543 9.99998 9C9.99998 9.33015 9.91802 9.64058 9.77635 9.91504C10.9156 9.80889 11.9647 9.6069 12.8769 9.32812C11.978 6.998 10.0795 5.50012 7.99998 5.5ZM8.00096 2.15234C7.49387 2.75664 6.93099 3.46183 6.35155 4.23438C6.87665 4.08216 7.42822 4.00003 7.99998 4C8.57354 4.00002 9.12668 4.08221 9.65331 4.23535C9.07275 3.46176 8.50893 2.756 8.00096 2.15234Z" fill="#302E36" style="fill:#302E36;fill:color(display-p3 0.1882 0.1804 0.2118);fill-opacity:1;"/>
</g>
<defs>
<clipPath id="clip0_1_2273">
<rect width="16" height="16" fill="white" style="fill:white;fill-opacity:1;"/>
</clipPath>
</defs>
</svg>
