
<svg id="Layer_1" data-name="Layer 1" xmlns="http://www.w3.org/2000/svg" width="327.2536" height="200.7454" viewBox="0 0 327.2536 200.7454">
  <defs>
    <style>
      .cls-1 {
        fill: #f6f6f8;
      }

      .cls-2 {
        fill: #f58452;
      }

      .cls-3 {
        fill: #ebb432;
      }

      .cls-4 {
        fill: #fca9cb;
      }

      .cls-5 {
        fill: #dca8e5;
      }

      .cls-6 {
        fill: #e1557a;
      }

      .cls-7 {
        fill: #3f2b56;
      }
    </style>
  </defs>
  <g id="Browser">
    <circle id="Circle" class="cls-4" cx="168.1002" cy="100.6148" r="96.3437"/>
    <g>
      <g>
        <path class="cls-1" d="m72.158,53.4346l26.4379,110.3273c.3184,1.3289,1.6569,2.1454,2.9842,1.8205l148.701-36.4008c1.311-.3209,2.1204-1.6363,1.816-2.9513l-24.6478-106.4682c-.3596-1.5532-1.8996-2.53-3.4579-2.1932L74.3784,49.9038c-1.5995.3457-2.6018,1.9394-2.2204,3.5308Z"/>
        <path class="cls-7" d="m100.9888,166.1542c-.5391,0-1.0684-.1475-1.54-.4355-.6777-.4136-1.1533-1.0674-1.3389-1.8398l-26.4385-110.3276v-.0005c-.2158-.9014-.0625-1.8306.4307-2.6152.4941-.7847,1.2646-1.3247,2.1709-1.5205L223.8863,17.08c1.8115-.394,3.6309.7603,4.0508,2.5693l24.6475,106.4683c.3643,1.5732-.6152,3.166-2.1846,3.5498l-148.7002,36.4009c-.2363.0576-.4746.0859-.7109.0859Zm-28.3447-112.8364l26.4385,110.3276c.123.5122.4375.9453.8877,1.2197.4492.2749.9785.3589,1.4912.2314l148.7002-36.4009c1.04-.2544,1.6904-1.3096,1.4482-2.3525l-24.6475-106.4683c-.2969-1.2788-1.583-2.0913-2.8652-1.8174L74.484,50.3925c-.6406.1387-1.1855.5205-1.5352,1.0752-.3496.5552-.457,1.2124-.3047,1.8501h0Z"/>
      </g>
      <polygon class="cls-7" points="72.1651 53.0465 78.0353 77.8003 232.3964 42.3629 227.1669 18.6292 224.5737 17.4661 73.1185 50.2626 72.1651 53.0465"/>
      <ellipse class="cls-6" cx="90.5914" cy="60.4789" rx="4.8596" ry="5.1258"/>
      <ellipse class="cls-3" cx="107.1992" cy="56.4651" rx="4.8596" ry="5.1258"/>
      <ellipse class="cls-2" cx="124.5554" cy="52.418" rx="4.8596" ry="5.1258"/>
      <g>
        <path class="cls-7" d="m170.9096,117.2803l-16.1892-12.9729c.9776-2.0182,1.5413-4.274,1.5413-6.667,0-8.4691-6.8656-15.3348-15.3348-15.3348s-15.3348,6.8657-15.3348,15.3348,6.8656,15.3348,15.3348,15.3348c3.5707,0,6.8479-1.2308,9.4541-3.2772l16.046,12.8511c.6512.5532,1.4469.8241,2.24.8241.9781,0,1.9522-.4134,2.6358-1.2179,1.2375-1.455,1.0619-3.6376-.3931-4.8751Zm-29.9827-10.387c-5.1103,0-9.2528-4.1427-9.2528-9.2529s4.1425-9.2529,9.2528-9.2529,9.2528,4.1427,9.2528,9.2529-4.1425,9.2529-9.2528,9.2529Z"/>
        <path class="cls-7" d="m140.897,113.5063c-8.6895,0-15.7588-7.1128-15.7588-15.8555s7.0693-15.855,15.7588-15.855,15.7598,7.1123,15.7598,15.855-7.0693,15.8555-15.7598,15.8555Zm0-30.7104c-8.1377,0-14.7588,6.6641-14.7588,14.855s6.6211,14.8555,14.7588,14.8555,14.7598-6.6641,14.7598-14.8555-6.6211-14.855-14.7598-14.855Z"/>
      </g>
      <path class="cls-6" d="m67.067,42.2411c-.124,0-.2471-.0454-.3438-.1372l-26.8672-25.4897c-.2012-.1899-.209-.5068-.0186-.707.1904-.2007.5078-.2075.7061-.0186l26.8672,25.4897c.2012.1899.209.5068.0186.707-.0977.1035-.2305.1558-.3623.1558Z"/>
      <path class="cls-6" d="m63.7808,47.5702c-.0586,0-.1182-.0103-.1768-.0322l-20.916-7.9048c-.2588-.0977-.3887-.3862-.291-.6445.0967-.2578.3838-.3901.6445-.291l20.916,7.9048c.2588.0977.3887.3862.291.6445-.0752.2002-.2656.3232-.4678.3232Z"/>
      <path class="cls-6" d="m72.7955,39.9321c-.1953,0-.3799-.1147-.4609-.3057l-8.9258-21.1826c-.1074-.2549.0127-.5479.2666-.6553.252-.105.5469.0117.6553.2666l8.9258,21.1826c.1074.2549-.0127.5479-.2666.6553-.0635.0264-.1289.0391-.1943.0391Z"/>
      <g>
        <g>
          <path class="cls-5" d="m325.6858,45.0718c-2.6201-4.0412-7.8935-6.5612-7.8935-6.5612l-12.9711,8.4879-.7842-.4945c2.7998-2.4539,7.0649-5.8601,10.8244-9.2368-1.6653-2.1094-5.4401-1.5764-5.4401-1.5764l-13.0779,11.6903.0292.0156-8.8442,7.345-1.0659-6.7499-7.4604-3.9079-3.7303,4.6185,5.6843,2.6644s.0889,5.018-2.3981,8.1266c-.133,6.4392,4.3521,9.2812,4.3521,9.2812l-6.9275,42.6314-35.6372-36.9805,3.1306,11.9346,34.2829,40.4998,6.2171-1.5987,14.7434-60.3944,11.7124-8.0711,13.9884-3.264.2664-4.4963-13.4222,3.5637c4.0599-2.1941,12.693-6.437,14.4214-7.5271Z"/>
          <path class="cls-7" d="m277.7593,127.3598c-.1445,0-.2852-.063-.3818-.1768l-34.2832-40.5c-.0479-.0571-.083-.124-.1016-.1963l-3.1309-11.9346c-.0576-.2202.04-.4517.2383-.563.1992-.1104.4482-.0747.6055.0889l34.9443,36.2612,6.7158-41.3359c-1.0166-.7593-4.4268-3.7412-4.3076-9.5205.002-.1099.041-.2163.1094-.3022,2.0039-2.5039,2.2549-6.3853,2.2852-7.498l-5.3926-2.5278c-.1396-.0649-.2412-.1904-.2754-.3403s.002-.3071.0986-.4263l3.7305-4.6182c.1504-.187.4102-.2383.6211-.1289l7.46,3.9077c.1396.0732.2363.2085.2617.3647l.9287,5.8818,8.0342-6.6724c.0234-.0425.0537-.0815.0908-.1147l13.0781-11.6899c.0732-.0659.165-.1089.2627-.1226.167-.0229,4.0811-.5454,5.9033,1.7612.1631.207.1377.5059-.0586.6821-2.2256,1.999-4.6533,4.0293-6.7949,5.8203-1.1426.9561-2.2227,1.8589-3.1777,2.6782l12.2959-8.0454c.1455-.0952.332-.1069.4893-.0327.2207.1055,5.4307,2.6279,8.0977,6.7402.0723.1123.0967.2485.0684.3794-.0283.1304-.1084.2441-.2217.3154-.9961.6289-4.165,2.2446-7.5186,3.9556-.9941.5068-2.002,1.0205-2.9648,1.5151l9.0898-2.4136c.1553-.0396.3213-.0049.4443.0962.124.1016.1924.2568.1826.417l-.2666,4.4966c-.0127.2207-.1699.4067-.3857.457l-13.8955,3.2422-11.4785,7.9097-14.6982,60.2095c-.043.1792-.1826.3198-.3604.3657l-6.2168,1.5986c-.042.0103-.084.0156-.125.0156Zm-33.8281-41.2363l34.0068,40.1738,5.623-1.4458,14.6729-60.1035c.0283-.1191.1006-.2236.2012-.293l11.7129-8.0713c.0518-.0356.1094-.061.1709-.0752l13.625-3.1792.2031-3.4336-12.7549,3.3867c-.2441.064-.5-.0645-.5928-.2993-.0938-.2354.0039-.5034.2275-.624,1.7695-.9565,4.4043-2.3003,6.9521-3.6001,2.9258-1.4922,5.71-2.9116,6.9941-3.645-2.2539-3.1484-6.1338-5.2998-7.1484-5.8267l-12.7305,8.3296c-.1631.1069-.375.1084-.54.0044l-.7842-.4946c-.1338-.084-.2197-.2266-.2314-.3838-.0127-.1572.0498-.311.1689-.415,1.1494-1.0073,2.5449-2.1753,4.0518-3.4355,2.0146-1.6846,4.2812-3.5806,6.3896-5.4585-1.3975-1.2715-3.8896-1.1226-4.5137-1.064l-12.832,11.4707c-.0273.0532-.0635.1011-.1113.1406l-8.8438,7.3452c-.1377.1143-.3271.1455-.4961.083-.168-.0635-.2891-.2124-.3174-.3896l-1.0273-6.502-6.874-3.6006-3.0713,3.8027,5.1064,2.394c.1729.0811.2842.2529.2881.4438.0039.209.0605,5.0947-2.4014,8.3105-.0479,5.9458,3.9512,8.5742,4.123,8.6841.168.1074.2568.3052.2246.502l-6.9268,42.6313c-.0303.187-.1631.3408-.3438.397-.1797.0571-.3789.0063-.5098-.1299l-34.3076-35.6006,2.6162,9.9712Z"/>
        </g>
        <g>
          <polyline class="cls-5" points="291.17 65.8879 290.5927 59.4044 305.2472 52.5656"/>
          <path class="cls-7" d="m291.1685,66.3881c-.2559,0-.4736-.1958-.4971-.4556l-.5771-6.4839c-.0186-.2095.0957-.4087.2861-.4976l14.6553-6.8389c.251-.1157.5479-.0088.665.2417.1172.25.0088.5479-.2412.6646l-14.3379,6.6904.5459,6.1348c.0244.2754-.1787.5181-.4541.5425-.0146.0015-.0293.002-.0449.002Z"/>
        </g>
        <g>
          <line class="cls-5" x1="308.0671" y1="49.7013" x2="321.6891" y2="41.6413"/>
          <path class="cls-7" d="m308.067,50.2011c-.1709,0-.3369-.0874-.4307-.2456-.1406-.2373-.0615-.5439.1758-.6846l13.6221-8.0596c.2363-.1416.5439-.063.6855.1758.1406.2373.0615.5439-.1758.6846l-13.6221,8.0596c-.0801.0474-.168.0698-.2549.0698Z"/>
        </g>
      </g>
      <g>
        <g>
          <path class="cls-5" d="m3.5597,69.0635c3.0284-3.7449,8.5365-5.6996,8.5365-5.6996l12.0121,9.7981.8316-.4097c-2.5278-2.7333-6.4132-6.567-9.7988-10.3184,1.8768-1.9236,5.5752-.9987,5.5752-.9987l11.7833,12.9941-.0307.0124,8.0274,8.2299,1.7661-6.6014,7.8282-3.1061,3.2267,4.9833-5.9318,2.0552s-.6133,4.9812,1.5349,8.3329c-.5412,6.4178-5.299,8.775-5.299,8.775l2.4302,43.1222,39.1555-31.8577,1.6431,8.282-44.1817,38.759-6.0158-2.2403-8.3451-61.6053-10.8039-9.252-13.5703-4.7093.2053-4.4995,12.9758,4.9482c-3.8082-2.6068-11.9501-7.7294-13.5549-8.9943Z"/>
          <path class="cls-7" d="m42.6685,155.9159c-.0586,0-.1182-.0103-.1748-.0312l-6.0156-2.2402c-.1729-.0645-.2959-.2188-.3203-.4019l-8.3203-61.4165-10.5869-9.0664-13.4814-4.6782c-.209-.0723-.3457-.2739-.335-.4951l.2061-4.4995c.0068-.1602.0908-.3071.2246-.395.1357-.0884.3037-.106.4521-.0493l8.7871,3.3506c-.9053-.5913-1.8516-1.207-2.7861-1.814-3.1582-2.0537-6.1416-3.9932-7.0674-4.7231-.1055-.0825-.1729-.2041-.1875-.3369s.0244-.2661.1084-.3701c3.0811-3.8105,8.5273-5.7749,8.7578-5.8564.1631-.0596.3467-.0273.4834.084l11.3857,9.2881c-.8643-.9146-1.8418-1.9243-2.8779-2.9941-1.9434-2.0059-4.1455-4.2798-6.1504-6.5015-.1768-.1958-.1709-.4951.0137-.6841,2.0537-2.106,5.8906-1.1758,6.0537-1.1348.0957.0239.1826.0757.249.1489l11.7832,12.9941c.0361.0396.0645.084.0859.1313l7.2852,7.4683,1.5381-5.752c.041-.1523.1523-.2769.2988-.3354l7.8281-3.106c.2227-.0884.4746-.0068.6045.1929l3.2266,4.9829c.083.1294.1025.2896.0527.4346-.0498.1455-.1641.2598-.3086.3101l-5.6279,1.9497c-.085,1.1104-.2393,5.0015,1.4883,7.6958.0596.0928.0869.2026.0771.312-.4854,5.7603-4.1885,8.3691-5.2803,9.0176l2.3574,41.832,38.3965-31.2397c.1357-.1104.3174-.1426.4854-.0825.165.0596.2861.2007.3203.373l1.6426,8.2822c.0352.1748-.0264.3555-.1602.4731l-44.1816,38.7588c-.0928.0811-.2109.124-.3301.124Zm-5.5605-3.104l5.4551,2.0312,43.7402-38.3716-1.4248-7.1846-38.5117,31.3335c-.1455.1187-.3438.1455-.5176.0698-.1719-.0762-.2861-.2417-.2969-.4292l-2.4297-43.1226c-.0117-.1992.0977-.3867.2764-.4761.1826-.0913,4.4346-2.2866,5.0088-8.2046-2.1123-3.4561-1.5439-8.3091-1.5186-8.5166.0234-.1895.1523-.3491.332-.4116l5.3291-1.8462-2.6572-4.103-7.2129,2.8618-1.7002,6.3584c-.0469.1733-.1826.3091-.3564.3545-.1758.0454-.3594-.0059-.4854-.1348l-8.0273-8.2295c-.0459-.0474-.0811-.1025-.1055-.1621l-11.5518-12.7397c-.6143-.1245-3.0762-.5327-4.6006.5864,1.9014,2.0884,3.958,4.2124,5.7852,6.0991,1.3662,1.4102,2.6309,2.7163,3.6689,3.8384.1074.1157.1533.2754.124.4307-.0283.1553-.1289.2876-.2705.3574l-.832.4097c-.1758.0869-.3838.063-.5371-.0615l-11.7871-9.6157c-1.0645.4185-5.1484,2.1523-7.7188,5.0474,1.2012.8643,3.8223,2.5684,6.5771,4.3599,2.3975,1.5581,4.875,3.1689,6.5342,4.3047.209.1431.2783.4199.1611.6445-.1182.2246-.3877.3252-.6211.2354l-12.3301-4.7021-.1572,3.436,13.2178,4.5869c.0586.0205.1133.0518.1611.0923l10.8037,9.252c.0928.0801.1543.1914.1699.313l8.3057,61.3086Z"/>
        </g>
        <g>
          <polyline class="cls-5" points="35.7088 93.3758 36.9611 86.9883 23.1024 78.6541"/>
          <path class="cls-7" d="m35.7095,93.8759c-.0322,0-.0645-.0029-.0977-.0093-.2705-.0532-.4473-.3159-.3936-.5869l1.1846-6.0435-13.5586-8.1533c-.2363-.1426-.3135-.4497-.1709-.6865.1426-.2363.4512-.311.6865-.1709l13.8594,8.334c.1807.1089.2734.3184.2324.5249l-1.2529,6.3877c-.0459.2388-.2559.4038-.4893.4038Z"/>
        </g>
        <g>
          <line class="cls-5" x1="20.5976" y1="75.5106" x2="7.8933" y2="66.0699"/>
          <path class="cls-7" d="m20.5972,76.0107c-.1045,0-.209-.0322-.2979-.0986l-12.7041-9.4409c-.2217-.1646-.2686-.478-.1035-.6997.166-.2217.4814-.2656.6992-.103l12.7041,9.4409c.2217.1646.2686.478.1035.6997-.0986.1318-.249.2017-.4014.2017Z"/>
        </g>
      </g>
      <g>
        <polyline class="cls-5" points="184.1575 195.7001 157.3252 152.0499 148.1994 154.4479 169.3083 197.0843"/>
        <path class="cls-7" d="m169.3082,197.5844c-.1836,0-.3613-.1021-.4482-.2783l-21.1084-42.6362c-.0664-.1343-.0693-.292-.0068-.4287s.1826-.2383.3281-.2764l9.125-2.3984c.2129-.0571.4375.0337.5527.2217l26.833,43.6504c.1445.2354.0713.543-.1641.6875-.2324.145-.542.0718-.6875-.1641l-26.6387-43.334-8.1738,2.1479,20.8369,42.0869c.1221.2471.0215.5474-.2266.6699-.0713.0352-.1465.0518-.2217.0518Z"/>
      </g>
      <g>
        <polyline class="cls-5" points="230.9753 173.8097 199.6235 141.7251 190.4311 144.1231 220.3996 181.6059"/>
        <path class="cls-7" d="m220.4,182.1059c-.1465,0-.292-.0645-.3906-.188l-29.9688-37.4829c-.1055-.1318-.1377-.3091-.084-.4697s.1846-.2832.3486-.3262l9.1924-2.3979c.1748-.0439.3594.0068.4834.1343l31.3516,32.0845c.1934.1978.1895.5142-.0078.707-.1982.1938-.5146.1899-.707-.0078l-31.1484-31.877-8.167,2.1304,29.4883,36.8813c.1719.2153.1377.5303-.0781.7026-.0928.0737-.2031.1094-.3125.1094Z"/>
      </g>
    </g>
  </g>
</svg>