<svg width="64" height="63" fill="none" xmlns="http://www.w3.org/2000/svg">
  <path d="M63.208 0H0v62.818h63.208V0z" fill="#333"/>
  <path d="M47.081 40.206a20.51 20.51 0 01-2.054 3.643 17.178 17.178 0 01-2.623 3.14 5.135 5.135 0 01-3.35 1.477 8.324 8.324 0 01-3.16-.754 9.533 9.533 0 00-3.288-.722 9.533 9.533 0 00-3.444.722c-.94.425-1.944.69-2.971.786a4.798 4.798 0 01-3.445-1.508 20.008 20.008 0 01-2.75-3.141 22.565 22.565 0 01-2.875-5.716 20.458 20.458 0 01-1.106-6.848 12.5 12.5 0 011.517-6.596 9.798 9.798 0 013.444-3.455 9.525 9.525 0 014.52-1.319c1.241.072 2.46.36 3.603.848.921.387 1.887.662 2.875.817a16.41 16.41 0 003.16-.974 10.773 10.773 0 014.299-.754 9.243 9.243 0 014.023 1.042 9.18 9.18 0 013.151 2.696 8.23 8.23 0 00-2.833 2.588 8.152 8.152 0 00-.904 7.384 8.195 8.195 0 002.125 3.188 8.441 8.441 0 002.623 1.728l-.663 1.728h.126zm-7.3-28.52a7.858 7.858 0 01-2.086 5.245 7.037 7.037 0 01-2.58 2.166 7.083 7.083 0 01-3.299.724 5.51 5.51 0 010-.722 8.539 8.539 0 011.42-4.325 8.612 8.612 0 013.447-2.994 8.51 8.51 0 013.16-.848v.754h-.062z" fill="#fff"/>
</svg>
