<svg width="64" height="63" fill="none" xmlns="http://www.w3.org/2000/svg">
  <path d="M63.208 0H0v62.818h63.208V0z" fill="#4D337F"/>
  <path d="M31.389 48.906a18.192 18.192 0 01-9.035-2.516 18.049 18.049 0 01-6.555-6.672 17.911 17.911 0 01-2.315-9.037c.04-3.162.918-6.257 2.545-8.975a14.24 14.24 0 015.879-5.842 18.392 18.392 0 0111.935-2.42 18.336 18.336 0 0110.82 5.56l5.246-5.213a25.811 25.811 0 00-14.694-7.54 25.894 25.894 0 00-16.278 2.891 21.615 21.615 0 00-9.987 9.894 25.251 25.251 0 00.68 24.886 25.463 25.463 0 009.254 9 25.658 25.658 0 0012.505 3.334 25.419 25.419 0 0010.02-2.069 25.285 25.285 0 008.373-5.846l-5.246-5.214a17.725 17.725 0 01-5.958 4.273 17.822 17.822 0 01-7.19 1.506z" fill="#fff"/>
  <path d="M57.802 30.134v-3.14h-3.16v-3.142h-3.16v3.141H48.32v-3.14h-3.16v3.14H42v3.141h3.16v3.14H42v3.142h3.16v3.14h3.16v-3.14h3.161v3.14h3.16v-3.14h3.16v-3.141h-3.16v-3.141h3.16zm-6.32 3.14H48.32v-3.14h3.16v3.14z" fill="#fff"/>
</svg>
