<svg width="64" height="63" fill="none" xmlns="http://www.w3.org/2000/svg">
  <path d="M63.208 0H0v62.818h63.208V0z" fill="#333"/>
  <path d="M29 38.18l.885 3.581h3.16l.885-3.58a8.808 8.808 0 00-2.465-.409 8.808 8.808 0 00-2.465.409zM35.05 32.803a3.775 3.775 0 01-1.49 1.755 3.811 3.811 0 01-2.24.57 3.811 3.811 0 01-2.238-.57 3.776 3.776 0 01-1.49-1.755 4.012 4.012 0 00-1.782 1.31 3.975 3.975 0 00-.81 2.05c0 .786.316 1.037.853 1.037a43.796 43.796 0 015.468-1.036c1.843.23 3.669.575 5.467 1.036.538 0 .854-.251.854-1.036a3.975 3.975 0 00-.81-2.05 4.012 4.012 0 00-1.782-1.311zM20.442 27.735a2.226 2.226 0 01-.442 0 4.747 4.747 0 002.415 1.438 4.77 4.77 0 002.81-.177 4.736 4.736 0 002.213-1.73 4.69 4.69 0 000-5.344 4.736 4.736 0 00-2.213-1.729 4.769 4.769 0 00-2.81-.177A4.747 4.747 0 0020 21.453c.147-.014.295-.014.442 0a3.172 3.172 0 012.065.724c.58.478.968 1.146 1.096 1.883a1.236 1.236 0 00-.831.38 1.22 1.22 0 00-.338.845 1.282 1.282 0 00.695 1.13 3.176 3.176 0 01-2.686 1.32zM39.54 19.883A4.765 4.765 0 0036 21.485c.147-.015.295-.015.443 0a3.172 3.172 0 012.064.723c.58.478.968 1.146 1.096 1.884a1.236 1.236 0 00-.831.38 1.22 1.22 0 00-.338.845 1.282 1.282 0 00.695 1.13c-.283.438-.67.8-1.128 1.052a3.175 3.175 0 01-1.495.393 2.226 2.226 0 01-.443 0 4.745 4.745 0 001.96 1.195 4.77 4.77 0 004.383-.812 4.714 4.714 0 001.395-1.816 4.684 4.684 0 00-.367-4.416 4.728 4.728 0 00-1.676-1.564 4.763 4.763 0 00-2.218-.596z" fill="#FEFEFE"/>
  <path d="M56.537 18.797c0-2.082-.832-4.08-2.314-5.552a7.926 7.926 0 00-5.587-2.3 7.847 7.847 0 00-3.538.819 7.795 7.795 0 00-2.782 2.322 22.037 22.037 0 00-11.125-3.012c-3.912 0-7.753 1.04-11.125 3.012a7.795 7.795 0 00-2.782-2.322 7.847 7.847 0 00-3.538-.82 7.93 7.93 0 00-4.831 1.76 7.846 7.846 0 00-2.717 4.344 7.808 7.808 0 00.55 5.084 7.874 7.874 0 003.584 3.67 22.05 22.05 0 00-1.2 7.13v15.704c0 .833.332 1.632.925 2.22a3.17 3.17 0 002.235.92h37.924a3.17 3.17 0 002.235-.92c.593-.588.926-1.387.926-2.22V32.93a22.053 22.053 0 00-1.201-7.13 7.883 7.883 0 003.179-2.888 7.816 7.816 0 001.182-4.116zm-44.94 4.115a4.76 4.76 0 01-1.794-1.726 4.72 4.72 0 01-.671-2.389 4.69 4.69 0 01.816-2.724 4.736 4.736 0 012.244-1.761 4.768 4.768 0 012.856-.159c.945.24 1.793.766 2.427 1.503a22.012 22.012 0 00-5.878 7.256zm5.435 2.167c0-1.243.371-2.457 1.066-3.49a6.312 6.312 0 012.836-2.314 6.356 6.356 0 016.889 1.362 6.27 6.27 0 011.73 3.216 6.246 6.246 0 01-.36 3.63 6.29 6.29 0 01-2.328 2.819 6.349 6.349 0 01-7.981-.781 6.262 6.262 0 01-1.852-4.442zM36.722 39.4a6.039 6.039 0 01-1.454-.22l-.854 3.55-.316 1.193h-5.657l-.347-1.193-.854-3.518a6.039 6.039 0 01-1.453.22 2.385 2.385 0 01-1.815-.752 2.353 2.353 0 01-.619-1.855 5.729 5.729 0 011.283-3.194 5.787 5.787 0 012.889-1.894 3.84 3.84 0 011.511-1.707 3.874 3.874 0 012.218-.555 3.874 3.874 0 012.218.555 3.839 3.839 0 011.511 1.707 5.786 5.786 0 012.88 1.881 5.729 5.729 0 011.292 3.175 2.341 2.341 0 01-.619 1.855 2.37 2.37 0 01-1.814.752zm2.433-8.04a6.341 6.341 0 01-4.47-1.84 6.254 6.254 0 01-.786-7.932 6.312 6.312 0 012.837-2.314 6.357 6.357 0 013.652-.357 6.333 6.333 0 013.236 1.719 6.27 6.27 0 011.73 3.216 6.246 6.246 0 01-.36 3.63 6.29 6.29 0 01-2.327 2.819 6.349 6.349 0 01-3.512 1.059zm11.757-8.45a22.015 22.015 0 00-5.879-7.16 4.765 4.765 0 017.328.022 4.7 4.7 0 01.974 3.91 4.697 4.697 0 01-.847 1.885 4.734 4.734 0 01-1.576 1.344z" fill="#FEFEFE"/>
</svg>
