<svg width="64" height="63" fill="none" xmlns="http://www.w3.org/2000/svg">
  <path d="M63.208 0H0v62.818h63.208V0z" fill="#C00"/>
  <path d="M18.654 24.966l3.634-4.177a2.667 2.667 0 00.75-2.448 2.663 2.663 0 00-.583-1.186 2.686 2.686 0 00-1.083-.764l-1.675-.816a2.718 2.718 0 01-1.067-.774 2.695 2.695 0 01-.52-2.493c.127-.426.357-.814.67-1.13L22.446 7M37.654 24.966l3.634-4.177a2.667 2.667 0 00.75-2.448 2.663 2.663 0 00-.583-1.186 2.686 2.686 0 00-1.083-.764l-1.675-.816a2.718 2.718 0 01-1.067-.774 2.695 2.695 0 01-.52-2.493c.127-.426.357-.814.67-1.13L41.446 7" stroke="#fff" stroke-width="3.16" stroke-linecap="round" stroke-linejoin="round"/>
  <path d="M52.245 30H8c.005 3.799 1 7.532 2.89 10.834a22.05 22.05 0 007.887 8.011H12.74c-.42 0-.822.166-1.118.46a1.566 1.566 0 000 2.221c.296.295.699.46 1.118.46h1.58l.695 1.414c.265.523.672.961 1.174 1.267a3.175 3.175 0 001.67.46h24.525a3.175 3.175 0 001.67-.46c.502-.306.91-.744 1.174-1.267l.696-1.414h1.58c.419 0 .82-.165 1.117-.46a1.566 1.566 0 000-2.22 1.585 1.585 0 00-1.117-.46h-6.068a22.449 22.449 0 006.826-6.282h3.982a6.34 6.34 0 004.47-1.84 6.262 6.262 0 001.851-4.442 6.262 6.262 0 00-1.851-4.442 6.34 6.34 0 00-4.47-1.84zm0 9.423h-2.149a22.292 22.292 0 001.897-6.282h.252c.839 0 1.642.33 2.235.92a3.131 3.131 0 010 4.442 3.17 3.17 0 01-2.235.92z" fill="#fff"/>
  <path d="M28.654 24.966l3.634-4.177a2.667 2.667 0 00.75-2.448 2.663 2.663 0 00-.583-1.186 2.686 2.686 0 00-1.083-.764l-1.675-.816a2.718 2.718 0 01-1.067-.774 2.695 2.695 0 01-.52-2.493c.127-.426.357-.814.67-1.13L32.446 7" stroke="#fff" stroke-width="3.16" stroke-linecap="round" stroke-linejoin="round"/>
</svg>
