<svg width="64" height="63" fill="none" xmlns="http://www.w3.org/2000/svg">
  <path d="M63.208 0H0v62.818h63.208V0z" fill="#F7DF1E"/>
  <path d="M34.34 38.495a1.588 1.588 0 012.022.408 6.31 6.31 0 002.352 1.992c.937.46 1.975.683 3.02.647 2.592 0 4.236-1.288 4.236-3.141s-1.707-2.859-4.551-4.084l-1.549-.66c-4.488-1.915-7.458-4.302-7.458-9.422a8.217 8.217 0 01.718-3.334 8.263 8.263 0 012.012-2.761 8.324 8.324 0 012.963-1.72 8.36 8.36 0 013.409-.383c1.49-.06 2.974.24 4.322.875a9.216 9.216 0 013.42 2.769 1.63 1.63 0 01-.347 2.355l-2.212 1.414a1.557 1.557 0 01-2.055-.345 3.88 3.88 0 00-1.4-1.128 3.908 3.908 0 00-1.76-.38 2.734 2.734 0 00-2.076.686 2.7 2.7 0 00-.895 1.984c0 1.853 1.138 2.607 3.824 3.737l1.549.66c5.31 2.261 8.28 4.554 8.28 9.737 0 5.182-4.393 8.637-10.303 8.637a12.33 12.33 0 01-5.966-1.08 12.249 12.249 0 01-4.716-3.788 1.599 1.599 0 01.02-1.853c.13-.178.295-.328.486-.44l2.654-1.382zm-20.701.471a1.557 1.557 0 012.117.503c.315.561.773 1.03 1.328 1.361.554.33 1.186.511 1.833.523 2.054 0 3.16-.785 3.16-3.926V17.765c.008-.414.177-.809.472-1.102.294-.293.692-.46 1.108-.468h3.16c.414.008.808.177 1.098.47.29.294.451.689.451 1.1V37.52a8.4 8.4 0 01-.397 3.785 8.442 8.442 0 01-2.028 3.227 8.509 8.509 0 01-3.248 2.016 8.55 8.55 0 01-3.808.395 9.88 9.88 0 01-4.872-.999 9.81 9.81 0 01-3.756-3.241 1.596 1.596 0 01.506-2.23l2.876-1.508z" fill="#333"/>
</svg>
