<svg width="63" height="63" fill="none" xmlns="http://www.w3.org/2000/svg">
  <path fill="#FF2D20" d="M0 0h63v63H0z"/>
  <path d="M51.892 21.544c.014.05.02.102.02.154v8.106a.588.588 0 01-.298.513l-6.846 3.917V42a.592.592 0 01-.297.512l-14.29 8.176c-.034.019-.07.03-.105.043-.013.005-.026.013-.04.016a.6.6 0 01-.305 0c-.016-.004-.031-.013-.047-.019-.032-.012-.067-.022-.098-.04L15.3 42.511A.594.594 0 0115 42v-24.32a.6.6 0 01.02-.154c.005-.017.016-.033.022-.05.01-.031.021-.063.037-.092.012-.019.028-.034.041-.052.018-.024.033-.048.053-.069.017-.017.04-.03.059-.044.022-.018.04-.037.065-.051h.001l7.144-4.088a.598.598 0 01.595 0l7.144 4.088h.002c.023.015.043.033.065.05.02.015.04.028.058.044.02.022.036.046.053.07.013.018.03.033.04.052.018.03.027.06.04.092.005.017.016.032.02.05.014.05.02.103.02.155v15.19l5.954-3.408v-7.765c0-.051.007-.104.02-.153.006-.018.016-.034.022-.05.011-.032.022-.063.038-.092.011-.02.028-.035.04-.053.018-.023.033-.048.054-.068.017-.017.039-.03.058-.045.022-.017.042-.037.065-.05h.001l7.145-4.089a.599.599 0 01.595 0l7.144 4.088c.025.015.044.034.067.05.018.015.04.029.057.045.02.021.036.046.053.07.014.017.03.033.04.052.018.029.027.06.04.091.006.017.016.033.02.05zm-1.17 7.918v-6.74l-2.5 1.43-3.454 1.976v6.741l5.955-3.407h-.001zm-7.144 12.195V34.91L40.18 36.84l-9.7 5.503v6.81l13.098-7.495zM16.19 18.703v22.954l13.097 7.494v-6.808l-6.842-3.849-.002-.001-.003-.002c-.023-.013-.043-.032-.064-.048-.019-.015-.04-.027-.057-.043l-.001-.002c-.02-.019-.033-.042-.05-.062-.014-.02-.032-.037-.044-.058v-.002c-.014-.022-.022-.049-.032-.074-.01-.022-.022-.043-.028-.067-.008-.028-.009-.058-.012-.087-.003-.022-.009-.044-.009-.066V22.11l-3.453-1.977-2.5-1.43zm6.55-4.429l-5.953 3.406 5.95 3.405 5.953-3.406-5.952-3.405h.001zm3.095 21.252l3.453-1.976V18.703l-2.5 1.43-3.454 1.977v14.847l2.5-1.431zm18.337-17.233l-5.951 3.405 5.951 3.405 5.951-3.406-5.95-3.404zm-.595 7.835l-3.454-1.976-2.5-1.43v6.74l3.453 1.976 2.5 1.431v-6.741zM29.883 41.319l8.73-4.953 4.363-2.475-5.947-3.403-6.847 3.918-6.241 3.57 5.942 3.343z" fill="#fff"/>
</svg>
