<svg width="64" height="63" fill="none" xmlns="http://www.w3.org/2000/svg">
  <path d="M63.208 0H0v62.818h63.208V0z" fill="#65BF36"/>
  <path fill-rule="evenodd" clip-rule="evenodd" d="M50.925 24.718a1.985 1.985 0 00-1.043-1.759l-16.908-9.674a1.652 1.652 0 00-1.012-.283 1.65 1.65 0 00-.916.283L14.01 22.959a2.017 2.017 0 00-1.01 1.759v25.975a1 1 0 00.5.877 1.016 1.016 0 001.016.002l10.05-5.716a2.018 2.018 0 001.075-1.696V31.848a2.032 2.032 0 011.01-1.76l4.299-2.324a2.16 2.16 0 012.023 0l4.298 2.45a2.048 2.048 0 011.011 1.634v12.186a2.032 2.032 0 001.011 1.76l10.05 5.841a1.049 1.049 0 001.043 0 .978.978 0 00.538-.942V24.718z" fill="#fff"/>
</svg>
