<svg width="64" height="63" fill="none" xmlns="http://www.w3.org/2000/svg">
  <path d="M63.208 0H0v62.818h63.208V0z" fill="#696EAF"/>
  <path d="M10.982 23.008h7.522c.9-.046 1.798.114 2.625.468a5.875 5.875 0 012.147 1.573 6.26 6.26 0 01.98 5.057 8.975 8.975 0 01-.885 2.89 8.226 8.226 0 01-1.77 2.544 6.14 6.14 0 01-3.16 1.822c-1.036.243-2.096.37-3.16.377h-3.35l-1.044 5.12H7l3.982-19.851zm3.16 3.14l-1.548 8.324h.727a15.039 15.039 0 004.456-.534c1.2-.377 2.022-1.727 2.433-4.052.411-2.324 0-3.14-1.01-3.33a11.858 11.858 0 00-3.73-.407h-1.201M28.919 18h3.856l-.98 5.277h3.445a7.016 7.016 0 014.234 1.162c.949.754 1.233 2.136.854 4.209L38.4 37.882h-3.856l1.802-8.826a2.469 2.469 0 000-1.947 2.343 2.343 0 00-1.928-.597h-3.16l-2.34 11.37H25L28.919 18zM44.014 23.016h7.49a5.975 5.975 0 012.619.396 5.944 5.944 0 012.185 1.489 6.262 6.262 0 01.98 5.056 9.82 9.82 0 01-.886 2.89 8.229 8.229 0 01-1.77 2.544 6.327 6.327 0 01-3.002 1.822c-1.088.253-2.201.38-3.318.377h-3.35l-1.075 5.277H40l4.014-19.851zm3.16 3.14l-1.58 8.324h.727a15.257 15.257 0 004.488-.534c1.2-.377 1.99-1.727 2.401-4.051.411-2.325 0-3.141-1.01-3.33a11.543 11.543 0 00-3.699-.408h-1.106" fill="#fff"/>
</svg>
