<svg width="64" height="63" fill="none" xmlns="http://www.w3.org/2000/svg">
  <path d="M63.208 0H0v62.818h63.208V0z" fill="#3B88BC"/>
  <path d="M24.962 6a6.34 6.34 0 00-4.47 1.84 6.262 6.262 0 00-1.85 4.442v3.14h14.221c.42 0 .821.166 1.118.46a1.566 1.566 0 010 2.222c-.297.294-.699.46-1.118.46H15.481a9.511 9.511 0 00-6.704 2.76A9.393 9.393 0 006 27.985v3.141c0 2.5.999 4.896 2.777 6.663a9.511 9.511 0 006.704 2.76v-6.282c0-1.666.666-3.264 1.851-4.442a6.34 6.34 0 014.47-1.84h15.802a3.17 3.17 0 002.235-.92c.592-.589.925-1.387.925-2.22V12.282a6.262 6.262 0 00-1.851-4.442A6.34 6.34 0 0034.443 6h-9.48zm0 6.282c-.312 0-.618-.092-.878-.265a1.574 1.574 0 01-.672-1.612 1.583 1.583 0 012.155-1.145c.289.12.535.32.71.579a1.563 1.563 0 01-.197 1.983c-.297.294-.699.46-1.118.46z" fill="#fff"/>
  <path d="M37.802 56.55a6.34 6.34 0 004.47-1.84 6.262 6.262 0 001.85-4.442v-3.14H29.902c-.42 0-.821-.166-1.117-.46a1.565 1.565 0 010-2.222c.296-.294.698-.46 1.117-.46h17.382a9.511 9.511 0 006.704-2.76 9.394 9.394 0 002.777-6.662v-3.141a9.394 9.394 0 00-2.777-6.663A9.511 9.511 0 0047.283 22v6.282a6.262 6.262 0 01-1.851 4.442 6.34 6.34 0 01-4.47 1.84H25.16a3.17 3.17 0 00-2.234.92 3.131 3.131 0 00-.926 2.22v12.564c0 1.666.666 3.264 1.851 4.442a6.34 6.34 0 004.47 1.84h9.48zm0-6.282a1.587 1.587 0 011.46.97 1.561 1.561 0 01-.343 1.711 1.583 1.583 0 01-1.722.34 1.564 1.564 0 01-.513-2.561c.297-.294.699-.46 1.118-.46z" fill="#fff"/>
</svg>
