<svg width="64" height="63" fill="none" xmlns="http://www.w3.org/2000/svg">
  <path d="M63.208 0H0v62.818h63.208V0z" fill="#333"/>
  <path d="M56.566 31.59c0-3.737-3.571-7.035-9.165-9.265.885-5.905-.221-10.648-3.477-12.564a6.669 6.669 0 00-3.16-.816 16.325 16.325 0 00-9.481 4.114 16.326 16.326 0 00-9.481-4.052 6.669 6.669 0 00-3.16.817c-3.16 1.853-4.362 6.596-3.477 12.564C9.571 24.555 6 27.853 6 31.59c0 3.738 3.571 7.036 9.165 9.423-.885 5.905.221 10.648 3.477 12.564.968.53 2.054.81 3.16.817a16.326 16.326 0 009.481-4.115 16.326 16.326 0 009.481 4.115 6.669 6.669 0 003.16-.817c3.16-1.853 4.362-6.596 3.477-12.564 5.594-2.387 9.165-5.685 9.165-9.422zM40.764 12.148c.586-.02 1.166.12 1.675.409 1.707.973 2.592 4.208 2.023 8.763A45.685 45.685 0 0038.14 20a45.393 45.393 0 00-4.424-4.742 13.06 13.06 0 017.047-3.11zm2.18 23.432c.38 1.099.664 2.167.917 3.14-1.037.33-2.092.603-3.16.817.41-.66.853-1.288 1.264-2.01.41-.723.537-1.288.885-1.947h.095zm-3.823.44a48.774 48.774 0 01-2.781 4.208 49.89 49.89 0 01-4.962.251 49.89 49.89 0 01-4.962-.251c-1-1.354-1.928-2.76-2.781-4.209a65.299 65.299 0 01-2.276-4.397 45.667 45.667 0 012.276-4.46 44.363 44.363 0 012.781-4.209c3.3-.335 6.624-.335 9.924 0a48.79 48.79 0 012.78 4.209 45.654 45.654 0 012.181 4.428c-.537 1.445-1.422 2.922-2.275 4.43h.095zm-7.838 9.862a40.106 40.106 0 01-2.276-2.325h4.552a40.106 40.106 0 01-2.276 2.325zm-10.46-8.292c.41.722.852 1.35 1.263 2.01a29.516 29.516 0 01-3.16-.817c.253-1.036.537-2.104.917-3.14.22.596.568 1.287.98 1.947zm-1.139-9.957c-.379-1.13-.663-2.199-.916-3.14a31.986 31.986 0 013.16-.818c-.41.66-.853 1.288-1.264 2.01-.41.723-.632 1.257-.98 1.948zm11.599-10.334a40.106 40.106 0 012.276 2.325h-4.552a40.106 40.106 0 012.276-2.325zm10.46 8.292c-.41-.722-.852-1.35-1.263-2.01 1.162.209 2.312.481 3.445.817-.253 1.036-.538 2.104-.917 3.14-.474-.596-.853-1.256-1.264-1.947zM20.223 12.557a3.176 3.176 0 011.58-.409 13.058 13.058 0 016.953 3.141 45.386 45.386 0 00-4.172 4.712c-2.136.29-4.248.73-6.32 1.319-.633-4.555.378-7.79 1.959-8.763zM9.16 31.59c0-1.947 2.37-4.334 6.637-6.124a39.814 39.814 0 002.054 6.124 39.806 39.806 0 00-2.054 6.282c-4.266-1.947-6.637-4.334-6.637-6.282zm12.642 19.443a3.177 3.177 0 01-1.675-.409c-1.643-.942-2.434-3.8-2.118-7.663v-1.1a45.717 45.717 0 006.321 1.32 45.412 45.412 0 004.52 4.742 13.06 13.06 0 01-7.048 3.11zm22.565-8.072c.316 3.863-.474 6.721-2.117 7.663-.51.288-1.09.43-1.675.409a13.058 13.058 0 01-6.953-3.141 45.375 45.375 0 004.266-4.743 45.717 45.717 0 006.321-1.32c.126.41.253.786.253 1.132h-.095zm2.402-5.089a39.816 39.816 0 00-2.054-6.282 39.803 39.803 0 002.054-6.124c4.266 1.79 6.637 4.177 6.637 6.124 0 1.948-2.37 4.335-6.637 6.282z" fill="#00D8FF"/>
  <path d="M31.16 34.11a3.15 3.15 0 003.16-3.142 3.15 3.15 0 00-3.16-3.14 3.15 3.15 0 00-3.16 3.14 3.15 3.15 0 003.16 3.141z" fill="#00D8FF"/>
</svg>
