<svg width="64" height="63" fill="none" xmlns="http://www.w3.org/2000/svg">
  <path d="M63.208 0H0v62.818h63.208V0z" fill="#333"/>
  <path d="M56.566 31.646c0-3.738-3.571-7.036-9.165-9.266.885-5.905-.221-10.647-3.477-12.563A6.669 6.669 0 0040.764 9a16.325 16.325 0 00-9.481 4.115 16.326 16.326 0 00-9.481-4.052 6.67 6.67 0 00-3.16.816c-3.16 1.854-4.362 6.596-3.477 12.564C9.571 24.61 6 27.908 6 31.646c0 3.738 3.571 7.036 9.165 9.423-.885 5.905.221 10.647 3.477 12.563.968.53 2.054.81 3.16.817a16.325 16.325 0 009.481-4.115 16.325 16.325 0 009.481 4.115 6.669 6.669 0 003.16-.817c3.16-1.853 4.362-6.596 3.477-12.563 5.594-2.387 9.165-5.685 9.165-9.423zM40.764 12.204c.586-.021 1.166.12 1.675.408 1.707.974 2.592 4.209 2.023 8.763a45.7 45.7 0 00-6.321-1.319 45.403 45.403 0 00-4.424-4.743 13.06 13.06 0 017.047-3.11zm2.18 23.431c.38 1.1.664 2.167.917 3.14-1.037.331-2.092.604-3.16.818.41-.66.853-1.288 1.264-2.01.41-.723.537-1.288.885-1.948h.095zm-3.823.44a48.79 48.79 0 01-2.781 4.208 49.92 49.92 0 01-4.962.252 49.92 49.92 0 01-4.962-.252c-1-1.354-1.928-2.759-2.781-4.208a65.324 65.324 0 01-2.276-4.398 45.678 45.678 0 012.276-4.46 44.374 44.374 0 012.781-4.208 49.12 49.12 0 019.924 0c.999 1.354 1.927 2.759 2.78 4.208a45.656 45.656 0 012.181 4.429c-.537 1.445-1.422 2.921-2.275 4.429h.095zm-7.838 9.862a40.17 40.17 0 01-2.276-2.324h4.552a40.17 40.17 0 01-2.276 2.324zm-10.46-8.292c.41.723.852 1.35 1.263 2.01a29.491 29.491 0 01-3.16-.816c.253-1.037.537-2.105.917-3.141.22.596.568 1.288.98 1.947zm-1.139-9.957c-.379-1.13-.663-2.198-.916-3.14a31.986 31.986 0 013.16-.817c-.41.66-.853 1.288-1.264 2.01-.41.723-.632 1.256-.98 1.947zm11.599-10.333a40.137 40.137 0 012.276 2.324h-4.552a40.137 40.137 0 012.276-2.324zm10.46 8.292c-.41-.723-.852-1.35-1.263-2.01 1.162.208 2.312.48 3.445.816-.253 1.037-.538 2.105-.917 3.141-.474-.597-.853-1.256-1.264-1.947zM20.223 12.612a3.175 3.175 0 011.58-.408 13.059 13.059 0 016.953 3.14 45.396 45.396 0 00-4.172 4.712c-2.136.29-4.248.731-6.32 1.32-.633-4.555.378-7.79 1.959-8.764zM9.16 31.646c0-1.947 2.37-4.335 6.637-6.125a39.815 39.815 0 002.054 6.125 39.804 39.804 0 00-2.054 6.282c-4.266-1.947-6.637-4.335-6.637-6.282zm12.642 19.442a3.177 3.177 0 01-1.675-.408c-1.643-.942-2.434-3.8-2.118-7.664v-1.1a45.732 45.732 0 006.321 1.32 45.422 45.422 0 004.52 4.743 13.06 13.06 0 01-7.048 3.11zm22.565-8.072c.316 3.863-.474 6.722-2.117 7.664-.51.288-1.09.43-1.675.408a13.058 13.058 0 01-6.953-3.14 45.374 45.374 0 004.266-4.743 45.732 45.732 0 006.321-1.32c.126.409.253.786.253 1.131h-.095zm2.402-5.088a39.815 39.815 0 00-2.054-6.282 39.805 39.805 0 002.054-6.125c4.266 1.79 6.637 4.178 6.637 6.125s-2.37 4.334-6.637 6.282z" fill="#00D8FF"/>
  <path d="M31.16 34.282a3.15 3.15 0 003.16-3.141A3.15 3.15 0 0031.16 28 3.15 3.15 0 0028 31.14a3.15 3.15 0 003.16 3.142z" fill="#00D8FF"/>
</svg>
