<svg xmlns="http://www.w3.org/2000/svg" width="54" height="50" viewBox="0 0 54 50" fill="none">
  <path d="M30 10.1275C29.6884 9.61039 29.2484 9.1826 28.7228 8.88563C28.1972 8.58867 27.6037 8.43262 27 8.43262C26.3963 8.43262 25.8028 8.58867 25.2771 8.88563C24.7515 9.1826 24.3116 9.61039 24 10.1275L19.065 18.58C22.8351 20.4623 26.0473 23.298 28.3826 26.8056C30.718 30.3131 32.0951 34.3706 32.3775 38.575H28.9125C28.6307 34.971 27.4127 31.5031 25.379 28.5144C23.3453 25.5257 20.5665 23.1199 17.3175 21.535L12.75 29.4325C14.5765 30.2516 16.1677 31.5169 17.3774 33.1118C18.587 34.7068 19.3762 36.5803 19.6725 38.56H11.715C11.6206 38.5533 11.5294 38.5233 11.4495 38.4725C11.3697 38.4218 11.3037 38.352 11.2576 38.2694C11.2114 38.1868 11.1866 38.094 11.1853 37.9994C11.1839 37.9048 11.2062 37.8113 11.25 37.7275L13.455 33.9775C12.7079 33.3542 11.8541 32.8714 10.935 32.5525L8.75248 36.3025C8.52527 36.6922 8.37776 37.1232 8.31854 37.5704C8.25931 38.0176 8.28954 38.4721 8.40747 38.9076C8.5254 39.343 8.72867 39.7507 9.00549 40.1069C9.28231 40.4631 9.62715 40.7607 10.02 40.9825C10.5375 41.2741 11.1209 41.429 11.715 41.4325H22.6125C22.8149 38.935 22.3689 36.4276 21.3177 34.1532C20.2665 31.8787 18.6458 29.9142 16.6125 28.45L18.345 25.45C20.9111 27.2124 22.9732 29.6135 24.3279 32.4163C25.6826 35.2192 26.2831 38.3268 26.07 41.4325H35.3025C35.5175 36.7277 34.494 32.0489 32.3342 27.8637C30.1744 23.6784 26.9541 20.1332 22.995 17.5825L26.4975 11.5825C26.5755 11.4517 26.7021 11.3571 26.8495 11.3192C26.997 11.2812 27.1535 11.3031 27.285 11.38C27.6825 11.5975 42.5025 37.4575 42.78 37.7575C42.8289 37.8451 42.8537 37.9442 42.8521 38.0445C42.8504 38.1449 42.8223 38.243 42.7705 38.329C42.7188 38.415 42.6453 38.4858 42.5574 38.5343C42.4695 38.5827 42.3703 38.6071 42.27 38.605H38.7C38.745 39.56 38.745 40.5125 38.7 41.4625H42.285C42.7402 41.4655 43.1915 41.3781 43.6128 41.2055C44.034 41.0329 44.4168 40.7785 44.7391 40.4569C45.0613 40.1354 45.3166 39.7531 45.4901 39.3322C45.6637 38.9113 45.752 38.4602 45.75 38.005C45.7504 37.4037 45.5899 36.8133 45.285 36.295L30 10.1275Z" fill="#1F1633"/>
</svg>
