<svg xmlns="http://www.w3.org/2000/svg" width="400" height="119" viewBox="0 0 222 66"><path fill="#241c2c" d="M40 13.26a4.67 4.67 0 00-8 0l-6.58 11.27a32.21 32.21 0 0117.75 26.66h-4.62a27.68 27.68 0 00-15.46-22.72L17 39a15.92 15.92 0 019.23 12.17H15.62a.76.76 0 01-.62-1.11l2.94-5a10.74 10.74 0 00-3.36-1.9l-2.91 5a4.54 4.54 0 001.69 6.24 4.66 4.66 0 002.26.6h14.53a19.4 19.4 0 00-8-17.31l2.31-4A23.87 23.87 0 0134.76 55h12.31a35.88 35.88 0 00-16.41-31.8l4.67-8a.77.77 0 011.05-.27c.53.29 20.29 34.77 20.66 35.17a.76.76 0 01-.68 1.13H51.6q.09 1.91 0 3.81h4.78A4.59 4.59 0 0061 50.43a4.49 4.49 0 00-.62-2.28zm95.32 26.02l-14.76-19.06h-3.68v25.55h3.73V26.19l15.18 19.58h3.26V20.22h-3.73zm-37.17-4.74h13.23v-3.32H98.14v-7.69h14.93v-3.32H94.34v25.56h18.92v-3.32H98.14zM82.59 31.3C77.44 30.06 76 29.08 76 26.7c0-2.14 1.89-3.59 4.71-3.59a12.06 12.06 0 017.07 2.55l2-2.83a14.1 14.1 0 00-9-3c-5.06 0-8.59 3-8.59 7.27 0 4.6 3 6.19 8.46 7.52 4.86 1.12 6.35 2.16 6.35 4.49s-2 3.77-5.09 3.77a12.34 12.34 0 01-8.3-3.26l-2.25 2.69a15.94 15.94 0 0010.42 3.85c5.48 0 9-2.95 9-7.51-.03-3.86-2.31-5.93-8.19-7.35zM206.7 20.22l-7.69 12-7.64-12h-4.46L197 35.67v10.11h3.84V35.55L211 20.22zm-64.63 3.46h8.37v22.1h3.84v-22.1h8.37v-3.46h-20.57zm38.34 12.12c3.86-1.07 6-3.77 6-7.63 0-4.91-3.59-8-9.38-8h-11.36v25.59h3.8v-9.18h6.45l6.48 9.2h4.44l-7-9.82zm-10.95-2.5v-9.7h7.17c3.74 0 5.88 1.77 5.88 4.84s-2.29 4.86-5.84 4.86z"/></svg>