<svg width="63" height="63" fill="none" xmlns="http://www.w3.org/2000/svg">
  <path fill="#F5763A" d="M0 0h63v63H0z"/>
  <path d="M37.336 6.674c20.93 14.147 14.16 29.747 14.16 29.747s5.952 6.68 3.546 12.52c0 0-2.455-4.09-6.571-4.09-3.968 0-6.3 4.09-14.284 4.09C16.407 48.941 8 34.18 8 34.18c16.02 10.474 26.956 3.056 26.956 3.056-7.217-4.165-22.567-24.079-22.567-24.079 13.367 11.312 19.145 14.295 19.145 14.295-3.447-2.835-13.119-16.686-13.119-16.686 7.737 7.788 23.112 18.657 23.112 18.657 4.365-12.027-4.19-22.748-4.19-22.748z" fill="#fff"/>
</svg>
