<svg width="63" height="63" fill="none" xmlns="http://www.w3.org/2000/svg">
  <path fill="#1A171B" d="M0 0h63v63H0z"/>
  <path d="M47.432 10.68c-3.256.113-6.097 1.896-8.213 4.363-2.342 2.705-3.9 5.913-5.023 9.188-2.008-1.636-3.558-3.754-6.78-4.677-2.49-.711-5.106-.417-7.512 1.364-1.14.846-1.924 2.125-2.298 3.327-.966 3.124 1.016 5.904 1.917 6.902l1.969 2.097c.406.411 1.383 1.484.906 3.022-.517 1.672-2.545 2.755-4.626 2.117-.929-.282-2.264-.97-1.965-1.939.124-.396.409-.692.562-1.035.14-.294.207-.515.25-.645.38-1.233-.14-2.838-1.469-3.245-1.24-.378-2.509-.079-3 1.508-.559 1.803.31 5.075 4.96 6.5 5.448 1.664 10.056-1.284 10.71-5.13.412-2.408-.683-4.197-2.687-6.498L23.5 26.103c-.99-.982-1.33-2.656-.306-3.943.864-1.085 2.095-1.549 4.11-1.004 2.942.794 4.254 2.823 6.442 4.459-.904 2.945-1.494 5.901-2.029 8.552l-.325 1.976c-1.564 8.154-2.758 12.63-5.861 15.201-.625.442-1.519 1.103-2.866 1.15-.706.021-.934-.462-.944-.672-.017-.492.401-.718.679-.94.414-.225 1.041-.597.999-1.792-.045-1.411-1.222-2.635-2.922-2.579-1.274.043-3.215 1.234-3.142 3.415.076 2.252 2.188 3.94 5.373 3.834 1.702-.058 5.504-.747 9.25-5.173 4.361-5.074 5.58-10.891 6.498-15.149l1.024-5.62c.569.068 1.177.113 1.839.128 5.431.114 8.148-2.681 8.188-4.715.027-1.23-.813-2.442-1.988-2.414-.841.023-1.898.58-2.152 1.736-.247 1.134 1.729 2.158.184 3.152-1.097.706-3.064 1.203-5.834.799l.504-2.767c1.028-5.246 2.296-11.7 7.106-11.857.35-.018 1.633.016 1.663.859.008.281-.062.353-.393.998-.338.502-.465.93-.45 1.422.047 1.34 1.072 2.22 2.554 2.167 1.985-.064 2.556-1.985 2.523-2.97-.08-2.318-2.538-3.782-5.792-3.676z" fill="#fff"/>
</svg>
