<svg version="1.1" xmlns="http://www.w3.org/2000/svg" viewBox="0 0 1071.046875 507.42999629748056" width="1071.046875" height="507.42999629748056">
  <!-- svg-source:excalidraw -->
  
  <defs>
    <style class="style-fonts">
      @font-face {
        font-family: "Virgil";
        src: url("https://excalidraw.com/Virgil.woff2");
      }
      @font-face {
        font-family: "Cascadia";
        src: url("https://excalidraw.com/Cascadia.woff2");
      }
    </style>
  </defs>
  <rect x="0" y="0" width="1071.046875" height="507.42999629748056" fill="#ffffff"></rect><g stroke-linecap="round" transform="translate(291.5 222.30078125) rotate(0 94.5 34)"><path d="M17 0 M17 0 C64.53 1.47, 107.83 1.2, 172 0 M17 0 C70.8 0.2, 123.76 1.42, 172 0 M172 0 C182.14 -1.35, 188.36 5.04, 189 17 M172 0 C183.61 -0.18, 190.09 7.02, 189 17 M189 17 C189.39 26.65, 187.66 39.4, 189 51 M189 17 C188.96 26.81, 189.47 36.52, 189 51 M189 51 C189.03 60.62, 182.69 67.73, 172 68 M189 51 C190.29 63.81, 182.03 67.47, 172 68 M172 68 C125.91 67.65, 82.29 64.9, 17 68 M172 68 C138.02 69.38, 103.27 69.72, 17 68 M17 68 C4.64 67.31, -0.79 60.58, 0 51 M17 68 C7.76 66.83, -1.07 61.15, 0 51 M0 51 C1.02 41.8, -2.14 33.63, 0 17 M0 51 C0.19 41.04, 0.93 30.22, 0 17 M0 17 C0.16 4.07, 3.87 1.9, 17 0 M0 17 C-0.8 7.2, 4.57 0.47, 17 0" stroke="#862e9c" stroke-width="1" fill="none"></path></g><g transform="translate(333.7500534057617 243.80078125) rotate(0 52.24994659423828 12.5)"><text x="52.24994659423828" y="0" font-family="Virgil, Segoe UI Emoji" font-size="20px" fill="#862e9c" text-anchor="middle" style="white-space: pre;" direction="ltr" dominant-baseline="text-before-edge">Apply rules</text></g><g stroke-linecap="round" transform="translate(617.84375 222.53125) rotate(0 94.5 34)"><path d="M17 0 M17 0 C60.63 -0.31, 107.12 -2.27, 172 0 M17 0 C47.55 0.18, 78.22 1.31, 172 0 M172 0 C184.48 0.44, 190.68 6.96, 189 17 M172 0 C181.76 -2.08, 189.86 4.49, 189 17 M189 17 C190.06 26.8, 189.41 38.43, 189 51 M189 17 C188.54 28.75, 189.93 39.08, 189 51 M189 51 C190.14 61.51, 181.49 67.18, 172 68 M189 51 C188.34 64.44, 183.07 66.24, 172 68 M172 68 C129.73 67.64, 86.11 68.34, 17 68 M172 68 C134.7 67.36, 98.58 67.91, 17 68 M17 68 C7.43 69.76, 0.62 60.78, 0 51 M17 68 C7.32 69.97, 1.99 62.07, 0 51 M0 51 C0.05 43.46, 2.08 34.52, 0 17 M0 51 C0.07 40.71, 0.75 32.73, 0 17 M0 17 C-0.73 6.83, 5.8 -1.67, 17 0 M0 17 C1.59 3.9, 5.51 0.05, 17 0" stroke="#2b8a3e" stroke-width="1" fill="none"></path></g><g transform="translate(649.6738204956055 244.03125) rotate(0 62.66992950439453 12.5)"><text x="62.66992950439453" y="0" font-family="Virgil, Segoe UI Emoji" font-size="20px" fill="#2b8a3e" text-anchor="middle" style="white-space: pre;" direction="ltr" dominant-baseline="text-before-edge">post process</text></g><g stroke-linecap="round" transform="translate(850.13671875 222.53125) rotate(0 94.5 34)"><path d="M17 0 M17 0 C71.51 0.82, 126.42 0.02, 172 0 M17 0 C54.91 -1.47, 92.21 -0.35, 172 0 M172 0 C182.74 -1.49, 188.17 7.45, 189 17 M172 0 C181.82 -2.13, 188.26 3.93, 189 17 M189 17 C189.11 32.11, 190.33 43.5, 189 51 M189 17 C189.41 26.97, 189.18 35.69, 189 51 M189 51 C189.27 62.44, 181.81 69.61, 172 68 M189 51 C187.46 61.17, 183.52 68.87, 172 68 M172 68 C130.71 69.63, 86.88 66.05, 17 68 M172 68 C123.84 67, 76.84 66.72, 17 68 M17 68 C7.26 68.16, -1.11 62.65, 0 51 M17 68 C6.69 67.82, 1.7 60.31, 0 51 M0 51 C0.43 39.65, -1.41 26.46, 0 17 M0 51 C0.87 38.84, 0.27 26.26, 0 17 M0 17 C0.22 6.75, 6.62 -0.27, 17 0 M0 17 C0.5 6.88, 5.4 1.1, 17 0" stroke="#2b8a3e" stroke-width="1" fill="none"></path></g><g transform="translate(900.686767578125 244.03125) rotate(0 43.949951171875 12.5)"><text x="43.949951171875" y="0" font-family="Virgil, Segoe UI Emoji" font-size="20px" fill="#2b8a3e" text-anchor="middle" style="white-space: pre;" direction="ltr" dominant-baseline="text-before-edge">clusterer</text></g><g stroke-linecap="round" transform="translate(51.5 222.53125) rotate(0 94.5 34)"><path d="M17 0 M17 0 C75.35 0.16, 131.98 -0.2, 172 0 M17 0 C67.93 -1.72, 116.41 -0.66, 172 0 M172 0 C184.42 1.64, 189.75 4.12, 189 17 M172 0 C181.79 1.77, 188.83 6.32, 189 17 M189 17 C190.72 26.75, 189.77 33.52, 189 51 M189 17 C189.09 25.34, 189.49 33.03, 189 51 M189 51 C190.88 61.69, 183.73 66.46, 172 68 M189 51 C189.87 60.1, 184.89 68.05, 172 68 M172 68 C126.22 67.37, 80.52 67.67, 17 68 M172 68 C128.75 68.53, 86.4 69.41, 17 68 M17 68 C6.79 69.44, 0.1 63.58, 0 51 M17 68 C3.55 69.53, -0.43 63.72, 0 51 M0 51 C0.28 43.66, 1.45 35.57, 0 17 M0 51 C-0.93 42.45, -0.9 34.44, 0 17 M0 17 C0.16 5.8, 6.94 0.06, 17 0 M0 17 C-0.95 6.54, 6.54 0.85, 17 0" stroke="#862e9c" stroke-width="1" fill="none"></path></g><g transform="translate(74.49006652832031 244.03125) rotate(0 71.50993347167969 12.5)"><text x="71.50993347167969" y="0" font-family="Virgil, Segoe UI Emoji" font-size="20px" fill="#862e9c" text-anchor="middle" style="white-space: pre;" direction="ltr" dominant-baseline="text-before-edge">Apply patterns</text></g><g stroke-linecap="round"><g transform="translate(761.48828125 31.97265625) rotate(0 1.465782257011142 58.57494372226765)"><path d="M0.94 -0.57 C1.02 18.91, 0.38 97.07, 0.64 116.58 M-0.02 1.74 C0.42 21.39, 2.56 98.45, 2.95 117.72" stroke="#a61e4d" stroke-width="1" fill="none"></path></g></g><mask></mask><g stroke-linecap="round"><g transform="translate(763.87890625 147.37890625) rotate(0 19.639597249319763 8.605052412976505)"><path d="M0.67 0.8 C6.71 3.76, 31.28 14.36, 37.34 17.03 M-0.44 0.18 C5.9 2.84, 33.08 12.79, 39.72 15.21" stroke="#a61e4d" stroke-width="1" fill="none"></path></g></g><mask></mask><g stroke-linecap="round"><g transform="translate(849.8046875 165.15234375) rotate(0 18.780442794947817 -11.194289102866321)"><path d="M0.28 0.1 C6.73 -3.25, 32.44 -17.1, 38.59 -20.99 M-1.03 -0.9 C5.37 -4.47, 32.03 -18.89, 38.26 -22.49" stroke="#a61e4d" stroke-width="1" fill="none"></path></g></g><mask></mask><g stroke-linecap="round" transform="translate(763.1015625 10) rotate(0 63.6484375 20.32421875)"><path d="M78.79 -0.11 C89.54 0.25, 102.71 2.77, 110.7 5.72 C118.7 8.66, 124.69 13.8, 126.76 17.55 C128.83 21.3, 127.64 24.78, 123.12 28.19 C118.61 31.61, 109.12 36.01, 99.67 38.04 C90.23 40.07, 78.03 40.3, 66.44 40.39 C54.85 40.47, 39.95 40.21, 30.12 38.53 C20.29 36.84, 12.38 33.72, 7.46 30.3 C2.53 26.87, -0.74 21.76, 0.56 17.98 C1.86 14.2, 8.13 10.6, 15.25 7.62 C22.37 4.63, 32 1.29, 43.27 0.09 C54.53 -1.1, 76.02 0.25, 82.84 0.45 C89.66 0.65, 84.7 0.98, 84.2 1.31 M76 0.77 C86.93 0.87, 100.34 1.77, 108.59 4.45 C116.85 7.13, 122.76 12.96, 125.51 16.85 C128.26 20.74, 128.68 24.56, 125.1 27.78 C121.53 31, 113.32 34.06, 104.06 36.17 C94.81 38.28, 81.16 40.19, 69.56 40.44 C57.95 40.7, 44.67 39.21, 34.42 37.69 C24.18 36.17, 13.95 34.25, 8.1 31.3 C2.26 28.36, -1.11 24.01, -0.63 20 C-0.16 15.99, 4.35 10.36, 10.96 7.25 C17.58 4.14, 28.44 2.47, 39.04 1.36 C49.65 0.25, 68.71 0.67, 74.59 0.59 C80.48 0.52, 74.38 0.69, 74.35 0.91" stroke="#a61e4d" stroke-width="1" fill="none"></path></g><g stroke-linecap="round"><g transform="translate(803.43359375 164.74609375) rotate(0 23.454117447882822 0.5708903039929396)"><path d="M-0.43 -0.66 C7.26 -0.64, 39.51 0.22, 47.34 0.21 M1.54 1.6 C9.04 1.81, 39.41 1.91, 46.79 1.65" stroke="#a61e4d" stroke-width="1" fill="none"></path></g></g><mask></mask><g stroke-linecap="round"><g transform="translate(887.44921875 142.96484375) rotate(0 0.26815054708617936 -53.74573675915599)"><path d="M-0.16 0.55 C0.02 -17.45, 1.93 -90.16, 2.24 -108.04 M-1.71 -0.21 C-1.77 -18.1, 0.97 -89.55, 1.39 -107.07" stroke="#a61e4d" stroke-width="1" fill="none"></path></g></g><mask></mask><g transform="translate(774.13671875 75.0546875) rotate(0 52.04994201660156 25)"><text x="52.04994201660156" y="0" font-family="Virgil, Segoe UI Emoji" font-size="20px" fill="#a61e4d" text-anchor="middle" style="white-space: pre;" direction="ltr" dominant-baseline="text-before-edge">redis</text><text x="52.04994201660156" y="25" font-family="Virgil, Segoe UI Emoji" font-size="20px" fill="#a61e4d" text-anchor="middle" style="white-space: pre;" direction="ltr" dominant-baseline="text-before-edge">(memstore)</text></g><g stroke-linecap="round" transform="translate(765.15625 341.1328125) rotate(0 63.6484375 20.32421875)"><path d="M59 -0.18 C69.84 -0.71, 85.36 0.47, 95.35 2.44 C105.33 4.42, 113.71 8.49, 118.9 11.66 C124.09 14.84, 127.34 17.91, 126.48 21.51 C125.61 25.1, 120.69 30.37, 113.71 33.21 C106.74 36.06, 95.39 37.58, 84.63 38.57 C73.86 39.56, 60.07 39.71, 49.11 39.16 C38.14 38.61, 26.93 37.77, 18.81 35.24 C10.69 32.71, 2.67 27.68, 0.38 24 C-1.9 20.32, 0.83 16.47, 5.09 13.17 C9.36 9.87, 16.25 6.52, 25.97 4.21 C35.68 1.9, 56.11 -0.11, 63.37 -0.7 C70.64 -1.29, 69.36 0.23, 69.54 0.65 M42.85 0.15 C53.15 -1.24, 68.59 0.52, 79.7 1.49 C90.81 2.45, 101.62 3.52, 109.51 5.92 C117.41 8.32, 125.09 11.93, 127.07 15.89 C129.05 19.85, 126.14 26.04, 121.38 29.67 C116.62 33.29, 107.67 35.97, 98.53 37.65 C89.4 39.32, 77.92 39.59, 66.59 39.69 C55.27 39.79, 40.46 40.21, 30.58 38.26 C20.71 36.31, 12.22 31.42, 7.34 27.97 C2.47 24.51, 0.14 21.17, 1.31 17.53 C2.48 13.89, 7.5 8.8, 14.35 6.13 C21.2 3.45, 37.34 2.04, 42.4 1.48 C47.46 0.91, 44.32 2.52, 44.72 2.73" stroke="#a61e4d" stroke-width="1" fill="none"></path></g><g stroke-linecap="round"><g transform="translate(763.76953125 363.10546875) rotate(0 0.6486428566277027 58.86689823296854)"><path d="M-0.62 -0.14 C-0.33 19.42, 1.75 97.88, 1.91 117.42 M1.26 -1.26 C1.41 18.51, 0.99 99.08, 1.23 119" stroke="#a61e4d" stroke-width="1" fill="none"></path></g></g><mask></mask><g stroke-linecap="round"><g transform="translate(766.16015625 478.51171875) rotate(0 18.18695639222392 8.086917407074964)"><path d="M-0.14 0.51 C6.2 3.19, 31.74 12.67, 38.05 15.44 M-1.68 -0.27 C4.51 2.58, 30.74 13.88, 37.15 16.44" stroke="#a61e4d" stroke-width="1" fill="none"></path></g></g><mask></mask><g stroke-linecap="round"><g transform="translate(805.48828125 495.87890625) rotate(0 23.53577403265058 0.3190331980306951)"><path d="M0.51 0.09 C8.21 0.14, 37.79 0.13, 45.58 0.15 M-0.68 -0.91 C7.43 -0.67, 39.83 1.16, 47.75 1.55" stroke="#a61e4d" stroke-width="1" fill="none"></path></g></g><mask></mask><g stroke-linecap="round"><g transform="translate(852.0859375 496.28515625) rotate(0 17.91698869704726 -11.126340328296635)"><path d="M0.09 -1.02 C6.3 -4.69, 30.97 -17.81, 37.16 -21.53 M-1.33 1.06 C4.72 -3.01, 29.8 -19.36, 36.08 -23.31" stroke="#a61e4d" stroke-width="1" fill="none"></path></g></g><mask></mask><g stroke-linecap="round"><g transform="translate(889.50390625 474.09765625) rotate(0 0.8505795307456765 -53.7059401221573)"><path d="M-1.02 -0.26 C-0.65 -18.13, 2.4 -89.54, 2.72 -107.15 M0.64 -1.44 C0.87 -19.13, 1.69 -88, 2.12 -105.72" stroke="#a61e4d" stroke-width="1" fill="none"></path></g></g><mask></mask><g transform="translate(777.7050018310547 395.171875) rotate(0 50.969940185546875 37.5)"><text x="50.969940185546875" y="0" font-family="Virgil, Segoe UI Emoji" font-size="20px" fill="#a61e4d" text-anchor="middle" style="white-space: pre;" direction="ltr" dominant-baseline="text-before-edge">Project</text><text x="50.969940185546875" y="25" font-family="Virgil, Segoe UI Emoji" font-size="20px" fill="#a61e4d" text-anchor="middle" style="white-space: pre;" direction="ltr" dominant-baseline="text-before-edge">Options</text><text x="50.969940185546875" y="50" font-family="Virgil, Segoe UI Emoji" font-size="20px" fill="#a61e4d" text-anchor="middle" style="white-space: pre;" direction="ltr" dominant-baseline="text-before-edge">(Postgres)</text></g><g stroke-linecap="round"><g transform="translate(712.91015625 220.84375) rotate(0 24.180452487166008 -36.73846222936177)"><path d="M0.35 -1.12 C1.45 -5.94, -2.3 -17.05, 5.86 -28.92 C14.02 -40.79, 42.2 -64.83, 49.29 -72.32 M-0.93 0.9 C0.19 -4.24, -2.69 -18.05, 5.53 -30.6 C13.75 -43.14, 41.32 -67.27, 48.4 -74.38" stroke="#000000" stroke-width="1" fill="none"></path></g><g transform="translate(712.91015625 220.84375) rotate(0 24.180452487166008 -36.73846222936177)"><path d="M33.07 -45.61 C39.55 -54.33, 42.25 -62.22, 46.79 -72.39 M34.59 -47.25 C39.71 -55.49, 43.14 -62.61, 48.15 -74.68" stroke="#000000" stroke-width="1" fill="none"></path></g><g transform="translate(712.91015625 220.84375) rotate(0 24.180452487166008 -36.73846222936177)"><path d="M18.98 -60.54 C28.8 -65.76, 34.84 -70.11, 46.79 -72.39 M20.51 -62.17 C29.7 -66.18, 37.17 -69.02, 48.15 -74.68" stroke="#000000" stroke-width="1" fill="none"></path></g></g><mask></mask><g stroke-linecap="round"><g transform="translate(887.10546875 146.15625) rotate(0 25.412538822381748 37.68865107190797)"><path d="M-1.07 1 C6.02 5.51, 34.6 14.83, 43.02 26.94 C51.43 39.04, 48.07 65.74, 49.44 73.64 M0.58 0.49 C7.56 5.19, 34.08 15.97, 42.63 28.37 C51.19 40.77, 50.34 67.62, 51.89 74.89" stroke="#000000" stroke-width="1" fill="none"></path></g><g transform="translate(887.10546875 146.15625) rotate(0 25.412538822381748 37.68865107190797)"><path d="M43.34 55.33 C44.81 59.51, 48.43 69.73, 52.78 73.8 M42.34 53.14 C43.73 58.41, 46.5 64.31, 52.12 74.02" stroke="#000000" stroke-width="1" fill="none"></path></g><g transform="translate(887.10546875 146.15625) rotate(0 25.412538822381748 37.68865107190797)"><path d="M59.46 53.75 C55.43 58.33, 53.54 69.09, 52.78 73.8 M58.47 51.57 C55.8 57.23, 54.51 63.52, 52.12 74.02" stroke="#000000" stroke-width="1" fill="none"></path></g></g><mask></mask><g stroke-linecap="round"><g transform="translate(941.921875 291.6328125) rotate(0 -23.556275077168834 64.38254685841969)"><path d="M0.96 -1.1 C-0.27 16.7, 1.81 85.89, -6.22 107.59 C-14.25 129.3, -40.27 125.42, -47.25 129.12 M0 0.94 C-1.42 18.84, 1.17 87.44, -6.84 108.93 C-14.85 130.42, -41.15 126.24, -48.07 129.86" stroke="#000000" stroke-width="1" fill="none"></path></g><g transform="translate(941.921875 291.6328125) rotate(0 -23.556275077168834 64.38254685841969)"><path d="M-30.21 119.01 C-36.66 122.62, -45.58 125.86, -48.75 128.33 M-29.19 118.73 C-35.27 122.13, -41.2 124.93, -48.6 129.11" stroke="#000000" stroke-width="1" fill="none"></path></g><g transform="translate(941.921875 291.6328125) rotate(0 -23.556275077168834 64.38254685841969)"><path d="M-27.16 134.46 C-34.91 132.03, -45.02 129.21, -48.75 128.33 M-26.15 134.18 C-33.17 132.5, -40.1 130.25, -48.6 129.11" stroke="#000000" stroke-width="1" fill="none"></path></g></g><mask></mask><g transform="translate(439.7651138305664 431.01171875) rotate(0 121.6098861694336 12.5)"><text x="121.6098861694336" y="0" font-family="Virgil, Segoe UI Emoji" font-size="20px" fill="#000000" text-anchor="middle" style="white-space: pre;" direction="ltr" dominant-baseline="text-before-edge">rules (via project config)</text></g><g stroke-linecap="round"><g transform="translate(763.39453125 427.1796875) rotate(0 -189.82612701682717 -68.02246559834742)"><path d="M-0.28 0.03 C-55.66 -2.57, -267.74 7.81, -331.21 -14.91 C-394.69 -37.62, -372.48 -115.97, -381.12 -136.26 M1.78 -1.01 C-53.29 -4.01, -264.94 5.63, -328.81 -16.72 C-392.68 -39.08, -372.34 -115.28, -381.43 -135.14" stroke="#000000" stroke-width="1" fill="none"></path></g><g transform="translate(763.39453125 427.1796875) rotate(0 -189.82612701682717 -68.02246559834742)"><path d="M-368.11 -109.21 C-372.49 -117.31, -379.27 -131.02, -382.66 -135.79 M-369.01 -107.28 C-372.39 -117.16, -376.41 -124.69, -381.18 -135.72" stroke="#000000" stroke-width="1" fill="none"></path></g><g transform="translate(763.39453125 427.1796875) rotate(0 -189.82612701682717 -68.02246559834742)"><path d="M-388.51 -106.97 C-384.95 -115.89, -383.79 -130.48, -382.66 -135.79 M-389.41 -105.04 C-386.24 -115.74, -383.7 -123.99, -381.18 -135.72" stroke="#000000" stroke-width="1" fill="none"></path></g></g><mask></mask><g stroke-linecap="round"><g transform="translate(240.8671875 258.8125) rotate(0 25.327192567973384 -1.0379477925598621)"><path d="M1.06 -0.28 C9.64 -0.67, 42.31 -1.79, 50.5 -1.8 M0.15 -1.47 C8.62 -1.8, 40.55 -0.64, 49.32 -0.8" stroke="#000000" stroke-width="1" fill="none"></path></g><g transform="translate(240.8671875 258.8125) rotate(0 25.327192567973384 -1.0379477925598621)"><path d="M24.81 6.9 C28.75 4.38, 36.46 4.9, 49.68 0.8 M25.13 7.88 C32.87 5.47, 42.6 1.83, 49.65 -0.59" stroke="#000000" stroke-width="1" fill="none"></path></g><g transform="translate(240.8671875 258.8125) rotate(0 25.327192567973384 -1.0379477925598621)"><path d="M25 -10.53 C28.98 -9.25, 36.64 -4.92, 49.68 0.8 M25.32 -9.55 C32.95 -6, 42.62 -3.69, 49.65 -0.59" stroke="#000000" stroke-width="1" fill="none"></path></g></g><mask></mask><g stroke-linecap="round"><g transform="translate(480.79296875 257.4921875) rotate(0 67.46686770656618 1.9970792780677016)"><path d="M0.61 0.59 C23.36 1.18, 112.93 3.61, 135.46 4.14 M-0.53 -0.14 C22.2 0.05, 112.12 2.14, 134.79 2.44" stroke="#000000" stroke-width="1" fill="none"></path></g><g transform="translate(480.79296875 257.4921875) rotate(0 67.46686770656618 1.9970792780677016)"><path d="M107.4 13.05 C113.76 11.37, 119.18 7.65, 133.59 2.74 M105.89 11.74 C116.29 8.92, 126.7 5.9, 134.8 2.07" stroke="#000000" stroke-width="1" fill="none"></path></g><g transform="translate(480.79296875 257.4921875) rotate(0 67.46686770656618 1.9970792780677016)"><path d="M107.78 -7.47 C114.16 -4.77, 119.51 -4.1, 133.59 2.74 M106.28 -8.77 C116.56 -4.59, 126.84 -0.6, 134.8 2.07" stroke="#000000" stroke-width="1" fill="none"></path></g></g><mask></mask><g stroke-linecap="round" transform="translate(10 189.1484375) rotate(0 244.5234375 66.02734375)"><path d="M32 0 M32 0 C186.49 -0.93, 339.15 -0.61, 457.05 0 M32 0 C196.63 1.64, 361.37 1.79, 457.05 0 M457.05 0 C479.78 0.24, 487.32 8.74, 489.05 32 M457.05 0 C480.01 0.04, 489.48 9.3, 489.05 32 M489.05 32 C490.61 47.54, 488.22 68.02, 489.05 100.05 M489.05 32 C490.28 45.86, 489.93 59.05, 489.05 100.05 M489.05 100.05 C490.38 122.14, 478.73 130.93, 457.05 132.05 M489.05 100.05 C490.67 123.32, 476.53 131, 457.05 132.05 M457.05 132.05 C299.19 131.73, 139.59 130.71, 32 132.05 M457.05 132.05 C328.37 131.23, 199.77 131.12, 32 132.05 M32 132.05 C10.35 133.48, 1.19 120.4, 0 100.05 M32 132.05 C9.67 130.23, 0.37 121.58, 0 100.05 M0 100.05 C2.02 71.74, 0.94 47.87, 0 32 M0 100.05 C-1.58 76.83, 0.27 52.6, 0 32 M0 32 C-1.29 10.75, 8.76 -1.65, 32 0 M0 32 C2.05 9.82, 8.53 -0.73, 32 0" stroke="#862e9c" stroke-width="1" fill="none"></path></g><g stroke-linecap="round" transform="translate(572 187.828125) rotate(0 244.5234375 67.283203125)"><path d="M32 0 M32 0 C120.14 2.7, 209.04 1.68, 457.05 0 M32 0 C119.41 -1.46, 207.43 -1.18, 457.05 0 M457.05 0 C478.31 1.96, 490.14 11.25, 489.05 32 M457.05 0 C476.1 -0.33, 487.37 12.48, 489.05 32 M489.05 32 C489.58 53.81, 489.3 75.64, 489.05 102.57 M489.05 32 C488 51.25, 488.7 71.61, 489.05 102.57 M489.05 102.57 C490.11 123.36, 478.31 136.44, 457.05 134.57 M489.05 102.57 C489.61 122.33, 477.89 132.73, 457.05 134.57 M457.05 134.57 C337.82 135.12, 218.14 134.81, 32 134.57 M457.05 134.57 C301.13 136.6, 144.85 136.27, 32 134.57 M32 134.57 C11.34 135.9, 1.88 123.31, 0 102.57 M32 134.57 C11.29 134.16, -0.16 125.95, 0 102.57 M0 102.57 C-0.2 76.77, -0.17 55.23, 0 32 M0 102.57 C-0.77 74.45, -1.32 46.64, 0 32 M0 32 C1.41 8.85, 12.04 -0.05, 32 0 M0 32 C-0.57 11.31, 9.25 -0.67, 32 0" stroke="#2b8a3e" stroke-width="1" fill="none"></path></g><g transform="translate(26.66236114501953 328.55859375) rotate(0 26.23998260498047 12.5)"><text x="26.23998260498047" y="0" font-family="Virgil, Segoe UI Emoji" font-size="20px" fill="#862e9c" text-anchor="middle" style="white-space: pre;" direction="ltr" dominant-baseline="text-before-edge">Relay</text></g><g transform="translate(591.1087799072266 326.484375) rotate(0 30.859970092773438 12.5)"><text x="30.859970092773438" y="0" font-family="Virgil, Segoe UI Emoji" font-size="20px" fill="#087f5b" text-anchor="middle" style="white-space: pre;" direction="ltr" dominant-baseline="text-before-edge">Sentry</text></g><g transform="translate(130.09205627441406 110.53125) rotate(0 26.489974975585938 12.5)"><text x="26.489974975585938" y="0" font-family="Virgil, Segoe UI Emoji" font-size="20px" fill="#000000" text-anchor="middle" style="white-space: pre;" direction="ltr" dominant-baseline="text-before-edge">event</text></g><g transform="translate(509.77565002441406 229.46484375) rotate(0 26.489974975585938 12.5)"><text x="26.489974975585938" y="0" font-family="Virgil, Segoe UI Emoji" font-size="20px" fill="#000000" text-anchor="middle" style="white-space: pre;" direction="ltr" dominant-baseline="text-before-edge">event</text></g><g transform="translate(946.2869033813477 383.37109375) rotate(0 23.509971618652344 12.5)"><text x="0" y="0" font-family="Virgil, Segoe UI Emoji" font-size="20px" fill="#000000" text-anchor="start" style="white-space: pre;" direction="ltr" dominant-baseline="text-before-edge">rules</text></g><g transform="translate(937.63671875 126.33984375) rotate(0 51.31996154785156 25)"><text x="51.31996154785156" y="0" font-family="Virgil, Segoe UI Emoji" font-size="20px" fill="#000000" text-anchor="middle" style="white-space: pre;" direction="ltr" dominant-baseline="text-before-edge">txn names</text><text x="51.31996154785156" y="25" font-family="Virgil, Segoe UI Emoji" font-size="20px" fill="#000000" text-anchor="middle" style="white-space: pre;" direction="ltr" dominant-baseline="text-before-edge">(1x / hour)</text></g><g transform="translate(629.8359375 137.96875) rotate(0 44.07997131347656 12.5)"><text x="0" y="0" font-family="Virgil, Segoe UI Emoji" font-size="20px" fill="#000000" text-anchor="start" style="white-space: pre;" direction="ltr" dominant-baseline="text-before-edge">txn name</text></g><g stroke-linecap="round"><g transform="translate(152.11300493799513 144.1484375) rotate(0 0.6357440255509346 36.82416389719586)"><path d="M1.03 -0.49 C1.24 11.79, 0.99 61.9, 1.16 74.46 M0.12 -1.79 C0.19 10.53, 0.03 62.5, 0.3 75.44" stroke="#000000" stroke-width="1" fill="none"></path></g><g transform="translate(152.11300493799513 144.1484375) rotate(0 0.6357440255509346 36.82416389719586)"><path d="M-10.98 47.64 C-8.69 57.2, -4.9 65.13, 1.12 75.99 M-9.68 46.55 C-6.96 55.44, -3.47 64.07, -0.22 75.38" stroke="#000000" stroke-width="1" fill="none"></path></g><g transform="translate(152.11300493799513 144.1484375) rotate(0 0.6357440255509346 36.82416389719586)"><path d="M9.54 47.48 C5.82 57.27, 3.59 65.24, 1.12 75.99 M10.84 46.39 C7.52 55.17, 4.97 63.85, -0.22 75.38" stroke="#000000" stroke-width="1" fill="none"></path></g></g><mask></mask></svg>
