<svg xmlns="http://www.w3.org/2000/svg" viewBox="0 0 20 20"><title>app-engine</title><rect width="20" height="20" style="fill:#4285f4"/><path d="M10,6a5,5,0,1,0,5,5A5,5,0,0,0,10,6Zm0,9a4,4,0,1,1,4-4A4,4,0,0,1,10,15Z" style="fill:#fff"/><circle cx="10" cy="11" r="1" style="fill:#fff"/><path d="M10,5a6,6,0,0,1,1.55.21l-.48-1.92A.38.38,0,0,0,10.7,3H9.3a.38.38,0,0,0-.37.29L8.45,5.21A6,6,0,0,1,10,5Z" style="fill:#fff"/><path d="M15.79,9.45a5.83,5.83,0,0,1,0,3.1l1.92-.48A.38.38,0,0,0,18,11.7V10.3a.38.38,0,0,0-.29-.37Z" style="fill:#fff"/><path d="M4,11a6,6,0,0,1,.21-1.55l-1.92.48A.38.38,0,0,0,2,10.3v1.4a.38.38,0,0,0,.29.37l1.92.48A6,6,0,0,1,4,11Z" style="fill:#fff"/><path d="M7.88,13.12a3,3,0,1,0,4.24-4.24l-.71.71a2,2,0,0,1-2.82,2.82Z" style="fill:#fff"/></svg>