<svg xmlns="http://www.w3.org/2000/svg" viewBox="0 0 20 20"><title>Apple</title><rect width="20" height="20" style="fill:#333"/><path d="M14.83,12.84A6.54,6.54,0,0,1,14.18,14a5.46,5.46,0,0,1-.83,1,1.62,1.62,0,0,1-1.06.47,2.62,2.62,0,0,1-1-.24A3,3,0,0,0,10.25,15a3,3,0,0,0-1.09.23,2.93,2.93,0,0,1-.94.25A1.51,1.51,0,0,1,7.13,15a6.36,6.36,0,0,1-.87-1,7.2,7.2,0,0,1-.91-1.82A6.55,6.55,0,0,1,5,10,4,4,0,0,1,5.48,7.9,3.11,3.11,0,0,1,6.57,6.8,3,3,0,0,1,8,6.38a3.38,3.38,0,0,1,1.14.27,3.9,3.9,0,0,0,.91.26,5.17,5.17,0,0,0,1-.31,3.39,3.39,0,0,1,1.36-.24,2.91,2.91,0,0,1,2.27,1.19,2.61,2.61,0,0,0-.51,4.19,2.67,2.67,0,0,0,.83.55l-.21.55ZM12.52,3.76a2.51,2.51,0,0,1-.66,1.67A2.23,2.23,0,0,1,10,6.35a1.77,1.77,0,0,1,0-.23,2.73,2.73,0,0,1,1.54-2.33,2.68,2.68,0,0,1,1-.27c0,.08,0,.16,0,.24Z" style="fill:#fff"/></svg>
