<svg xmlns="http://www.w3.org/2000/svg" viewBox="0 0 20 20"><title>Bootstrap</title><rect width="20" height="20" style="fill:#4d337f"/><g style="isolation:isolate"><path d="M10.83,4a4.19,4.19,0,0,1,2.59.74,2.62,2.62,0,0,1,1,2.23A2.65,2.65,0,0,1,14,8.53a2.86,2.86,0,0,1-1.27,1v0a2.64,2.64,0,0,1,1.68,1,3.51,3.51,0,0,1,.57,2.05A3.32,3.32,0,0,1,14.68,14,2.64,2.64,0,0,1,13.89,15a4.07,4.07,0,0,1-1.38.71,6.89,6.89,0,0,1-2,.26H5V4ZM7.1,9h3.43a1.88,1.88,0,0,0,1.26-.44,1.5,1.5,0,0,0,.5-1.23,1.58,1.58,0,0,0-.45-1.28,2.06,2.06,0,0,0-1.31-.37H7.1V9Zm0,5.26h3.72a2.09,2.09,0,0,0,1.48-.5,1.85,1.85,0,0,0,.53-1.41A1.74,1.74,0,0,0,12.3,11a2.14,2.14,0,0,0-1.48-.48H7.1Z" style="fill:#fff"/></g></svg>
