<svg xmlns="http://www.w3.org/2000/svg" viewBox="0 0 20 20"><title>Bottle</title><rect width="20" height="20" style="fill:#109985"/><rect x="12.13" y="4.62" width="6" height="1" rx="0.28" ry="0.28" transform="translate(8.05 -9.2) rotate(45)" style="fill:#fff"/><path d="M14.17,8.91l2.37-2.37-.71-.71-2.9,2.9a5,5,0,0,1-.38,6,.36.36,0,0,1-.52,0L5.49,8.22a.36.36,0,0,1,0-.52,5,5,0,0,1,6-.38l2.9-2.9-.71-.71L11.34,6.08a6,6,0,1,0,2.83,2.83Z" style="fill:#fff"/><circle cx="11.41" cy="11.78" r="0.67" style="fill:#fff"/><circle cx="11.53" cy="8.19" r="0.38" style="fill:#fff"/><circle cx="7.35" cy="10.72" r="1.79" style="fill:#fff"/></svg>
