<svg xmlns="http://www.w3.org/2000/svg" viewBox="0 0 20 20"><title>csharp</title><rect width="20" height="20" style="fill:#4d337f"/><path d="M10,15.66A5.73,5.73,0,0,1,5.14,7,4.52,4.52,0,0,1,7,5.14a5.79,5.79,0,0,1,7.2,1l1.66-1.66A8.15,8.15,0,0,0,6.06,3,6.86,6.86,0,0,0,2.9,6.15,8.08,8.08,0,0,0,10,18a8,8,0,0,0,5.82-2.52l-1.66-1.66A5.61,5.61,0,0,1,10,15.66Z" style="fill:#fff"/><path d="M18.17,9.67v-1h-1v-1h-1v1h-1v-1h-1v1h-1v1h1v1h-1v1h1v1h1v-1h1v1h1v-1h1v-1h-1v-1Zm-2,1h-1v-1h1Z" style="fill:#fff"/></svg>