<svg xmlns="http://www.w3.org/2000/svg" viewBox="0 0 20 20"><title>Django</title><rect width="20" height="20" style="fill:#092e20"/><path d="M10.66,3a.49.49,0,0,1,.49.5v10a.5.5,0,0,1-.41.49,15.58,15.58,0,0,1-2.69.24c-2.91,0-4.43-1.3-4.43-3.8a3.79,3.79,0,0,1,4.11-4,3.88,3.88,0,0,1,1,.12V3.5A.5.5,0,0,1,9.27,3ZM8.76,8.51A2.17,2.17,0,0,0,8,8.38a1.8,1.8,0,0,0-1.91,2,1.73,1.73,0,0,0,1.89,1.95,5,5,0,0,0,.82-.06V8.51Zm5.69-1.86a.5.5,0,0,1,.5.5v5a7.22,7.22,0,0,1-.56,3.57,3.62,3.62,0,0,1-1.72,1.64.57.57,0,0,1-.46,0l-1.1-.52a.49.49,0,0,1-.06-.86,2.73,2.73,0,0,0,1.06-1.14c.34-.68.45-1.46.45-3.52V7.15a.5.5,0,0,1,.5-.5ZM13.06,3h1.39a.5.5,0,0,1,.5.5V4.94a.5.5,0,0,1-.5.5H13.06a.5.5,0,0,1-.5-.5V3.51A.5.5,0,0,1,13.06,3Z" style="fill:#fff"/></svg>
