<svg xmlns="http://www.w3.org/2000/svg" viewBox="0 0 20 20"><title>Electron</title><rect width="20" height="20" style="fill:#2f3241"/><path d="M7.64,4.87c-2.26-.43-4,0-4.77,1.3a3.72,3.72,0,0,0,.37,3.59.23.23,0,1,0,.4-.24,3.29,3.29,0,0,1-.37-3.11C3.87,5.35,5.47,5,7.56,5.34a.22.22,0,0,0,.27-.19.24.24,0,0,0-.19-.28ZM4.42,11.41a15,15,0,0,0,3.47,2.84c3.28,2,6.78,2.49,8.51,1.27a.25.25,0,0,0,.06-.33.22.22,0,0,0-.32-.06c-1.55,1.09-4.87.59-8-1.3a14.27,14.27,0,0,1-3.36-2.75.22.22,0,0,0-.32,0,.24.24,0,0,0,0,.34Z" style="fill:#9feaf9"/><path d="M15.85,11.12c1.48-1.82,2-3.65,1.29-4.94A3.4,3.4,0,0,0,14,4.72.23.23,0,0,0,13.8,5a.23.23,0,0,0,.22.25,2.91,2.91,0,0,1,2.71,1.22c.6,1.06.13,2.69-1.24,4.37a.25.25,0,0,0,0,.34.23.23,0,0,0,.33,0ZM12,5a14.28,14.28,0,0,0-4.14,1.7c-3.39,2-5.61,5-5.3,7.21a.23.23,0,1,0,.46-.07C2.78,11.86,4.88,9,8.12,7.07a13.8,13.8,0,0,1,4-1.65.24.24,0,0,0,.18-.29A.23.23,0,0,0,12,5Z" style="fill:#9feaf9"/><path d="M6.54,15.37C7.31,17.62,8.58,19,10,19a3.41,3.41,0,0,0,2.75-2,.24.24,0,0,0-.08-.33.22.22,0,0,0-.32.08A3,3,0,0,1,10,18.52c-1.19,0-2.32-1.24-3-3.32a.22.22,0,0,0-.29-.14.23.23,0,0,0-.14.31Zm7.08-.44a15.78,15.78,0,0,0,.62-4.47c0-4-1.35-7.44-3.27-8.33a.23.23,0,0,0-.3.12.24.24,0,0,0,.11.32c1.72.79,3,4.06,3,7.89a15,15,0,0,1-.6,4.32.25.25,0,0,0,.15.31.25.25,0,0,0,.29-.16Z" style="fill:#9feaf9"/><path d="M18,14.69a1.11,1.11,0,1,0-1.11,1.16A1.13,1.13,0,0,0,18,14.69Zm-.46,0a.65.65,0,1,1-.65-.67.66.66,0,0,1,.65.67Z" style="fill:#9feaf9"/><path d="M3.11,15.85a1.16,1.16,0,0,0,0-2.31,1.16,1.16,0,0,0,0,2.31Zm0-.49a.67.67,0,1,1,.65-.67.66.66,0,0,1-.65.67Z" style="fill:#9feaf9"/><path d="M10,3.31a1.14,1.14,0,0,0,1.11-1.16,1.11,1.11,0,1,0-2.22,0A1.13,1.13,0,0,0,10,3.31Zm0-.48a.66.66,0,0,1-.65-.68.65.65,0,1,1,1.3,0,.66.66,0,0,1-.65.68Z" style="fill:#9feaf9"/><path d="M10.18,11.27a.81.81,0,0,1-1-.64.84.84,0,0,1,.62-1,.8.8,0,0,1,.95.64.82.82,0,0,1-.61,1Z" style="fill:#9feaf9"/></svg>
