<svg xmlns="http://www.w3.org/2000/svg" viewBox="0 0 20 20"><title>Ember</title><rect width="20" height="20" style="fill:#f24c3b"/><path d="M16.91,10.58l-.05-.08a.85.85,0,0,0-1.19-.2c-1.32.92-3.95,3.18-5.57,3.18s-1.32-1.4-1.32-1.4,6.09-2.09,4.43-6.2a3,3,0,0,0-2.84-1.37c-1.23,0-2.72.77-3.7,3A9.7,9.7,0,0,0,6,10.31H6a4.37,4.37,0,0,1-1.68-.26c-.7-.27-.89,0-.89,0s-1,1.24,0,1.63a11.75,11.75,0,0,0,2.52.55h0A4.74,4.74,0,0,0,7.65,15c1,.79,2.65.63,3.81.35a5.9,5.9,0,0,0,.68-.22A8.75,8.75,0,0,0,15,13.37l1.81-1.64A.85.85,0,0,0,16.91,10.58Zm-8.42-.36c.07-2.87,1.95-4.12,2.6-3.49s.41,2-.82,2.81S8.49,10.22,8.49,10.22Z" style="fill:#fefefe"/></svg>
