<svg xmlns="http://www.w3.org/2000/svg" viewBox="0 0 20 20"><title>Flask</title><rect width="20" height="20" style="fill:#333"/><circle cx="6.3" cy="3.96" r="0.87" style="fill:#fff"/><path d="M16.69,15.83c-.35-.06-3.3-.81-3.3-.81A5.44,5.44,0,0,1,9.27,9.87l-.06-2A.22.22,0,0,0,9,7.68c-.37,0-1,0-1.58,0a7.52,7.52,0,0,0-2.21.54.17.17,0,0,0-.09.14,8.08,8.08,0,0,0,5.23,8.05,6.38,6.38,0,0,0,2.64.35s3.31-.08,3.67-.22S17.05,15.9,16.69,15.83Z" style="fill:#fff"/><path d="M5.33,5.35a3.08,3.08,0,0,1,1.11-.43,8.24,8.24,0,0,1,1.21,0l.14.87-2.32.51Z" style="fill:#fff"/><path d="M10.21,6.52c-.19-.09-.62-.2-1.09-.34C9.07,6,9,5.65,9,5.4a6.63,6.63,0,0,0-1.4,0,1,1,0,0,1,0-.25c0-.08,0-.1-.12-.09l-.24,0c-.12,0-.17.05-.22,0S6.87,5,6.86,5s0-.53-.12-.68a.51.51,0,0,0-.49,0c-.16.08-.27.18-.28.25s.06.31.1.63c0,.08,0,.11-.06.13s-.33.06-.45.08-.1.11-.09.24a2.06,2.06,0,0,0,0,.21,2.67,2.67,0,0,0-1,.62l.1.63h0a1.46,1.46,0,0,0-.61.54.83.83,0,0,0,.25.53A6.42,6.42,0,0,1,6.91,7a9.11,9.11,0,0,1,3.62.36,1.35,1.35,0,0,0,.15-.63C10.54,6.6,10.43,6.6,10.21,6.52Z" style="fill:#fff"/></svg>
