<svg xmlns="http://www.w3.org/2000/svg" viewBox="0 0 20 20"><title>Generic</title><rect width="20" height="20" style="fill:#d1ccd6"/><path d="M6.87,8,5.94,7a.24.24,0,0,0-.32,0L3.91,8.75,2.81,9.84a.24.24,0,0,0,0,.32l1.1,1.09L5.62,13a.24.24,0,0,0,.32,0L6.87,12a.21.21,0,0,0,0-.31L5.16,10,6.87,8.28A.21.21,0,0,0,6.87,8Z" style="fill:#333"/><path d="M17.19,9.84l-1.1-1.09L14.38,7a.24.24,0,0,0-.32,0L13.13,8a.21.21,0,0,0,0,.31L14.84,10l-1.71,1.72a.21.21,0,0,0,0,.31l.93.94a.24.24,0,0,0,.32,0l1.71-1.72,1.1-1.09A.24.24,0,0,0,17.19,9.84Z" style="fill:#333"/><rect x="4.7" y="9.12" width="10.6" height="1.77" rx="0.29" ry="0.29" transform="translate(-2.92 15.76) rotate(-69.04)" style="fill:#333"/></svg>
