<svg xmlns="http://www.w3.org/2000/svg" viewBox="0 0 20 20"><title>Go</title><rect width="20" height="20" style="fill:#333"/><path d="M9.22,11.86,9.5,13h1l.28-1.14a2.77,2.77,0,0,0-.78-.13A2.77,2.77,0,0,0,9.22,11.86Z" style="fill:#fefefe"/><path d="M11.18,10.16A1.2,1.2,0,0,1,10,10.9a1.2,1.2,0,0,1-1.18-.74A1.27,1.27,0,0,0,8,11.23c0,.25.1.33.27.33A13.79,13.79,0,0,1,10,11.23a13.79,13.79,0,0,1,1.73.33c.17,0,.27-.08.27-.33A1.27,1.27,0,0,0,11.18,10.16Z" style="fill:#fefefe"/><path d="M6.52,8.52a.7.7,0,0,1-.14,0,1.5,1.5,0,1,0,0-2,.7.7,0,0,1,.14,0,1,1,0,0,1,1,.83.39.39,0,0,0-.37.39.41.41,0,0,0,.22.36A1,1,0,0,1,6.52,8.52Z" style="fill:#fefefe"/><path d="M12.5,6a1.5,1.5,0,0,0-1.12.51.7.7,0,0,1,.14,0,1,1,0,0,1,1,.83.39.39,0,0,0-.37.39.41.41,0,0,0,.22.36,1,1,0,0,1-.83.46.7.7,0,0,1-.14,0A1.5,1.5,0,1,0,12.5,6Z" style="fill:#fefefe"/><path d="M18,5.5A2.5,2.5,0,0,0,15.5,3a2.47,2.47,0,0,0-2,1A6.94,6.94,0,0,0,6.46,4a2.47,2.47,0,0,0-2-1A2.5,2.5,0,0,0,3.38,7.73,7.06,7.06,0,0,0,3,10v5a1,1,0,0,0,1,1H16a1,1,0,0,0,1-1V10a7.06,7.06,0,0,0-.38-2.27A2.5,2.5,0,0,0,18,5.5ZM3.78,6.81A1.51,1.51,0,0,1,3,5.5a1.5,1.5,0,0,1,2.64-1A7,7,0,0,0,3.78,6.81ZM5.5,7.5h0a2,2,0,1,1,2,2A2,2,0,0,1,5.5,7.5Zm6.23,4.56a1.9,1.9,0,0,1-.46-.07L11,13.12l-.1.38H9.11L9,13.12,8.73,12a1.9,1.9,0,0,1-.46.07.75.75,0,0,1-.77-.83A1.83,1.83,0,0,1,8.82,9.62,1.22,1.22,0,0,1,10,8.9a1.22,1.22,0,0,1,1.18.72,1.83,1.83,0,0,1,1.32,1.61A.75.75,0,0,1,11.73,12.06ZM12.5,9.5a2,2,0,0,1-2-2h0a2,2,0,1,1,2,2Zm3.72-2.69a7,7,0,0,0-1.86-2.28,1.5,1.5,0,1,1,1.86,2.28Z" style="fill:#fefefe"/></svg>
