<svg xmlns="http://www.w3.org/2000/svg" viewBox="0 0 20 20"><title>iOS</title><rect width="20" height="20" style="fill:#eeedf4"/><path d="M8.28,6.42c-2,0-3.38,1.51-3.38,3.85s1.33,3.84,3.38,3.84,3.39-1.51,3.39-3.84S10.34,6.42,8.28,6.42Zm0,6.87c-1.6,0-2.56-1.13-2.56-3s1-3,2.56-3,2.56,1.15,2.56,3S9.86,13.29,8.28,13.29Z" style="fill:#333"/><path d="M15.14,9.86l-.79-.19c-1.18-.3-1.27-.66-1.27-1,0-.64.62-1.1,1.51-1.1s1.61.48,1.65,1.16l.82-.05a2.22,2.22,0,0,0-2.47-1.93,2.09,2.09,0,0,0-2.34,1.92c0,1.16,1,1.56,1.91,1.79l.78.19c1.31.33,1.49.8,1.49,1.25,0,.79-.77,1.38-1.78,1.38s-1.79-.56-1.83-1.33L12,12a2.43,2.43,0,0,0,2.65,2.11,2.37,2.37,0,0,0,2.6-2.2C17.25,10.56,16.05,10.09,15.14,9.86Z" style="fill:#333"/><rect x="3.25" y="9.17" width="0.82" height="4.94" style="fill:#333"/><rect x="3.25" y="6.76" width="0.82" height="0.82" rx="0.41" ry="0.41" style="fill:#333"/></svg>