<svg xmlns="http://www.w3.org/2000/svg" viewBox="0 0 20 20"><title>java</title><rect width="20" height="20" style="fill:#c00"/><path d="M6.05,7.91,7.2,6.58a.85.85,0,0,0-.29-1.4l-.53-.26a.86.86,0,0,1-.29-1.4L7.25,2.19" style="fill:none;stroke:#fff;stroke-linecap:round;stroke-linejoin:round"/><path d="M12.05,7.91,13.2,6.58a.85.85,0,0,0-.29-1.4l-.53-.26a.86.86,0,0,1-.29-1.4l1.16-1.33" style="fill:none;stroke:#fff;stroke-linecap:round;stroke-linejoin:round"/><path d="M16.5,9.5H2.5a7,7,0,0,0,3.41,6H4a.5.5,0,0,0-.5.5.5.5,0,0,0,.5.5h.5l.22.45a1,1,0,0,0,.9.55h7.76a1,1,0,0,0,.9-.55l.22-.45H15a.5.5,0,0,0,.5-.5.5.5,0,0,0-.5-.5H13.08a7.12,7.12,0,0,0,2.16-2H16.5a2,2,0,0,0,0-4Zm0,3h-.68a7.13,7.13,0,0,0,.6-2h.08a1,1,0,0,1,0,2Z" style="fill:#fff"/><path d="M9.05,7.91,10.2,6.58a.85.85,0,0,0-.29-1.4l-.53-.26a.86.86,0,0,1-.29-1.4l1.16-1.33" style="fill:none;stroke:#fff;stroke-linecap:round;stroke-linejoin:round"/></svg>