<svg xmlns="http://www.w3.org/2000/svg" viewBox="0 0 20 20"><title>JavaScript</title><rect width="20" height="20" style="fill:#f7df1e"/><path d="M11,12.19a.5.5,0,0,1,.64.13,2,2,0,0,0,1.7.84c.82,0,1.34-.41,1.34-1s-.54-.91-1.44-1.3l-.49-.21c-1.42-.61-2.36-1.37-2.36-3a2.63,2.63,0,0,1,2.88-2.61A2.92,2.92,0,0,1,15.72,6.2a.52.52,0,0,1-.11.75l-.7.45a.49.49,0,0,1-.65-.11,1.23,1.23,0,0,0-1-.48.86.86,0,0,0-.94.85c0,.59.36.83,1.21,1.19l.49.21c1.68.72,2.62,1.45,2.62,3.1s-1.39,2.75-3.26,2.75A3.88,3.88,0,0,1,10,13.36a.51.51,0,0,1,.16-.73Zm-6.55.15a.49.49,0,0,1,.67.16,1.17,1.17,0,0,0,1,.6c.65,0,1-.25,1-1.25V5.59a.51.51,0,0,1,.5-.5h1a.5.5,0,0,1,.49.5v6.29a2.69,2.69,0,0,1-3,3,3.11,3.11,0,0,1-2.73-1.35.51.51,0,0,1,.16-.71Z" style="fill:#333"/></svg>
