<svg xmlns="http://www.w3.org/2000/svg" viewBox="0 0 20 20"><title>nodejs</title><rect width="20" height="20" style="fill:#65bf36"/><path d="M16,7.73a.63.63,0,0,0-.33-.56L10.32,4.09A.52.52,0,0,0,10,4H10a.52.52,0,0,0-.29.09L4.32,7.17A.64.64,0,0,0,4,7.73V16a.32.32,0,0,0,.48.28l3.18-1.82A.64.64,0,0,0,8,13.92V10a.65.65,0,0,1,.32-.56L9.68,8.7a.68.68,0,0,1,.64,0l1.36.78A.65.65,0,0,1,12,10v3.88a.65.65,0,0,0,.32.56L15.5,16.3a.33.33,0,0,0,.33,0A.31.31,0,0,0,16,16Z" style="fill:#fff;fill-rule:evenodd"/></svg>