<svg xmlns="http://www.w3.org/2000/svg" viewBox="0 0 20 20"><title>Perl</title><rect width="20" height="20" style="fill:#3a3c5b"/><polygon points="9.08 17.09 8.58 17.9 9.3 17.48 9.63 17.89 10 17.48 10.74 17.95 10.18 17.09 9.08 17.09" style="fill:#fff"/><path d="M15.33,9.42C14,7.47,11.6,7,10.93,5.94a.94.94,0,0,1-.24-.47,2.92,2.92,0,0,0,1.79-3,3.2,3.2,0,0,0-2.65,2A2.92,2.92,0,0,0,7.36,2a3.16,3.16,0,0,0,1.4,3.31c.06.12,0,.34-.08.48a2.2,2.2,0,0,1-.63.66c-1,.8-2.8,1.46-3.8,3.22a5.11,5.11,0,0,0-.62,3.2c.43,2.52,3.37,4.52,6.22,4.51s5.94-2.17,6.28-4.75A4.94,4.94,0,0,0,15.33,9.42ZM5.16,13.11c-.62-2.66,2-4.95,2.09-4.88s-1.66,1.9-1.42,4.17A5.45,5.45,0,0,0,7.9,16.1,4.32,4.32,0,0,1,5.16,13.11ZM8.6,11.42c-.76,1.73.55,4.9.55,4.9l-.3-.41a5.82,5.82,0,0,1-1.22-4.14A4.55,4.55,0,0,1,8,10.4,20.18,20.18,0,0,0,9.6,6.69a4,4,0,0,0,.12-.83c.06,0,.3.14.38.37C10.52,7.37,9.21,10,8.6,11.42ZM13,14.79a2.77,2.77,0,0,1-2.08,1.57c0-.05.71-.61,1.21-1.28a5.59,5.59,0,0,0,1-2.09C13.14,12.86,13.28,13.93,13,14.79Z" style="fill:#fff"/></svg>
