<svg xmlns="http://www.w3.org/2000/svg" viewBox="0 0 20 20"><title>PHP</title><rect width="20" height="20" style="fill:#696eaf"/><path d="M3.43,7.35H5.81A1.86,1.86,0,0,1,7.32,8a2,2,0,0,1,.31,1.61,2.87,2.87,0,0,1-.28.92,2.62,2.62,0,0,1-.56.81,1.94,1.94,0,0,1-1,.58,4.48,4.48,0,0,1-1,.12H3.73L3.4,13.67H2.17L3.43,7.35m1,1L3.94,11h.23a4.73,4.73,0,0,0,1.41-.17c.38-.12.64-.55.77-1.29s0-1-.32-1.06a3.73,3.73,0,0,0-1.18-.13H4.47" style="fill:#fff"/><path d="M9,5.67h1.22L9.91,7.35H11a2.21,2.21,0,0,1,1.34.37c.3.24.39.68.27,1.34L12,12H10.78l.57-2.81a.79.79,0,0,0,0-.62.74.74,0,0,0-.61-.19h-1L9,12H7.76L9,5.67" style="fill:#fff"/><path d="M13.93,7.35H16.3a1.88,1.88,0,0,1,1.52.6,2,2,0,0,1,.31,1.61,3.14,3.14,0,0,1-.28.92,2.62,2.62,0,0,1-.56.81,2,2,0,0,1-.95.58,4.57,4.57,0,0,1-1.05.12H14.23l-.34,1.68H12.66l1.27-6.32m1,1L14.43,11h.23a4.8,4.8,0,0,0,1.42-.17c.38-.12.63-.55.76-1.29s0-1-.32-1.06a3.63,3.63,0,0,0-1.17-.13H15" style="fill:#fff"/></svg>