<svg xmlns="http://www.w3.org/2000/svg" viewBox="0 0 20 20"><title>Rails</title><rect width="20" height="20" style="fill:#c00"/><path d="M2.49,15H8s-1-4.8,2.43-6.75c.76-.36,3.18-1.74,7.14,1.18l.24-.19S14.18,5.63,10.15,6c-2,.18-4.53,2-6,4.47A12.1,12.1,0,0,0,2.49,15Z" style="fill:#fefefe"/><path d="M2.49,15H8s-1-4.8,2.43-6.75c.76-.36,3.18-1.74,7.14,1.18l.24-.19S14.18,5.63,10.15,6c-2,.18-4.53,2-6,4.47A12.1,12.1,0,0,0,2.49,15Z" style="fill:#fefefe"/><path d="M2.49,15H8s-1-4.8,2.43-6.75c.76-.36,3.18-1.74,7.14,1.18l.24-.19S14.18,5.63,10.15,6c-2,.18-4.53,2-6,4.47A12,12,0,0,0,2.49,15ZM14,6.42,14,6a3.44,3.44,0,0,0-.68-.25l0,.46Z" style="fill:#fefefe"/><path d="M13.3,7.9l0,.44a4.06,4.06,0,0,1,.69.08L14,8A4.36,4.36,0,0,0,13.3,7.9ZM10.72,5.73h.07l-.14-.43a5.12,5.12,0,0,0-.67,0l.13.41C10.31,5.73,10.52,5.73,10.72,5.73Zm.33,2.56.16.48a3.85,3.85,0,0,1,.61-.24l-.16-.46A5.31,5.31,0,0,0,11.05,8.29ZM7.89,6.46,7.57,6c-.17.09-.35.18-.54.3l.32.48ZM9.32,9.59l.33.5a4.63,4.63,0,0,1,.41-.49l-.31-.47A3.09,3.09,0,0,0,9.32,9.59Zm-1,2.25.56.44A5.76,5.76,0,0,1,9,11.47l-.5-.4A4.66,4.66,0,0,0,8.31,11.84ZM5.25,8.53l-.49-.44c-.18.18-.36.35-.52.53l.54.46C4.93,8.89,5.09,8.7,5.25,8.53Zm-2.1,3.11-.8-.29c-.13.3-.28.65-.35.83l.8.3C2.89,12.24,3,11.9,3.15,11.64Zm5,2a6.69,6.69,0,0,0,.09.87l.83.3c-.06-.27-.12-.57-.17-.9Z" style="fill:#fefefe"/></svg>
