<svg xmlns="http://www.w3.org/2000/svg" viewBox="0 0 20 20"><title>react</title><rect width="20" height="20" style="fill:#333"/><path d="M18,10c0-1.19-1.13-2.24-2.9-2.95.28-1.88-.07-3.39-1.1-4a2.1,2.1,0,0,0-1-.26,5.15,5.15,0,0,0-3,1.31A5.15,5.15,0,0,0,7,2.81a2.1,2.1,0,0,0-1,.26c-1,.59-1.38,2.1-1.1,4C3.13,7.76,2,8.81,2,10S3.13,12.24,4.9,13c-.28,1.88.07,3.39,1.1,4a2.1,2.1,0,0,0,1,.26,5.15,5.15,0,0,0,3-1.31,5.15,5.15,0,0,0,3,1.31,2.1,2.1,0,0,0,1-.26c1-.59,1.38-2.1,1.1-4C16.87,12.24,18,11.19,18,10ZM13,3.81a1,1,0,0,1,.53.13c.54.31.82,1.34.64,2.79a14.38,14.38,0,0,0-2-.42A14.42,14.42,0,0,0,10.77,4.8,4.12,4.12,0,0,1,13,3.81Zm.69,7.46c.12.35.21.69.29,1a9.29,9.29,0,0,1-1,.26c.13-.21.27-.41.4-.64S13.55,11.48,13.66,11.27Zm-1.21.14a15.54,15.54,0,0,1-.88,1.34,15.7,15.7,0,0,1-1.57.08,15.7,15.7,0,0,1-1.57-.08,15.54,15.54,0,0,1-.88-1.34c-.27-.48-.51-.95-.72-1.4a14.57,14.57,0,0,1,.72-1.42,14.13,14.13,0,0,1,.88-1.34,15.45,15.45,0,0,1,3.14,0,15.54,15.54,0,0,1,.88,1.34A14.57,14.57,0,0,1,13.17,10C13,10.46,12.72,10.93,12.45,11.41ZM10,14.55c-.24-.23-.48-.47-.72-.74l.72,0,.72,0C10.48,14.08,10.24,14.32,10,14.55ZM6.69,11.91c.13.23.27.43.4.64a9.29,9.29,0,0,1-1-.26c.08-.33.17-.67.29-1C6.45,11.48,6.56,11.7,6.69,11.91ZM6.33,8.74c-.12-.36-.21-.7-.29-1a10.07,10.07,0,0,1,1-.26c-.13.21-.27.41-.4.64S6.44,8.52,6.33,8.74ZM10,5.45c.24.23.48.47.72.74l-.72,0-.72,0C9.52,5.92,9.76,5.68,10,5.45Zm3.31,2.64c-.13-.23-.27-.43-.4-.64A10.07,10.07,0,0,1,14,7.71c-.08.33-.17.67-.29,1C13.56,8.52,13.44,8.31,13.31,8.09ZM6.5,3.94A1,1,0,0,1,7,3.81a4.12,4.12,0,0,1,2.2,1A14.42,14.42,0,0,0,7.88,6.31a14.38,14.38,0,0,0-2,.42C5.68,5.28,6,4.25,6.5,3.94ZM3,10c0-.62.75-1.38,2.1-1.95A12.73,12.73,0,0,0,5.75,10,12.73,12.73,0,0,0,5.1,12C3.75,11.38,3,10.62,3,10Zm4,6.19a1,1,0,0,1-.53-.13c-.52-.3-.77-1.21-.67-2.44,0-.11,0-.23,0-.35a14.39,14.39,0,0,0,2,.42A14.42,14.42,0,0,0,9.23,15.2,4.12,4.12,0,0,1,7,16.19Zm7.14-2.57c.1,1.23-.15,2.14-.67,2.44a1,1,0,0,1-.53.13,4.12,4.12,0,0,1-2.2-1,14.42,14.42,0,0,0,1.35-1.51,14.39,14.39,0,0,0,2-.42C14.13,13.39,14.17,13.51,14.17,13.62ZM14.9,12A12.73,12.73,0,0,0,14.25,10a12.73,12.73,0,0,0,.65-1.95C16.25,8.62,17,9.38,17,10S16.25,11.38,14.9,12Z" style="fill:#00d8ff"/><circle cx="10" cy="10" r="1" style="fill:#00d8ff"/></svg>