<svg xmlns="http://www.w3.org/2000/svg" viewBox="0 0 20 20"><title>Rust</title><rect width="20" height="20" style="fill:#eeedf4"/><path d="M9.44,3.12a.54.54,0,1,1,.53.54.53.53,0,0,1-.53-.54M3.05,8a.54.54,0,0,1,.54-.53A.53.53,0,0,1,4.12,8,.54.54,0,1,1,3.05,8M15.82,8a.54.54,0,1,1,1.07,0,.54.54,0,0,1-1.07,0M4.6,8.72a.48.48,0,0,0,.25-.64l-.24-.54h.94v4.21H3.66a6.69,6.69,0,0,1-.21-2.52Zm3.91.11V7.59h2.22c.12,0,.81.13.81.65s-.53.59-1,.59Zm-3,6.67A.54.54,0,1,1,6,16a.54.54,0,0,1-.54-.54m7.93,0a.54.54,0,1,1,.54.53.54.54,0,0,1-.54-.53m.17-1.21a.48.48,0,0,0-.58.37l-.27,1.25a6.56,6.56,0,0,1-5.5,0L7,14.66a.49.49,0,0,0-.58-.37l-1.11.24a6.22,6.22,0,0,1-.57-.68h5.38c.06,0,.1,0,.1-.06V11.88c0-.05,0-.06-.1-.06H8.51V10.61h1.7a1.07,1.07,0,0,1,1,.91c.07.26.21,1.13.32,1.4s.51.93.95.93h2.78a6.91,6.91,0,0,1-.61.71Zm3-5a6.2,6.2,0,0,1,0,1.14h-.68c-.06,0-.09.05-.09.11v.31c0,.73-.41.89-.77.93s-.73-.14-.78-.35a2.33,2.33,0,0,0-1.07-1.81,2.43,2.43,0,0,0,1.35-1.87A2.13,2.13,0,0,0,13.5,6a3,3,0,0,0-1.42-.46h-7A6.6,6.6,0,0,1,8.78,3.47l.82.86a.48.48,0,0,0,.69,0l.92-.88a6.56,6.56,0,0,1,4.51,3.21L15.09,8.1a.49.49,0,0,0,.25.65Zm1.58,0,0-.22.65-.61a.27.27,0,0,0-.09-.43l-.83-.31-.06-.22.51-.71a.27.27,0,0,0-.17-.41l-.87-.15-.11-.19.37-.81a.27.27,0,0,0-.25-.37l-.88,0-.14-.17.2-.87a.27.27,0,0,0-.31-.31l-.87.21-.17-.15,0-.88a.27.27,0,0,0-.37-.25l-.81.37-.19-.11-.14-.87a.27.27,0,0,0-.41-.17l-.72.52-.22-.07L12,1.33a.27.27,0,0,0-.43-.09l-.61.65-.22,0-.47-.75a.26.26,0,0,0-.44,0l-.47.75-.22,0-.61-.65a.27.27,0,0,0-.43.09l-.31.83-.22.07L6.8,1.71a.26.26,0,0,0-.4.17l-.15.87-.19.11-.81-.37a.27.27,0,0,0-.37.25l0,.88-.17.15-.87-.21a.27.27,0,0,0-.31.31l.2.87-.14.17-.88,0a.27.27,0,0,0-.25.37l.37.81-.11.19-.87.15a.27.27,0,0,0-.17.41l.52.71-.07.22-.83.31a.27.27,0,0,0-.09.43l.65.61,0,.22-.76.47a.27.27,0,0,0,0,.44l.76.47,0,.22-.65.61a.27.27,0,0,0,.09.43l.83.31.07.22-.52.72a.27.27,0,0,0,.17.41l.87.14.11.19-.37.81a.27.27,0,0,0,.25.37l.88,0,.14.17-.2.87a.27.27,0,0,0,.31.31l.87-.2.17.14,0,.88a.27.27,0,0,0,.37.25l.81-.37.19.11.15.87a.26.26,0,0,0,.4.17l.72-.51.22.06.31.83a.27.27,0,0,0,.43.09l.61-.65.22,0,.47.76a.27.27,0,0,0,.44,0l.47-.76.22,0,.61.65a.27.27,0,0,0,.43-.09l.31-.83.22-.06.72.51a.26.26,0,0,0,.4-.17l.15-.87.19-.11.81.37a.27.27,0,0,0,.37-.25l0-.88.17-.14.87.2a.27.27,0,0,0,.31-.31l-.2-.87.14-.17.88,0a.27.27,0,0,0,.25-.37l-.37-.81.11-.19.87-.14a.27.27,0,0,0,.17-.41l-.52-.72.07-.22.83-.31a.27.27,0,0,0,.09-.43l-.65-.61,0-.22.76-.47a.27.27,0,0,0,0-.44Z"/></svg>
