<svg xmlns="http://www.w3.org/2000/svg" viewBox="0 0 20 20"><title>swift</title><rect width="20" height="20" style="fill:#fb4127"/><path d="M13.36,15.46a7.47,7.47,0,0,1-6.69.08,10.45,10.45,0,0,1-4.72-4,8.42,8.42,0,0,0,1.74,1.06,7.27,7.27,0,0,0,6.89,0h0A36.54,36.54,0,0,1,4.25,6,7.11,7.11,0,0,1,3.4,4.84,49.65,49.65,0,0,0,9.55,9.51,46.9,46.9,0,0,1,5.22,4.08a43.65,43.65,0,0,0,7.14,5.86l.27.16a5.09,5.09,0,0,0,.19-.59,7.94,7.94,0,0,0-1.57-6.66c3.44,2.08,5.48,6,4.63,9.25,0,.09-.05.18-.07.26l0,0c1.7,2.12,1.23,4.37,1,4C15.94,14.55,14.23,15.1,13.36,15.46Z" style="fill:#fefefe"/></svg>