<svg xmlns="http://www.w3.org/2000/svg" viewBox="0 0 20 20">
  <title>Tryton</title>
  <rect width="20" height="20" style="fill: #1b2019"/>
  <path d="M1.48,13.25c.46-.24,1.33.15,1.73.79A3.28,3.28,0,0,0,6,14.86c.42-.18.53-.42.56-1.23.07-1.54-.28-2.75-1.4-4.89C4.58,7.67,4,6.48,3.83,6.1a7.29,7.29,0,0,0-1-1.48c-.77-.94-.79-1.19-.16-1.73.95-.81,2.55.5,2.2,1.8-.17.64.16,1.57,1.24,3.54,1.29,2.33,2.59,3.28,3.36,2.44a10.79,10.79,0,0,0,.68-3.28c.35-2.81.35-3,0-3.54-.66-1,0-2,1-1.64S12.9,4,12.25,4.46c-.3.2-.39.8-.52,3.29-.17,3.18,0,4,.67,4.46s.85.31,2.19-.77,2-1.88,2-2.58a.94.94,0,0,1,1.16-.94,1,1,0,0,1,.88.65c.51.94.36,1.54-.4,1.7s-1.7,1.5-3.35,4.3c-1.74,3-2.12,3.27-4.07,3.3a17.05,17.05,0,0,1-4.57-1.09c-1.93-.6-3.75-1.13-4.06-1.17C1.12,15.48.57,13.73,1.48,13.25Z" style="fill: #ededed"/>
</svg>
