<?xml version="1.0" encoding="UTF-8" standalone="no"?>
<!-- Created with Inkscape (http://www.inkscape.org/) -->

<svg
   xmlns:dc="http://purl.org/dc/elements/1.1/"
   xmlns:cc="http://creativecommons.org/ns#"
   xmlns:rdf="http://www.w3.org/1999/02/22-rdf-syntax-ns#"
   xmlns:svg="http://www.w3.org/2000/svg"
   xmlns="http://www.w3.org/2000/svg"
   xmlns:sodipodi="http://sodipodi.sourceforge.net/DTD/sodipodi-0.dtd"
   xmlns:inkscape="http://www.inkscape.org/namespaces/inkscape"
   width="256"
   height="256"
   viewBox="0 0 256 256"
   id="svg2589"
   sodipodi:version="0.32"
   inkscape:version="0.48.0 r9654"
   sodipodi:docname="tryton-icon.svg"
   inkscape:output_extension="org.inkscape.output.svg.inkscape"
   version="1.0">
  <title
     id="title3104">Tryton</title>
  <defs
     id="defs2591">
    <inkscape:perspective
       sodipodi:type="inkscape:persp3d"
       inkscape:vp_x="0 : 526.18109 : 1"
       inkscape:vp_y="0 : 1000 : 0"
       inkscape:vp_z="744.09448 : 526.18109 : 1"
       inkscape:persp3d-origin="372.04724 : 350.78739 : 1"
       id="perspective2597" />
  </defs>
  <sodipodi:namedview
     id="base"
     pagecolor="#ffffff"
     bordercolor="#666666"
     borderopacity="1.0"
     inkscape:pageopacity="0.0"
     inkscape:pageshadow="2"
     inkscape:zoom="0.35"
     inkscape:cx="-750.71428"
     inkscape:cy="62.857143"
     inkscape:document-units="px"
     inkscape:current-layer="layer1"
     showgrid="false"
     inkscape:window-width="1280"
     inkscape:window-height="1024"
     inkscape:window-x="0"
     inkscape:window-y="0"
     width="256px"
     inkscape:window-maximized="0" />
  <metadata
     id="metadata2594">
    <rdf:RDF>
      <cc:Work
         rdf:about="">
        <dc:format>image/svg+xml</dc:format>
        <dc:type
           rdf:resource="http://purl.org/dc/dcmitype/StillImage" />
        <dc:title>Tryton</dc:title>
        <cc:license
           rdf:resource="" />
        <dc:creator>
          <cc:Agent>
            <dc:title>Bertrand Chenal</dc:title>
          </cc:Agent>
        </dc:creator>
      </cc:Work>
    </rdf:RDF>
  </metadata>
  <g
     inkscape:label="Calque 1"
     inkscape:groupmode="layer"
     id="layer1"
     transform="translate(-279.10535,-220.03895)">
    <g
       id="g2381"
       transform="matrix(1.921664,0,0,1.921664,-257.24135,-202.80203)">
      <path
         inkscape:export-ydpi="86.470001"
         inkscape:export-xdpi="86.470001"
         inkscape:export-filename="/home/bch/icon.png"
         sodipodi:nodetypes="ccccccccc"
         id="path5301"
         d="M 412.32323,322.16409 C 412.32308,343.04264 401.11709,353.40648 378.70516,353.25522 L 314.22867,353.25522 C 290.81311,353.25522 279.10535,343.19424 279.10535,323.07157 L 279.10535,251.3573 C 279.10535,230.4784 290.5622,220.03895 313.47599,220.03895 L 378.20338,220.03895 C 400.94981,220.03895 412.32308,230.55402 412.32323,251.58418 L 412.32323,322.16409"
         style="font-size:108.87190247px;font-style:normal;font-variant:normal;font-weight:normal;font-stretch:normal;text-align:start;line-height:125%;writing-mode:lr-tb;text-anchor:start;fill:#1b2019;fill-opacity:1;stroke:none;stroke-width:1px;stroke-linecap:butt;stroke-linejoin:miter;stroke-opacity:1;font-family:Kimberley;-inkscape-font-specification:Kimberley" />
      <path
         inkscape:export-ydpi="86.470001"
         inkscape:export-xdpi="86.470001"
         inkscape:export-filename="/home/bch/icon.png"
         style="fill:#ededed;fill-opacity:1;stroke:none;stroke-width:1.26842833;stroke-miterlimit:4;stroke-dasharray:none;stroke-opacity:1"
         d="M 288.99559,308.25172 C 292.09127,306.62574 297.88176,309.27449 300.50383,313.51767 C 302.8549,317.3218 314.76561,320.8627 318.98603,319.01203 C 321.80229,317.77783 322.51333,316.21366 322.73386,310.76695 C 323.1489,300.52359 320.84164,292.50281 313.37161,278.2244 C 309.62279,271.05845 305.69461,263.13385 304.64264,260.61737 C 303.59041,258.09966 300.75374,253.65582 298.33896,250.74177 C 293.19987,244.54382 293.04031,242.85028 297.25792,239.25469 C 303.57321,233.87143 314.24172,242.58579 311.93884,251.24628 C 310.80553,255.50895 312.98129,261.72677 320.18712,274.81699 C 328.73746,290.35035 337.40333,296.64235 342.57881,291.07544 C 343.9159,289.63767 345.57564,281.61605 347.10513,269.19866 C 349.40596,250.52245 349.39427,249.40476 346.86039,245.64991 C 342.47996,239.15809 346.61048,232.42164 353.54234,234.75155 C 360.53122,237.10014 365.09058,246.60512 360.71056,249.69411 C 358.76707,251.06431 358.13893,255.04878 357.25718,271.60031 C 356.12669,292.82409 356.98183,298.50462 361.73718,301.35982 C 365.96354,303.89702 367.43339,303.38127 376.34297,296.21369 C 385.79672,288.60995 389.68322,283.6885 389.93287,279.00589 C 390.16497,274.65077 393.05085,272.32083 397.65098,272.77605 C 400.58326,273.06708 401.89245,274.03055 403.53149,277.10171 C 406.87815,283.37342 405.91932,287.35835 400.8189,288.37652 C 396.66266,289.20529 389.52267,298.40471 378.53882,317.08095 C 366.94063,336.80192 364.39846,338.85614 351.40019,339.01368 C 346.05671,339.07751 338.58094,337.29897 320.98194,331.77309 C 308.14802,327.74219 295.98135,324.244 293.94456,323.9969 C 286.58526,323.10803 282.9191,311.44518 288.99559,308.25172 z"
         id="path5303" />
    </g>
  </g>
</svg>
